<svg version="1.1" id="Слой_1" xmlns="http://www.w3.org/2000/svg" x="0" y="0" width="60" height="30" xml:space="preserve"><style>.st1{fill:#3e3d3f}</style><g id="Layer_2"><g id="Слой_1_1_"><path d="M58.6 0H1.4C.6 0 0 .6 0 1.4v27.1c0 .8.6 1.5 1.4 1.5h57.1c.8 0 1.4-.6 1.4-1.4V1.4C60 .6 59.4 0 58.6 0z" fill="#fff" stroke="#cccbcb" stroke-width=".112" stroke-miterlimit="10"/><path class="st1" d="M17.8 20.7h-2.3v-8.8l-2.7.8v-1.9l4.8-1.7h.3v11.6z"/></g></g><path class="st1" d="M44.9 16.2c-.5.6-1.3.9-2.1.9-.9 0-1.8-.3-2.4-1-.6-.8-1-1.8-.9-2.8 0-.7.2-1.4.5-2 .3-.6.8-1.1 1.4-1.4.6-.3 1.3-.5 2-.5s1.4.2 2 .6c.6.4 1.1 1 1.4 1.6.3.8.5 1.6.5 2.4v.8c0 1.9-.5 3.4-1.4 4.4-1 1.1-2.5 1.7-4 1.7h-.6V19h.5c1.9-.1 3-1.1 3.1-2.8zm-1.5-.9c.3 0 .7-.1.9-.3.3-.2.5-.4.6-.7v-.9c0-.6-.1-1.3-.4-1.8-.3-.4-.7-.6-1.2-.6s-.9.2-1.1.6c-.3.5-.5 1-.4 1.6 0 .5.1 1.1.4 1.5.3.4.7.7 1.2.6zm-22.7 5.5v-2.3H23v2.3m4.2 0v-2.3h2.3v2.3m4.1 0v-2.3h2.3v2.3"/></svg>