<svg xmlns="http://www.w3.org/2000/svg" width="30" height="30"><path d="M1.42 0h27.14c.79 0 1.43.64 1.43 1.43v27.14c0 .79-.64 1.43-1.43 1.43H1.42c-.79 0-1.43-.64-1.43-1.43V1.43C-.01.64.63 0 1.42 0z" fill="#fff"/><path d="M19.02 20.85h-7.9v-1.56l3.73-3.97c.43-.45.81-.94 1.13-1.46.23-.36.36-.77.37-1.19.03-.44-.11-.87-.38-1.2-.29-.31-.69-.47-1.11-.44-.46-.01-.91.19-1.2.54-.31.4-.47.9-.45 1.41H10.9c-.01-.67.17-1.34.51-1.92.33-.58.83-1.05 1.42-1.36.64-.34 1.36-.52 2.08-.51.99-.06 1.98.24 2.76.86.67.62 1.03 1.5.98 2.41-.01.61-.16 1.2-.44 1.74-.41.75-.92 1.45-1.52 2.07L14.08 19h4.95v1.85z" fill="#3e3d3f"/></svg>