<svg xmlns="http://www.w3.org/2000/svg" width="30" height="30"><path d="M1.43 0h27.14C29.36 0 30 .64 30 1.43v27.14c0 .79-.64 1.43-1.43 1.43H1.43C.64 30 0 29.36 0 28.57V1.43C0 .64.64 0 1.43 0z" fill="#fff"/><path d="M13.46 14.08h1.21c.47.04.94-.11 1.29-.42.29-.31.44-.73.42-1.15.02-.41-.13-.8-.42-1.09-.32-.27-.73-.41-1.14-.38-.4-.01-.79.11-1.1.36-.29.22-.46.57-.45.94H11c0-.58.17-1.14.51-1.61.34-.49.81-.88 1.36-1.12.6-.28 1.26-.41 1.92-.4 1.03-.06 2.05.25 2.86.88.69.6 1.06 1.49 1.01 2.4a2.42 2.42 0 01-.51 1.46c-.33.44-.76.79-1.27 1.01.58.19 1.09.55 1.45 1.05.33.49.49 1.06.48 1.65.03.94-.38 1.85-1.11 2.44-.85.65-1.9.97-2.96.92-1.02.04-2.02-.28-2.82-.91-.71-.59-1.1-1.47-1.07-2.38h2.3c-.01.41.18.8.51 1.06.34.28.76.42 1.2.41.46.01.9-.15 1.24-.46.31-.3.48-.71.47-1.14 0-1.15-.63-1.72-1.9-1.72h-1.21v-1.8z" fill="#3e3d3f"/></svg>