<svg xmlns="http://www.w3.org/2000/svg" width="30" height="30"><path d="M1.43 0h27.14C29.36 0 30 .64 30 1.43v27.14c0 .79-.64 1.43-1.43 1.43H1.43C.64 30 0 29.36 0 28.57V1.43C0 .64.64 0 1.43 0z" fill="#fff"/><path d="M11.48 15.18l.67-5.85h6.45v1.91h-4.56l-.28 2.48c.53-.29 1.13-.44 1.73-.44.97-.05 1.91.32 2.58 1.01.66.8 1 1.82.94 2.85.02.7-.15 1.4-.47 2.02-.31.58-.78 1.05-1.35 1.37-.64.34-1.35.52-2.07.51-.68-.01-1.34-.16-1.95-.46-.57-.26-1.06-.67-1.41-1.19-.35-.52-.54-1.13-.55-1.75h2.26c.02.42.2.82.51 1.12.31.27.71.42 1.12.4.47.03.92-.18 1.19-.56a2.6 2.6 0 00.42-1.58c.04-.55-.13-1.09-.48-1.52-.36-.36-.86-.54-1.37-.51-.48-.02-.95.13-1.32.43l-.22.2-1.84-.44z" fill="#3e3d3f"/></svg>