<svg xmlns="http://www.w3.org/2000/svg" width="30" height="30"><path d="M1.43 0h27.14C29.36 0 30 .64 30 1.43v27.14c0 .79-.64 1.43-1.43 1.43H1.43C.64 30 0 29.36 0 28.57V1.43C0 .64.64 0 1.43 0z" fill="#fff"/><path d="M17.34 9.22v1.88h-.22c-.9-.03-1.78.25-2.5.8-.65.55-1.06 1.33-1.14 2.18.61-.62 1.45-.95 2.32-.92.92-.04 1.81.36 2.39 1.08.62.81.94 1.81.89 2.83 0 .71-.17 1.4-.51 2.02-.31.59-.78 1.08-1.36 1.41-.62.35-1.32.52-2.02.51-1.12.04-2.2-.42-2.94-1.27a4.882 4.882 0 01-1.11-3.38v-.82a7.42 7.42 0 01.71-3.31c.44-.92 1.14-1.7 2.02-2.22.93-.54 2-.81 3.07-.79h.4zm-2.23 5.77c-.36 0-.71.1-1.01.29-.29.18-.52.45-.66.76v.69c-.04.63.12 1.25.45 1.79.48.69 1.42.87 2.11.39.13-.09.25-.2.34-.33.32-.44.48-.98.46-1.52.03-.54-.14-1.08-.46-1.52-.3-.36-.76-.57-1.23-.55z" fill="#3e3d3f"/></svg>