<svg xmlns="http://www.w3.org/2000/svg" width="30" height="30"><path d="M1.55.12h27.02c.79 0 1.43.64 1.43 1.43v27.02c0 .79-.64 1.43-1.43 1.43H1.55c-.79 0-1.43-.64-1.43-1.43V1.55C.12.76.76.12 1.55.12z" fill="#fff"/><path d="M18.69 12.47c.01.52-.14 1.04-.42 1.48-.29.43-.69.78-1.15 1.01.53.25.99.63 1.33 1.11.34.49.51 1.07.5 1.66.04.92-.35 1.81-1.04 2.41-.8.63-1.81.94-2.83.88-1.03.07-2.04-.24-2.86-.87-.69-.6-1.08-1.48-1.04-2.39-.01-.59.17-1.18.5-1.66.33-.48.79-.86 1.32-1.1-.46-.23-.86-.58-1.14-1.01a2.67 2.67 0 01-.41-1.48c-.04-.88.32-1.74.97-2.33.74-.62 1.69-.93 2.66-.87a3.9 3.9 0 012.65.86c.64.58.99 1.43.96 2.3zm-2.02 5.11c.02-.44-.14-.87-.43-1.2-.31-.31-.73-.47-1.17-.45a1.5 1.5 0 00-1.15.45c-.3.32-.46.76-.43 1.2-.03.44.12.87.4 1.19.31.31.74.48 1.18.45.44.03.88-.14 1.19-.45.29-.33.43-.76.4-1.19h.01zm-.23-5c.02-.39-.11-.78-.36-1.08-.56-.53-1.43-.53-1.99 0-.25.31-.38.69-.35 1.09-.02.4.11.79.35 1.1.25.29.63.44 1.01.42.38.03.76-.13 1.01-.42.23-.32.34-.71.31-1.11h.02z" fill="#3e3d3f"/></svg>