<svg xmlns="http://www.w3.org/2000/svg" width="31" height="30"><path d="M1.66 0H28.8c.79 0 1.43.64 1.43 1.43v27.14c0 .79-.64 1.43-1.43 1.43H1.66c-.79 0-1.43-.64-1.43-1.43V1.43C.23.64.87 0 1.66 0z" fill="#fff"/><path d="M16.05 16.25c-.55.56-1.3.88-2.09.88-.93.04-1.83-.35-2.44-1.05-.65-.79-.97-1.8-.92-2.82 0-.72.17-1.44.51-2.08.31-.61.79-1.12 1.38-1.47.6-.35 1.29-.52 1.99-.51.72-.01 1.42.18 2.02.57.61.4 1.09.97 1.38 1.64.34.77.52 1.6.51 2.44v.83c0 1.92-.48 3.43-1.43 4.53a5.41 5.41 0 01-4.05 1.75h-.56v-1.9h.51c1.96-.1 3.03-1.04 3.19-2.81zm-1.52-.87c.34.01.68-.09.96-.28.25-.18.46-.41.6-.69v-.94c.04-.64-.12-1.27-.45-1.82-.26-.4-.71-.65-1.19-.64-.46 0-.89.24-1.13.64-.31.47-.46 1.02-.44 1.58-.02.55.13 1.09.44 1.54.27.39.72.62 1.2.61h.01z" fill="#3e3d3f"/></svg>