<svg xmlns="http://www.w3.org/2000/svg" width="42" height="30"><path d="M1.57 0H40.4c.79 0 1.43.64 1.43 1.43v27.15c0 .79-.64 1.43-1.43 1.43H1.57c-.79 0-1.43-.64-1.43-1.43V1.43C.15.64.79 0 1.57 0z" fill="#fff"/><path d="M18.63 17.51h-3.5l-.66 1.99h-2.12l3.6-9.67h1.83l3.62 9.67h-2.1l-.67-1.99zm-2.96-1.62h2.42l-1.21-3.62-1.21 3.62zm8.56 3.61h-1.9V9.29h1.93l-.03 10.21zm3.88-8.96v1.77h1.23v1.41h-1.23v3.59c-.02.2.03.4.15.57.16.14.37.2.58.18.19 0 .38-.01.56-.05v1.46c-.38.12-.77.18-1.16.18-1.34 0-2.03-.68-2.06-2.04v-3.88h-1.05v-1.41h1.05v-1.77h1.93z" fill="#3e3d3f"/></svg>