<svg version="1.1" id="Слой_1" xmlns="http://www.w3.org/2000/svg" x="0" y="0" width="47" height="30" xml:space="preserve"><style>.st0{fill:#fff}.st1{fill:#3e3d3f}</style><g id="Layer_2"><path class="st0" d="M1.44 15.68h12.17c.59 0 1.07.48 1.07 1.07v12.17c0 .59-.48 1.07-1.07 1.07H1.44c-.59 0-1.07-.48-1.07-1.07V16.76c0-.6.48-1.08 1.07-1.08z"/><path class="st1" d="M8.8 19.3l-3.54 3.54 3.54 3.54 1-1-2.54-2.54 2.54-2.53z"/><path class="st0" d="M33.03 15.68H45.2c.59 0 1.07.48 1.07 1.07v12.17c0 .59-.48 1.07-1.07 1.07H33.03c-.59 0-1.07-.48-1.07-1.07V16.76c-.01-.6.47-1.08 1.07-1.08z"/><path class="st1" d="M37.84 26.38l3.54-3.54-3.54-3.54-1 1.01 2.53 2.53-2.53 2.54z"/><path class="st0" d="M17.4 15.68h12.17c.59 0 1.07.48 1.07 1.07v12.17c0 .59-.48 1.07-1.07 1.07H17.4c-.59 0-1.07-.48-1.07-1.07V16.76c0-.6.48-1.08 1.07-1.08z"/><path class="st1" d="M19.94 21.57l3.54 3.55 3.55-3.55-1.01-1-2.54 2.53-2.53-2.53z"/><path class="st0" d="M17.53 0H29.7c.59 0 1.07.48 1.07 1.07v12.17c0 .59-.48 1.07-1.07 1.07H17.53c-.59 0-1.07-.48-1.07-1.07V1.07C16.45.48 16.93 0 17.53 0z"/><path class="st1" d="M27.03 8.43l-3.55-3.54-3.54 3.54 1.01 1 2.53-2.53 2.54 2.53z"/></g></svg>