<svg xmlns="http://www.w3.org/2000/svg" width="31" height="30"><path d="M1.43 0h27.14C29.36 0 30 .64 30 1.43v27.14c0 .79-.64 1.43-1.43 1.43H1.43C.64 30 0 29.36 0 28.57V1.43C0 .64.64 0 1.43 0z" fill="#fff"/><path d="M10.39 20.25V8.74h4.05c1.4 0 2.46.27 3.18.8.73.56 1.14 1.44 1.08 2.35.01.53-.14 1.05-.44 1.49-.3.43-.72.76-1.21.95.55.13 1.05.44 1.4.89.35.48.52 1.06.51 1.65.07.96-.32 1.9-1.06 2.53-.88.63-1.96.93-3.04.87l-4.47-.02zm2.37-6.7h1.76c1.2-.02 1.8-.5 1.8-1.43.04-.43-.13-.85-.46-1.13-.43-.26-.93-.38-1.43-.34h-1.67v2.9zm0 1.69v3.11h2.02c.47.03.94-.12 1.31-.4.32-.28.49-.68.47-1.1 0-1.06-.55-1.59-1.64-1.6l-2.16-.01z" fill="#3e3d3f"/></svg>