<svg xmlns="http://www.w3.org/2000/svg" width="98" height="30"><path d="M2.18 0h93.88c.79 0 1.43.64 1.43 1.43v27.15c0 .79-.64 1.43-1.43 1.43H2.18c-.79 0-1.43-.64-1.43-1.43V1.43C.76.64 1.39 0 2.18 0z" fill="#fff"/><path d="M16.61 18.97V9.3H20c.94-.06 1.88.17 2.67.68.61.47.95 1.21.91 1.98.01.44-.12.88-.36 1.25-.25.36-.6.64-1.01.8.47.11.88.37 1.17.75.29.4.43.88.42 1.38.06.8-.26 1.59-.87 2.12-.73.52-1.62.78-2.52.73h-3.8zm2.02-5.62h1.48c1.01 0 1.51-.42 1.51-1.2.04-.36-.11-.71-.38-.94-.36-.22-.78-.33-1.2-.29h-1.42l.01 2.43zm0 1.42v2.61h1.71c.39.02.77-.1 1.08-.34.26-.23.4-.57.39-.91 0-.89-.46-1.34-1.38-1.35l-1.8-.01zm10.71 4.2c-.1-.2-.16-.42-.19-.65-.46.52-1.12.8-1.81.78-.64.02-1.27-.2-1.75-.61-.45-.38-.7-.95-.69-1.54-.04-.69.28-1.35.85-1.75.73-.45 1.59-.67 2.45-.62h.88v-.41c.01-.29-.08-.57-.26-.8-.21-.21-.51-.32-.81-.3-.27-.02-.54.07-.76.23-.19.16-.29.39-.28.63h-1.92c.01-.42.15-.82.41-1.15.28-.37.66-.66 1.09-.83.5-.21 1.04-.31 1.58-.3.76-.04 1.51.2 2.11.67.53.48.81 1.17.77 1.88v3.11c-.03.53.07 1.06.29 1.55v.11h-1.96zm-1.59-1.33c.27 0 .54-.06.78-.19.22-.11.41-.29.53-.5v-1.24h-.72c-.96 0-1.48.33-1.51 1.01v.11c-.01.22.09.44.25.59.19.15.43.23.67.22zm7.7-.08c.31.01.62-.09.87-.29.22-.2.35-.48.34-.78h1.8c0 .48-.15.94-.41 1.34-.26.41-.64.73-1.07.94-.47.23-.99.35-1.51.34-.92.04-1.81-.33-2.43-1.01-.63-.76-.94-1.72-.89-2.71v-.13c-.05-.96.26-1.91.88-2.65.62-.68 1.51-1.05 2.42-1.01.79-.04 1.57.24 2.16.77.55.53.85 1.27.83 2.04h-1.77c.01-.34-.12-.66-.34-.91-.52-.49-1.33-.46-1.82.06a.55.55 0 00-.07.09c-.27.48-.39 1.04-.34 1.59v.2c-.04.55.07 1.11.34 1.6.21.34.6.54 1.01.52zm6.72-1.47l-.69.69v2.19h-1.92V8.77h1.92v5.65l.37-.48 1.84-2.16H46l-2.6 3 2.82 4.19h-2.2l-1.85-2.88zm8.55.9c0-.24-.14-.45-.35-.55-.35-.18-.73-.3-1.12-.36-1.71-.36-2.56-1.09-2.57-2.18 0-.63.29-1.22.8-1.6.6-.45 1.33-.68 2.08-.64.78-.04 1.55.18 2.19.64.53.39.84 1.02.82 1.68h-1.92a.92.92 0 00-.27-.68c-.23-.2-.53-.3-.83-.27-.27-.02-.53.06-.75.22-.17.13-.27.34-.27.55 0 .21.12.4.3.5.31.17.66.28 1.01.34.41.08.82.18 1.21.32 1.01.37 1.51 1.01 1.51 1.93.01.64-.31 1.24-.84 1.59-.64.43-1.41.64-2.18.61-.55.01-1.1-.1-1.6-.32-.44-.19-.82-.5-1.1-.88-.26-.35-.4-.78-.4-1.21h1.82c0 .31.14.59.38.78.28.19.61.29.94.27.29.02.59-.05.84-.21.18-.12.3-.31.3-.53zm9.58-1.54c.05.95-.22 1.88-.76 2.66-.46.65-1.22 1.03-2.02 1.01-.67.02-1.32-.25-1.76-.76v3.39h-1.94v-9.96h1.78l.07.71c.44-.55 1.12-.86 1.82-.84.81-.04 1.58.33 2.07.98.54.8.8 1.75.74 2.71v.1zm-1.92-.14c.03-.54-.09-1.08-.36-1.55-.22-.35-.6-.55-1.01-.54-.52-.05-1.01.23-1.24.7v2.94c.23.47.73.75 1.26.71.9-.01 1.35-.76 1.35-2.26zm7.27 3.66c-.1-.2-.16-.42-.19-.65-.46.52-1.12.8-1.81.78-.64.02-1.27-.2-1.75-.61-.45-.38-.71-.95-.7-1.54-.04-.69.28-1.35.85-1.75.73-.45 1.59-.67 2.45-.62h.88v-.41c.01-.29-.08-.57-.26-.8-.21-.21-.51-.32-.81-.3-.27-.02-.54.07-.76.23-.18.16-.28.39-.27.63h-1.92c0-.42.13-.82.38-1.15.28-.37.66-.66 1.09-.83.5-.21 1.04-.31 1.58-.3.76-.04 1.51.2 2.11.67.53.48.82 1.17.78 1.88v3.11c-.03.53.07 1.06.29 1.55v.11h-1.94zm-1.59-1.33c.27 0 .54-.06.79-.19.21-.12.39-.29.5-.5v-1.24h-.72c-.96 0-1.47.33-1.51 1.01v.11c0 .22.09.44.25.59.2.16.44.23.69.22zm7.71-.08c.32.01.62-.09.87-.29.22-.2.35-.48.34-.78h1.8c0 .48-.14.94-.4 1.34-.26.41-.62.73-1.05.94-.47.23-.99.35-1.51.34-.92.04-1.81-.33-2.43-1.01-.63-.76-.94-1.72-.89-2.71v-.13c-.05-.96.26-1.91.88-2.65.62-.68 1.51-1.05 2.42-1.01.79-.04 1.57.24 2.16.77.55.53.86 1.27.83 2.04h-1.8c.01-.34-.12-.66-.34-.91-.52-.49-1.33-.46-1.82.06a.55.55 0 00-.07.09c-.27.48-.39 1.04-.34 1.59v.2c-.04.55.07 1.11.34 1.6.21.33.6.54 1.01.52zm7.42 1.55c-.95.04-1.88-.31-2.58-.97a3.464 3.464 0 01-1.01-2.59v-.19c-.01-.67.13-1.33.42-1.94.26-.55.68-1.02 1.2-1.34.53-.31 1.13-.47 1.75-.46.88-.04 1.73.31 2.32.96.6.74.91 1.68.85 2.64v.79h-4.58c.05.43.24.82.56 1.11.33.29.75.44 1.19.43.67.03 1.32-.27 1.73-.81l.94 1.06c-.3.42-.7.75-1.17.95-.5.25-1.06.37-1.62.36zm-.23-5.91c-.35-.01-.69.13-.93.39-.26.31-.42.7-.45 1.1h2.67v-.15c.02-.37-.11-.73-.35-1.01a1.28 1.28 0 00-.94-.33z" fill="#3e3d3f"/></svg>