<svg xmlns="http://www.w3.org/2000/svg" width="30" height="30"><path d="M1.43 0h27.14C29.36 0 30 .64 30 1.43v27.14c0 .79-.64 1.43-1.43 1.43H1.43C.64 30 0 29.36 0 28.57V1.43C0 .64.64 0 1.43 0z" fill="#fff"/><path d="M18.55 16.41a4.083 4.083 0 01-1.37 2.93c-.92.74-2.08 1.12-3.26 1.06a4.32 4.32 0 01-3.48-1.49c-.84-.99-1.27-2.36-1.27-4.09v-.7c-.02-1.01.18-2 .59-2.93.35-.8.93-1.47 1.67-1.94.76-.46 1.64-.7 2.53-.68a4.63 4.63 0 013.21 1.07c.84.78 1.35 1.86 1.41 3.01H16.2c0-.6-.22-1.17-.62-1.61-.46-.37-1.04-.55-1.62-.51-.7-.04-1.37.28-1.78.85-.45.8-.67 1.72-.61 2.64v.86c-.06.95.14 1.89.58 2.73.4.59 1.08.92 1.78.87.59.05 1.18-.13 1.65-.51.4-.42.62-.98.62-1.55h2.35z" fill="#3e3d3f"/></svg>