<svg xmlns="http://www.w3.org/2000/svg" width="42" height="30"><path d="M1.72 0h38.85C41.36 0 42 .64 42 1.43v27.16c0 .79-.64 1.43-1.43 1.43H1.72c-.79 0-1.43-.64-1.43-1.43V1.43C.29.64.93 0 1.72 0z" fill="#fff"/><path d="M17.87 16.29c-.03.94-.45 1.83-1.15 2.46-.77.63-1.75.96-2.74.92-1.12.05-2.2-.41-2.92-1.26-.76-.98-1.14-2.2-1.07-3.44v-.62c-.01-.85.16-1.68.5-2.46.3-.67.79-1.24 1.41-1.63.64-.39 1.38-.58 2.13-.57.97-.04 1.93.27 2.68.89a3.73 3.73 0 011.19 2.52h-2.02c0-.5-.18-.98-.5-1.36a1.92 1.92 0 00-1.37-.42c-.6-.04-1.17.23-1.51.72-.38.68-.55 1.45-.5 2.22v.73c-.06.79.11 1.59.47 2.29.34.5.92.77 1.51.72.5.04.99-.11 1.38-.42.33-.36.51-.82.5-1.31l2.01.02zm3.49-5.74v1.77h1.23v1.41h-1.23v3.59c-.02.2.03.4.15.57.16.14.37.2.58.18.19 0 .38-.01.56-.05v1.46c-.38.13-.78.19-1.19.2-1.34 0-2.02-.69-2.02-2.06v-3.88h-1.07v-1.41h1.07v-1.77h1.92zm6.33 3.57a7.47 7.47 0 00-.68-.06c-.58-.08-1.15.22-1.43.74v4.7h-1.94v-7.19h1.82l.05.86c.3-.61.92-1.01 1.6-1.01.2 0 .41.03.6.09l-.02 1.87zm2.96 5.39h-1.93V9.3h1.93v10.21z" fill="#3e3d3f"/></svg>