<svg xmlns="http://www.w3.org/2000/svg" width="31" height="30"><path d="M1.57 0h27.14c.79 0 1.43.64 1.43 1.43v27.14c0 .79-.64 1.43-1.43 1.43H1.57c-.79 0-1.43-.64-1.43-1.43V1.43C.14.64.78 0 1.57 0z" fill="#fff"/><path d="M10.91 19.74V8.22h3.54c.95-.02 1.89.22 2.72.68.8.45 1.45 1.13 1.87 1.94.46.89.69 1.87.67 2.87v.51c.02.99-.21 1.97-.66 2.86-.42.81-1.07 1.48-1.86 1.93-.82.48-1.76.73-2.71.72h-3.57zm2.39-9.62v7.7h1.14c.81.05 1.6-.29 2.13-.91.53-.76.8-1.68.75-2.6v-.61a4.14 4.14 0 00-.73-2.66c-.53-.63-1.32-.98-2.15-.92H13.3z" fill="#3e3d3f"/></svg>