<svg xmlns="http://www.w3.org/2000/svg" width="42" height="30"><path d="M1.71 0h38.83c.79 0 1.43.64 1.43 1.43v27.15c0 .79-.64 1.43-1.43 1.43H1.71c-.79 0-1.43-.64-1.43-1.43V1.43C.28.64.92 0 1.71 0z" fill="#fff"/><path d="M13.89 19.5V9.83h2.98c.8-.02 1.59.18 2.28.57.67.38 1.22.95 1.57 1.63.39.74.58 1.57.56 2.41v.44c.01.83-.18 1.66-.55 2.4-.35.68-.9 1.25-1.57 1.63-.7.39-1.48.59-2.28.58h-2.99zm2.02-8.07v6.46h.96c.67.03 1.32-.25 1.76-.76.45-.64.67-1.41.63-2.19v-.5c.06-.79-.16-1.58-.61-2.23-.44-.52-1.11-.81-1.79-.76l-.95-.02zm10 8.22c-.96.03-1.89-.34-2.58-1.01a3.464 3.464 0 01-1.01-2.59v-.19c-.01-.67.13-1.33.42-1.94.27-.55.7-1 1.22-1.3a3.37 3.37 0 011.75-.46c.86-.03 1.69.3 2.28.93.61.74.91 1.68.85 2.64v.79h-4.56c.05.42.25.82.56 1.11.33.29.75.44 1.19.42.67.03 1.32-.27 1.73-.8l.94 1.05c-.3.42-.7.75-1.17.96-.5.26-1.05.39-1.62.39zm-.22-5.91c-.35-.01-.69.13-.93.39-.26.32-.42.7-.45 1.11H27v-.15c.02-.37-.11-.73-.35-1.01-.25-.25-.6-.38-.96-.36v.02zm6.29 5.76h-1.93V9.29h1.93V19.5z" fill="#3e3d3f"/></svg>