<svg xmlns="http://www.w3.org/2000/svg" width="41.5" height="30"><path d="M1.4.1h38.7c.8 0 1.4.6 1.4 1.4v27c0 .8-.6 1.4-1.4 1.4H1.4C.6 30 0 29.4 0 28.6v-27C0 .8.6.1 1.4.1z" fill="#fff"/><path d="M16 14.8h-3.8v2.6h4.5V19h-6.5V9.4h6.5V11h-4.5v2.3H16v1.5zm3.5-2.9l.1.8c.5-.6 1.3-1 2.1-.9.6-.1 1.3.2 1.7.7.4.6.6 1.3.6 2V19h-1.9v-4.6c0-.3-.1-.6-.3-.9-.2-.2-.6-.3-.9-.3-.5 0-1 .3-1.2.7v5h-1.9v-7.1h1.7zm5.5 3.5c-.1-.9.2-1.9.8-2.7.5-.7 1.2-1 2.1-1 .7 0 1.3.3 1.7.8V8.9h1.9V19h-1.7l-.1-.8c-.4.6-1.1.9-1.8.9-.8 0-1.5-.4-2-1-.7-.8-1-1.7-.9-2.7zm1.9.1c0 .5.1 1.1.4 1.5.2.3.6.6 1 .5.5 0 1-.3 1.3-.8V14c-.2-.5-.7-.8-1.2-.8-1 .1-1.5.8-1.5 2.3z" fill="#3e3d3f"/></svg>