<svg version="1.1" id="Слой_1" xmlns="http://www.w3.org/2000/svg" x="0" y="0" width="34" height="30" xml:space="preserve"><style>.st0{fill:#fff}.st1{fill:#3e3d3f}</style><g id="Layer_2"><path class="st0" d="M15.52 0h17.44c.6 0 1.09.49 1.09 1.09v27.82c0 .6-.49 1.09-1.09 1.09H15.52c-.6 0-1.09-.49-1.09-1.09V1.09c0-.6.49-1.09 1.09-1.09z"/><path class="st0" d="M1.17 10.02h17.44c.6 0 1.09.49 1.09 1.09V28.9c0 .6-.49 1.09-1.09 1.09H1.17c-.6 0-1.09-.49-1.09-1.09V11.12c0-.61.49-1.1 1.09-1.1z"/><path class="st1" d="M16 16.08l-3.6 3.6 3.6 3.6 1.02-1.02-2.58-2.58 2.58-2.58zm1.38 2.88h7.2v1.44h-7.2z"/><path class="st1" d="M23.13 12.48h1.44v7.92h-1.44z"/></g></svg>