<svg xmlns="http://www.w3.org/2000/svg" width="73" height="30"><path d="M1.51 0h69.45c.79 0 1.43.64 1.43 1.43v27.15c0 .79-.64 1.43-1.43 1.43H1.51c-.79 0-1.43-.64-1.43-1.43V1.43C.09.64.72 0 1.51 0z" fill="#fff"/><path d="M20.89 14.79h-3.82v2.59h4.49v1.6h-6.48V9.3h6.47v1.61h-4.48v2.31h3.82v1.57zm5.61 2.2c0-.24-.14-.45-.35-.55-.35-.18-.73-.3-1.12-.36-1.71-.36-2.56-1.09-2.56-2.18 0-.63.29-1.22.8-1.6.6-.45 1.33-.68 2.08-.64.78-.04 1.55.18 2.19.64.53.39.84 1.02.82 1.68h-1.93a.91.91 0 00-.26-.68c-.23-.2-.53-.3-.83-.27-.27-.02-.53.06-.75.22-.17.13-.27.34-.27.56 0 .21.12.4.3.5.31.17.65.28 1.01.34.41.08.82.18 1.21.32 1.01.37 1.51 1.01 1.51 1.94.01.64-.31 1.24-.84 1.59-.64.43-1.41.64-2.18.61-.55.01-1.1-.1-1.6-.32-.44-.19-.82-.5-1.1-.88-.24-.35-.37-.78-.36-1.2h1.82c0 .31.14.6.38.79.28.19.61.29.94.27.29.02.59-.05.84-.21.16-.15.25-.36.25-.57zm6.09.57c.31.01.62-.09.86-.29.22-.2.35-.48.35-.78h1.8c0 .48-.14.94-.4 1.34-.26.41-.63.73-1.07.94-.47.23-.99.35-1.51.34-.92.04-1.81-.33-2.43-1.01-.62-.75-.93-1.71-.87-2.68v-.13c-.05-.96.27-1.91.88-2.65.62-.68 1.51-1.05 2.43-1.01.79-.04 1.57.24 2.16.77.55.53.85 1.27.83 2.04H33.8c0-.34-.12-.66-.35-.91-.52-.49-1.33-.46-1.82.06a.55.55 0 00-.07.09c-.27.48-.38 1.04-.34 1.59v.2c-.04.55.07 1.11.34 1.6.23.32.62.52 1.03.49zm8.27 1.41c-.1-.2-.16-.42-.19-.64-.46.51-1.12.8-1.81.78a2.55 2.55 0 01-1.75-.61c-.45-.38-.71-.95-.7-1.54-.04-.69.28-1.35.85-1.75.73-.45 1.59-.67 2.45-.62h.88v-.41c.01-.29-.08-.57-.26-.8-.21-.21-.51-.32-.81-.3-.27-.02-.54.07-.76.23-.18.16-.28.39-.27.63h-1.93c0-.42.14-.82.39-1.15.28-.37.66-.66 1.09-.83.5-.21 1.04-.31 1.58-.3.76-.04 1.51.2 2.11.67.53.47.82 1.17.78 1.88v3.11c-.03.53.07 1.06.29 1.55v.11h-1.94zm-1.59-1.33c.27 0 .54-.06.79-.19.22-.11.41-.29.53-.5v-1.24h-.69c-.96 0-1.48.33-1.51 1.01v.11c-.01.22.08.44.25.59.18.14.4.22.63.22zm11.21-2.19c.05.95-.22 1.88-.76 2.66-.46.65-1.22 1.03-2.02 1.01-.67.02-1.31-.25-1.76-.76v3.39h-1.96v-9.96h1.78l.07.71c.44-.55 1.12-.86 1.82-.84.81-.03 1.58.33 2.07.98.54.8.8 1.75.76 2.71v.1zm-1.92-.14c.03-.54-.09-1.08-.35-1.55-.22-.35-.62-.56-1.04-.54-.52-.05-1.01.23-1.24.69v2.94c.23.47.73.75 1.25.71.9 0 1.36-.75 1.36-2.25h.02zm6.4 3.8c-.95.04-1.88-.31-2.58-.97a3.457 3.457 0 01-1.01-2.58v-.19c-.01-.67.13-1.33.42-1.94.26-.56.68-1.02 1.2-1.34a3.37 3.37 0 011.75-.46c.87-.05 1.72.29 2.32.93.61.74.91 1.69.85 2.64v.78h-4.58c.04.44.23.85.55 1.15.33.29.75.44 1.19.43.67.03 1.32-.27 1.73-.81l.94 1.06c-.3.42-.7.75-1.17.95-.49.24-1.05.36-1.61.35zm-.22-5.91c-.35-.01-.69.13-.93.39-.26.31-.42.7-.45 1.1h2.67v-.15c.02-.37-.11-.73-.35-1.01-.26-.23-.6-.35-.94-.33z" fill="#3e3d3f"/></svg>