<svg xmlns="http://www.w3.org/2000/svg" width="31" height="30"><path d="M2.41 0h27.14c.79 0 1.43.64 1.43 1.43v27.14c0 .79-.64 1.43-1.43 1.43H2.41c-.79 0-1.43-.64-1.43-1.43V1.43C.97.64 1.61 0 2.41 0z" fill="#fff"/><path d="M20.6 18.28c-.49.55-1.11.96-1.81 1.19-.83.29-1.71.44-2.59.43-.92.02-1.82-.21-2.62-.66-.76-.44-1.37-1.1-1.74-1.89-.43-.91-.64-1.91-.63-2.92v-.75a6.97 6.97 0 01.58-2.99c.35-.8.93-1.47 1.68-1.93.78-.46 1.67-.69 2.57-.67a4.78 4.78 0 013.2.98c.81.73 1.3 1.75 1.37 2.84H18.3c-.05-.55-.3-1.07-.7-1.45-.43-.33-.95-.49-1.49-.46-.73-.04-1.43.3-1.84.91-.47.81-.69 1.75-.63 2.69v.73c-.07.96.17 1.92.69 2.74.48.63 1.24.97 2.02.93.68.07 1.37-.14 1.9-.57v-1.98h-2.18v-1.77h4.56l-.03 4.6z" fill="#3e3d3f"/></svg>