<svg xmlns="http://www.w3.org/2000/svg" width="58.7" height="30"><path d="M1.4 0h55.8c.8 0 1.4.6 1.4 1.4v27.1c0 .8-.6 1.4-1.4 1.4H1.4C.6 30 0 29.4 0 28.6V1.4C0 .6.6 0 1.4 0z" fill="#fff"/><path d="M19.9 19h-2v-4.1H14V19h-2V9.3h2v3.9h3.9V9.3h2V19zm1.3-3.7c0-.7.1-1.3.4-1.9.3-.6.7-1 1.2-1.3.5-.3 1.2-.5 1.8-.5.9 0 1.7.3 2.4.9.6.6 1 1.5 1 2.4v.5c0 1-.3 1.9-.9 2.7-.6.7-1.5 1.1-2.5 1-.9 0-1.8-.3-2.5-1-.7-.8-1-1.7-.9-2.8zm1.9.2c0 .5.1 1.1.4 1.6.5.6 1.3.7 1.9.3l.3-.3c.3-.5.4-1.1.4-1.7 0-.5-.1-1.1-.4-1.6-.2-.4-.7-.6-1.1-.5-.4 0-.8.2-1.1.5-.3.5-.4 1.1-.4 1.7zm7.9-3.7l.1.8c.5-.6 1.3-1 2.1-.9.8-.1 1.6.4 1.9 1.1.5-.7 1.3-1.1 2.2-1.1.7-.1 1.3.2 1.7.7.4.6.6 1.3.6 2V19h-1.9v-4.6c0-.3-.1-.6-.3-.9-.2-.2-.5-.3-.8-.3-.5 0-1 .3-1.2.8v5h-1.9v-4.6c0-.3-.1-.6-.2-.9-.2-.2-.5-.3-.8-.3-.5 0-1 .2-1.2.7V19h-1.9v-7.2H31zm13.3 7.3c-1 0-1.9-.3-2.6-1-.7-.7-1-1.6-1-2.6v-.2c0-.7.1-1.3.4-1.9.3-.6.7-1 1.2-1.3.5-.3 1.1-.5 1.7-.5.9 0 1.7.3 2.3 1 .6.7.9 1.7.8 2.6v.8h-4.6c0 .4.2.8.6 1.1.3.3.7.4 1.2.4.7 0 1.3-.3 1.7-.8l.9 1.1c-.3.4-.7.7-1.2 1-.3.2-.9.3-1.4.3zm-.3-5.9c-.4 0-.7.1-.9.4-.3.3-.4.7-.5 1.1h2.7v-.2c0-.4-.1-.7-.3-1-.2-.2-.6-.3-1-.3z" fill="#3e3d3f"/></svg>