<svg id="Слой_1" data-name="Слой 1" xmlns="http://www.w3.org/2000/svg" width="18" height="30" viewBox="0 0 11.29 19.16"><defs><style>.cls-2{fill:#3e3d3f}</style></defs><path d="M11.19 4.4a5.69 5.69 0 015.73 5.6v7.88a5.61 5.61 0 01-5.64 5.64 5.62 5.62 0 01-5.64-5.64V10a5.54 5.54 0 015.55-5.6z" transform="translate(-5.64 -4.4)" fill="#fff"/><path class="cls-2" d="M9.23 8.78l.54.52a.09.09 0 00.13 0l.91-.88v3.84a.09.09 0 00.09.09h.76a.09.09 0 00.09-.09V8.42l.91.88a.09.09 0 00.13 0l.54-.52a.09.09 0 000-.07.11.11 0 000-.07l-2-1.93h-.14l-2 1.93a.11.11 0 000 .07.09.09 0 00.04.07z" transform="translate(-5.64 -4.4)"/><path class="cls-2" d="M13.33 13.63l-.54-.52a.09.09 0 00-.13 0l-.91.89v-3.84a.09.09 0 00-.09-.1h-.76a.09.09 0 00-.09.1V14l-.91-.89a.09.09 0 00-.13 0l-.54.52a.11.11 0 000 .07.09.09 0 000 .07l2 1.93a.1.1 0 00.14 0l2-1.93a.09.09 0 000-.07.11.11 0 00-.04-.07z" transform="translate(-5.64 -4.4)"/></svg>