<svg version="1.1" id="Слой_1" xmlns="http://www.w3.org/2000/svg" x="0" y="0" width="18" height="30" xml:space="preserve"><style>.st1{fill:#3e3d3f;stroke:#fff;stroke-miterlimit:10}</style><g id="Layer_2"><path d="M8.84 0h.06c4.88 0 8.84 3.96 8.84 8.84v12.31c0 4.88-3.96 8.84-8.84 8.84h-.06C3.96 30 0 26.04 0 21.16V8.84C0 3.96 3.96 0 8.84 0z" fill="#fff"/><path class="st1" d="M8.88 13.47H.44V9.13C.44 4.29 4.15.37 8.88.37v13.1z"/><path class="st1" d="M8.83 3.77h.09c.63 0 1.14.51 1.14 1.14v4.62c0 .63-.51 1.14-1.14 1.14h-.09c-.63 0-1.14-.51-1.14-1.14V4.91c0-.63.51-1.14 1.14-1.14z"/></g></svg>