<svg version="1.1" id="Слой_1" xmlns="http://www.w3.org/2000/svg" x="0" y="0" width="17.8" height="30" xml:space="preserve"><style>.st1{fill:#3e3d3f;stroke:#fff;stroke-width:.3699;stroke-miterlimit:10}</style><g id="Layer_2"><path d="M8.8 0c4.9 0 8.9 4 8.9 8.8v12.3c0 4.9-4 8.8-8.8 8.8h-.1C4 30 0 26 0 21.2V8.8C0 4 4 0 8.8 0z" fill="#fff"/><path class="st1" d="M8.9 13.5h8.4V9.1c0-4.8-3.7-8.8-8.4-8.8v13.2z"/><path class="st1" d="M8.8 3.8c.7 0 1.2.5 1.2 1.1v4.6c0 .6-.5 1.1-1.1 1.1h-.1c-.6 0-1.1-.5-1.1-1.1V4.9c0-.6.5-1.1 1.1-1.1z"/></g></svg>