<svg version="1.1" id="Слой_1" xmlns="http://www.w3.org/2000/svg" x="0" y="0" width="21.9" height="30" xml:space="preserve"><style>.st2{fill:#3e3d3f}</style><g id="Layer_2"><path d="M11 4.2c3.5 0 6.4 2.8 6.4 6.3v8.8c0 3.5-2.8 6.3-6.3 6.3s-6.3-2.8-6.3-6.3v-8.8C4.7 7.1 7.5 4.2 11 4.2z" fill="#fff"/><path d="M11 6.9h0c.5 0 .9.4.9.8V11c0 .5-.4.8-.8.8H11c-.5 0-.8-.4-.8-.8V7.8c0-.5.3-.9.8-.9z" fill="#3e3d3f" stroke="#fff" stroke-width=".265" stroke-miterlimit="10"/><path class="st2" d="M2.7 17.4c.1.1.3.1.5 0 .1-.1.1-.3 0-.5-1.3-1.3-1.3-3.3 0-4.6.1-.1.2-.3 0-.5-.1-.1-.3-.2-.5 0-1.5 1.7-1.5 4.1 0 5.6z"/><path class="st2" d="M1.6 18.5c.1.1.3.2.5 0s.2-.3 0-.5c-1.9-1.9-1.9-4.9 0-6.8.1-.1.2-.3 0-.5s-.3-.2-.5 0c-2.1 2.2-2.1 5.7 0 7.8zm17.6-6.6c-.1-.1-.3-.1-.5 0-.1.1-.1.3 0 .4 1.3 1.3 1.3 3.3 0 4.6-.1.1-.1.3 0 .5.1.1.3.1.5 0 1.5-1.5 1.5-4 0-5.5z"/><path class="st2" d="M20.3 10.8c-.1-.1-.3-.1-.5 0-.1.1-.1.3 0 .5 1.9 1.9 1.9 4.9 0 6.8-.1.1-.1.3 0 .5.1.1.3.1.4 0 2.2-2.2 2.3-5.7.1-7.8zm-6.6 16.5c.1-.1.1-.3 0-.5-.1-.1-.3-.1-.5 0-1.3 1.3-3.3 1.3-4.6 0-.1-.1-.3-.1-.5 0-.1.1-.1.3 0 .5 1.6 1.5 4.1 1.5 5.6 0z"/><path class="st2" d="M14.8 28.4c.1-.1.1-.3 0-.5-.1-.1-.3-.1-.4 0-1.9 1.9-4.9 1.9-6.8 0-.1-.1-.3-.1-.5 0-.1.1-.1.3 0 .4 2.1 2.2 5.6 2.2 7.7.1zM8.2 2.7c-.1.1-.1.3 0 .5.1.1.3.1.5 0 1.3-1.3 3.3-1.3 4.6 0 .1.1.3.1.5 0 .1-.1.1-.3 0-.5-1.6-1.5-4.1-1.5-5.6 0z"/><path class="st2" d="M7.1 1.6c-.1.1-.1.3 0 .5.1.1.3.1.5 0 1.9-1.9 4.9-1.9 6.8 0 .1.1.3.1.5 0 .1-.1.1-.3 0-.5-2.2-2.1-5.7-2.1-7.8 0z"/></g></svg>