<svg version="1.1" id="Слой_1" xmlns="http://www.w3.org/2000/svg" x="0" y="0" width="29" height="30" viewBox="0 0 21.9 30" xml:space="preserve"><style>.st0{fill:#fff}</style><path class="st0" d="M11.1 4.1c3.6 0 6.6 2.9 6.6 6.5v9c0 3.6-2.9 6.5-6.5 6.5s-6.5-2.9-6.5-6.5v-9c-.1-3.5 2.8-6.5 6.4-6.5z"/><path d="M11.1 6.9h0c.5 0 .9.4.9.8v3.4c0 .5-.4.8-.8.8h-.1c-.5 0-.8-.4-.8-.8V7.8c0-.5.3-.9.8-.9z" fill="#3e3d3f" stroke="#fff" stroke-width=".265" stroke-miterlimit="10"/><path class="st0" d="M9.4 28.2l1.8 1.8 1.8-1.8-.6-.5-1.2 1.2-1.3-1.2zM13 1.8L11.2 0 9.4 1.8l.5.6 1.3-1.3 1.2 1.3zm7.1 15.5l1.8-1.8-1.8-1.8-.5.5 1.3 1.3-1.3 1.3zM1.8 13.7L0 15.5l1.8 1.8.5-.5-1.2-1.3 1.2-1.3z"/></svg>