<svg xmlns="http://www.w3.org/2000/svg" width="31" height="30"><path d="M2.34 0h27.14c.79 0 1.43.64 1.43 1.43v27.14c0 .79-.64 1.43-1.43 1.43H2.34c-.79 0-1.43-.64-1.43-1.43V1.43C.9.64 1.55 0 2.34 0z" fill="#fff"/><path d="M19.99 16.09c0 1.59-.34 2.81-1.01 3.65-.7.86-1.78 1.34-2.89 1.27-1.1.07-2.17-.39-2.88-1.24-.66-.83-1.01-2.02-1.01-3.54v-2.14c0-1.61.34-2.83 1.01-3.66.71-.85 1.78-1.32 2.88-1.25 1.1-.07 2.17.39 2.88 1.24.66.83 1.01 2.02 1.01 3.54l.01 2.13zm-2.29-2.33a4.31 4.31 0 00-.39-2.09c-.25-.43-.72-.68-1.22-.65-.48-.03-.94.21-1.19.62-.3.6-.44 1.27-.4 1.94v2.8c-.05.72.09 1.44.38 2.1.24.44.71.71 1.21.68.5.03.97-.22 1.21-.65.29-.63.42-1.33.38-2.02l.02-2.73z" fill="#3e3d3f"/></svg>