<svg xmlns="http://www.w3.org/2000/svg" width="31" height="30"><path d="M2.33 0h27.14c.79 0 1.43.64 1.43 1.43v27.14c0 .79-.64 1.43-1.43 1.43H2.33C1.54 30 .9 29.36.9 28.57V1.43C.9.64 1.54 0 2.33 0z" fill="#fff"/><path d="M20.8 14.24c.02 1.02-.19 2.04-.6 2.97-.36.82-.96 1.5-1.72 1.98-.77.47-1.66.71-2.57.69-.89.01-1.77-.23-2.53-.69a4.523 4.523 0 01-1.74-1.96c-.43-.92-.64-1.93-.63-2.94v-.56a7.04 7.04 0 01.61-3c.37-.82.97-1.51 1.74-1.98s1.66-.71 2.56-.69c.9-.02 1.79.22 2.56.69.76.48 1.36 1.17 1.73 1.98.42.94.63 1.96.61 2.99l-.02.52zm-2.4-.51c.06-.96-.16-1.92-.65-2.75-.41-.62-1.11-.97-1.85-.94-.73-.03-1.42.31-1.83.92-.49.82-.72 1.76-.67 2.71v.56c-.05.96.18 1.91.67 2.74.4.64 1.11 1.01 1.86.98a2.1 2.1 0 001.84-.94c.48-.83.7-1.78.65-2.73l-.02-.55z" fill="#3e3d3f"/></svg>