<svg xmlns="http://www.w3.org/2000/svg" width="31" height="30"><path d="M2.14 0h27.14c.79 0 1.43.64 1.43 1.43v27.14c0 .79-.64 1.43-1.43 1.43H2.14c-.79 0-1.43-.64-1.43-1.43V1.43C.7.64 1.35 0 2.14 0z" fill="#fff"/><path d="M13.51 15.69v4.05h-2.37V8.22h4.49c.79-.02 1.56.15 2.28.48.63.29 1.16.76 1.52 1.35.35.6.52 1.29.51 1.99.05 1.01-.37 1.99-1.14 2.65-.91.71-2.05 1.07-3.2 1.01h-2.09zm0-1.92h2.12c.52.03 1.03-.12 1.43-.45.35-.33.53-.79.51-1.27.02-.5-.16-1-.51-1.37a1.88 1.88 0 00-1.38-.57H13.5l.01 3.66z" fill="#3e3d3f"/></svg>