<svg xmlns="http://www.w3.org/2000/svg" width="31" height="30"><path d="M2.25 0h27.14c.79 0 1.43.64 1.43 1.43v27.14c0 .79-.64 1.43-1.43 1.43H2.25c-.79 0-1.43-.64-1.43-1.43V1.43C.82.64 1.46 0 2.25 0z" fill="#fff"/><path d="M20.59 14.24c.03.96-.15 1.91-.51 2.8-.31.75-.81 1.41-1.45 1.91l1.91 1.52-1.52 1.34-2.45-1.97c-.29.05-.58.07-.87.07-.9.02-1.79-.22-2.56-.69a4.586 4.586 0 01-1.74-1.96c-.43-.92-.64-1.93-.62-2.94v-.58a7.04 7.04 0 01.61-3c.37-.82.97-1.51 1.73-1.98.77-.47 1.66-.71 2.56-.69.9-.02 1.79.22 2.56.69a4.55 4.55 0 011.73 1.98c.42.94.63 1.96.61 2.99l.01.51zm-2.4-.51c.06-.97-.17-1.93-.66-2.77-.41-.62-1.11-.97-1.85-.94-.73-.03-1.43.32-1.84.93-.48.82-.7 1.76-.64 2.71v.56c-.05.95.17 1.9.65 2.73.4.64 1.12 1.01 1.87.98.73.03 1.41-.32 1.82-.93.48-.83.71-1.78.65-2.73v-.54z" fill="#3e3d3f"/></svg>