<svg xmlns="http://www.w3.org/2000/svg" width="30" height="30"><path d="M1.43 0h27.14C29.36 0 30 .64 30 1.43v27.14c0 .79-.64 1.43-1.43 1.43H1.43C.64 30 0 29.36 0 28.57V1.43C0 .64.64 0 1.43 0z" fill="#fff"/><path d="M13.72 17.42c-.02-.6.07-1.2.27-1.77.22-.5.56-.94.98-1.3.37-.3.69-.65.96-1.04.16-.25.24-.55.24-.85 0-.89-.42-1.34-1.24-1.34-.35-.02-.69.11-.94.36-.25.28-.39.64-.37 1.01h-2.29c-.04-.9.31-1.77.98-2.38.74-.6 1.67-.91 2.62-.86.94-.06 1.86.23 2.6.81.64.58.98 1.42.93 2.29 0 .44-.1.88-.3 1.27-.28.5-.63.94-1.05 1.33l-.64.61c-.39.35-.63.83-.69 1.35l-.03.51h-2.03zm-.24 2.42c-.01-.33.12-.65.36-.88.25-.23.58-.35.92-.34.34-.01.67.11.92.34.24.23.37.55.36.88.01.32-.12.63-.35.86-.54.45-1.32.45-1.86 0a1.21 1.21 0 01-.35-.86z" fill="#3e3d3f"/></svg>