<svg version="1.1" id="Слой_1" xmlns="http://www.w3.org/2000/svg" x="0" y="0" width="31" height="30" xml:space="preserve"><style>.st1{fill:#3e3d3f}</style><g id="Layer_2"><path d="M2.3 0h27.11c.79 0 1.43.64 1.43 1.43v27.11c0 .79-.64 1.43-1.43 1.43H2.3c-.79 0-1.43-.64-1.43-1.43V1.43C.87.64 1.51 0 2.3 0z" fill="#fff"/><text transform="translate(10.94 20.93)" class="st1" font-size="16.185" font-family="Roboto-Medium">‘</text><path class="st1" d="M16.62 8.52l1.08.63c-.43.65-.68 1.4-.7 2.18v1.32h-1.81v-1.18c.01-.55.16-1.1.41-1.59.24-.53.58-.99 1.02-1.36z"/></g></svg>