<svg xmlns="http://www.w3.org/2000/svg" width="30" height="30"><path d="M1.43 0h27.14C29.36 0 30 .64 30 1.43v27.14c0 .79-.64 1.43-1.43 1.43H1.43C.64 30 0 29.36 0 28.57V1.43C0 .64.64 0 1.43 0z" fill="#fff"/><path d="M15.12 15.52h-1.89v4.22h-2.37V8.22h4.28a4.86 4.86 0 013.15.89c.75.64 1.16 1.59 1.11 2.57.03.69-.15 1.38-.51 1.97-.38.56-.92.99-1.55 1.25l2.5 4.71v.13h-2.53l-2.19-4.22zm-1.89-1.92h1.92c.5.03 1-.13 1.38-.46.34-.32.53-.78.51-1.25.02-.47-.16-.92-.48-1.26-.39-.34-.9-.51-1.42-.47h-1.91v3.44z" fill="#3e3d3f"/></svg>