<svg xmlns="http://www.w3.org/2000/svg" width="31" height="30"><path d="M1.86 0H29c.79 0 1.43.64 1.43 1.43v27.14c0 .79-.64 1.43-1.43 1.43H1.86c-.79 0-1.43-.64-1.43-1.43V1.43C.43.64 1.07 0 1.86 0z" fill="#fff"/><path d="M17.45 16.7c.02-.39-.16-.77-.48-1.01a6.25 6.25 0 00-1.71-.76c-.67-.2-1.33-.46-1.95-.78-1.31-.71-1.96-1.66-1.96-2.85-.01-.59.16-1.18.51-1.67.39-.52.91-.91 1.52-1.14.71-.29 1.47-.43 2.24-.42.76-.01 1.51.14 2.2.45.62.27 1.14.7 1.52 1.26.35.55.52 1.2.51 1.85h-2.38c.02-.47-.16-.92-.51-1.23-.4-.32-.9-.47-1.4-.44-.48-.03-.95.1-1.35.37-.31.22-.49.58-.48.97.01.39.22.75.57.94.52.32 1.08.56 1.67.71 1.09.27 2.1.79 2.95 1.52.61.58.95 1.4.94 2.24.04.92-.39 1.8-1.13 2.34-.89.61-1.96.9-3.04.85-.83 0-1.66-.17-2.42-.51-.67-.27-1.26-.73-1.68-1.32-.38-.58-.58-1.27-.57-1.96h2.38c0 1.27.76 1.91 2.28 1.91.47.03.93-.09 1.32-.34.29-.23.47-.59.45-.98z" fill="#3e3d3f"/></svg>