<svg xmlns="http://www.w3.org/2000/svg" width="59" height="30"><path d="M1.86.07h55.72c.79 0 1.42.64 1.42 1.42v27.08c0 .79-.64 1.42-1.42 1.42H1.86c-.79 0-1.42-.64-1.42-1.42V1.49C.44.71 1.07.07 1.86.07z" fill="#fff"/><path d="M21.09 16.99a.992.992 0 00-.4-.86c-.44-.28-.93-.49-1.43-.63-.56-.17-1.11-.39-1.64-.66-1.1-.59-1.64-1.39-1.64-2.39-.01-.5.15-.99.44-1.4.32-.43.76-.76 1.27-.96.59-.24 1.22-.36 1.86-.35.64-.01 1.27.12 1.85.38.51.22.95.59 1.25 1.06.29.46.44 1 .42 1.55H21.1c.02-.38-.14-.75-.42-1.01-.33-.27-.75-.4-1.17-.37-.4-.02-.8.09-1.14.31-.26.19-.41.49-.4.81.01.33.19.63.47.79.43.26.9.47 1.39.6.91.22 1.76.65 2.47 1.26.5.49.77 1.17.75 1.87.03.77-.32 1.51-.95 1.97-.74.51-1.63.77-2.53.73-.69.01-1.38-.14-2.01-.41-.56-.23-1.05-.62-1.4-1.12a2.91 2.91 0 01-.48-1.64h2.01c0 1.07.64 1.6 1.91 1.6.39.02.78-.08 1.11-.29.27-.21.41-.52.38-.84zm5.08-3.85c.46-.59 1.17-.93 1.92-.93 1.56 0 2.34.9 2.36 2.71v4.6h-1.92V15c.03-.33-.07-.65-.26-.91-.24-.22-.56-.33-.88-.3-.5-.03-.97.22-1.22.65v5.08h-1.92V9.34h1.92v3.8zm5.72-2.65c-.01-.27.1-.53.29-.71.46-.37 1.11-.37 1.56 0 .19.18.3.44.29.71.01.27-.1.53-.29.72-.45.37-1.1.37-1.56 0-.2-.19-.3-.45-.29-.72zm2.01 9.05H32v-7.19h1.92l-.02 7.19zm2.12-.02v-5.77h-1.07v-1.4h1.07v-.61c-.04-.69.21-1.37.69-1.87.53-.47 1.22-.71 1.93-.67.33.01.66.05.98.14v1.48c-.19-.04-.39-.06-.58-.06-.72 0-1.08.34-1.08 1.01v.58h1.43v1.4h-1.44v5.78h-1.93zm6.65-8.93v1.76h1.22v1.4h-1.22v3.58c-.02.2.03.4.15.57.16.14.37.2.58.18.19 0 .38-.01.56-.05v1.45c-.38.12-.77.18-1.16.18-1.34 0-2.02-.68-2.05-2.04v-3.87h-1.06v-1.4h1.05v-1.76h1.93z" fill="#3e3d3f"/></svg>