<svg xmlns="http://www.w3.org/2000/svg" width="78" height="30"><path d="M2.09 0h74.48C77.36 0 78 .64 78 1.43v27.14c0 .79-.64 1.43-1.43 1.43H2.09c-.79 0-1.43-.64-1.43-1.43V1.43C.67.64 1.3 0 2.09 0z" fill="#fff"/><path d="M24.17 18.97h-2.02v-8.06H18.3v8.06h-2.02V9.3h7.89v9.67zm8.09-3.53c.05.95-.22 1.88-.76 2.66-.46.65-1.22 1.03-2.02 1.01-.67.02-1.31-.25-1.76-.76v3.39h-1.94v-9.96h1.78l.07.71c.44-.55 1.12-.86 1.82-.84.81-.04 1.59.33 2.07.98.53.8.79 1.75.74 2.71v.1zm-1.92-.13c.03-.54-.09-1.08-.36-1.55-.22-.35-.6-.55-1.01-.54-.52-.05-1.01.23-1.24.69v2.94c.23.47.73.76 1.25.71.91 0 1.36-.75 1.36-2.25zm2.81 0c-.01-.66.13-1.31.41-1.9.25-.55.67-1.01 1.19-1.32.54-.31 1.17-.47 1.79-.46.88-.03 1.73.28 2.37.89.63.65.99 1.51 1.01 2.42v.5c.05.97-.28 1.92-.92 2.65a3.582 3.582 0 01-4.96 0c-.65-.75-.98-1.72-.93-2.71l.04-.07zm1.92.14c-.03.55.1 1.1.39 1.57a1.385 1.385 0 002.2 0c.3-.52.44-1.12.39-1.71.03-.55-.11-1.09-.39-1.56-.25-.36-.67-.57-1.1-.55-.43-.02-.85.19-1.09.55a2.9 2.9 0 00-.4 1.7zm9.64-3.27c.84-.04 1.64.3 2.21.92.58.7.87 1.58.83 2.49v.1c.04.92-.29 1.82-.92 2.49-.66.64-1.55.98-2.47.94a3.19 3.19 0 01-2.47-1.01c-.64-.77-.96-1.76-.91-2.76v-.32c-.06-1.31.22-2.62.82-3.79.52-.9 1.41-1.54 2.43-1.73.38-.06.75-.19 1.09-.37.16-.11.26-.3.25-.5h1.55c.04.58-.16 1.15-.56 1.57-.59.44-1.28.72-2.02.81-.51.08-.98.32-1.35.68-.36.4-.58.89-.65 1.42.57-.61 1.35-.94 2.17-.94zm-.36 1.55c-.41-.02-.8.15-1.07.46-.3.44-.44.98-.39 1.51-.03.5.1.99.38 1.4.26.34.67.52 1.09.5.41.02.82-.15 1.08-.47.28-.41.42-.9.39-1.39v-.16c.04-.48-.1-.96-.39-1.35a1.39 1.39 0 00-1.09-.5zm7.85 5.38c-.95.04-1.88-.31-2.57-.97a3.457 3.457 0 01-1.01-2.58v-.19c-.01-.67.14-1.33.42-1.94.26-.55.68-1.02 1.2-1.34.53-.31 1.13-.47 1.75-.46.88-.04 1.73.32 2.32.96.61.74.91 1.68.85 2.64v.78h-4.58c.05.43.24.82.56 1.11.32.29.75.44 1.18.43.68.03 1.32-.27 1.73-.81l.95 1.07c-.3.42-.7.75-1.17.95-.51.24-1.07.35-1.63.35zm-.22-5.91c-.35-.01-.69.14-.93.4-.26.31-.42.7-.46 1.1h2.67v-.15c.02-.37-.1-.73-.34-1.01-.25-.23-.59-.36-.94-.34zm10.52-1.41v7.19h-1.92v-5.64h-1.69l-.12 2.22c0 .91-.24 1.8-.7 2.58-.4.55-1.06.86-1.74.83h-.65v-1.56h.24c.35-.03.65-.28.76-.61.2-.63.3-1.29.3-1.94l.13-3.05 5.39-.02z" fill="#3e3d3f"/></svg>