<svg data-name="Слой 1" xmlns="http://www.w3.org/2000/svg" viewBox="0 0 77.3 29.9" width="78" height="30"><path d="M1.4 0h74.5a1.37 1.37 0 011.4 1.4v27.1a1.37 1.37 0 01-1.4 1.4H1.4A1.37 1.37 0 010 28.5V1.4A1.37 1.37 0 011.4 0z" fill="#fff"/><path d="M24.1 16.12a1.89 1.89 0 00-.09-.6 1.21 1.21 0 00-.36-.47 2.63 2.63 0 00-.72-.42 9.92 9.92 0 00-1.17-.42 11.2 11.2 0 01-1.45-.54 4.89 4.89 0 01-1.14-.7 2.87 2.87 0 01-.75-.92 2.52 2.52 0 01-.27-1.19 2.64 2.64 0 01.28-1.22 2.94 2.94 0 01.8-1A4 4 0 0120.46 8a5.2 5.2 0 011.58-.22 4.78 4.78 0 011.66.27 3.63 3.63 0 011.25.72 3.24 3.24 0 01.78 1.07 3.14 3.14 0 01.27 1.29h-1.9a2.15 2.15 0 00-.12-.73 1.43 1.43 0 00-.33-.54 1.67 1.67 0 00-.65-.38 2.84 2.84 0 00-.93-.14 3.23 3.23 0 00-.87.11 1.85 1.85 0 00-.61.32 1.3 1.3 0 00-.37.48 1.74 1.74 0 00-.11.61 1.21 1.21 0 00.57 1 6.19 6.19 0 001.76.76 10.14 10.14 0 011.61.6 4.63 4.63 0 011.13.75 2.73 2.73 0 01.66.94 3 3 0 01.22 1.18 2.83 2.83 0 01-.27 1.25 2.74 2.74 0 01-.79.94 3.71 3.71 0 01-1.23.6 6.17 6.17 0 01-1.61.2 5.87 5.87 0 01-1.56-.21 4.18 4.18 0 01-1.38-.65 3.41 3.41 0 01-1-1.08 3.08 3.08 0 01-.37-1.52h1.91a2 2 0 00.18.89 1.69 1.69 0 00.51.61 2.13 2.13 0 00.76.35 4 4 0 00.94.11 2.32 2.32 0 001.5-.4 1.28 1.28 0 00.45-1.06zm10.55-1.17a6.21 6.21 0 01-.21 1.65 4 4 0 01-.61 1.35 2.94 2.94 0 01-1 .87 2.87 2.87 0 01-1.36.31 3.17 3.17 0 01-1.23-.22 2.69 2.69 0 01-.92-.66v3.87H27.5V10.79h1.69l.08.83a2.63 2.63 0 01.93-.73 2.92 2.92 0 011.26-.25 3 3 0 011.37.3 2.73 2.73 0 011 .85 3.87 3.87 0 01.61 1.31 6.36 6.36 0 01.21 1.69zm-1.83-.16a4.23 4.23 0 00-.11-1 2.69 2.69 0 00-.33-.85 1.67 1.67 0 00-.58-.57 1.75 1.75 0 00-.85-.2 1.7 1.7 0 00-1.62.92v3.62a1.88 1.88 0 00.62.69 1.82 1.82 0 001 .26 1.62 1.62 0 00.85-.21 1.89 1.89 0 00.58-.58 2.75 2.75 0 00.33-.86 4.93 4.93 0 00.1-1zm8.25 4.16a1.86 1.86 0 01-.13-.34c0-.13-.06-.27-.08-.42a3.42 3.42 0 01-.4.36 4 4 0 01-.49.29 3.4 3.4 0 01-.59.19 2.78 2.78 0 01-.66.07 3.43 3.43 0 01-1.13-.15 2.67 2.67 0 01-.87-.51 2.27 2.27 0 01-.78-1.74 2.54 2.54 0 01.25-1.16 2.18 2.18 0 01.72-.85 3.64 3.64 0 011.16-.51 6.27 6.27 0 011.58-.23h1.16v-.53a1.43 1.43 0 00-.36-1 1.39 1.39 0 00-1.07-.38 1.78 1.78 0 00-.59.09 1.36 1.36 0 00-.45.23 1.21 1.21 0 00-.29.35 1.09 1.09 0 00-.1.44h-1.84a2 2 0 01.24-.93 2.54 2.54 0 01.67-.8 3.55 3.55 0 011.06-.56 4.36 4.36 0 011.39-.21 4.64 4.64 0 011.27.17 3 3 0 011 .53 2.52 2.52 0 01.66.88 3.05 3.05 0 01.25 1.21v3.62a4.06 4.06 0 00.31 1.75v.14zm-2-1.32a1.87 1.87 0 00.59-.08 2.05 2.05 0 00.5-.22 1.91 1.91 0 00.38-.31 2.11 2.11 0 00.27-.36v-1.55h-1a2.66 2.66 0 00-1.53.36 1.14 1.14 0 00-.51 1 1.34 1.34 0 00.08.46 1.15 1.15 0 00.25.37 1.22 1.22 0 00.4.24 1.89 1.89 0 00.56.08zm8.83 0a1.79 1.79 0 00.62-.1 1.46 1.46 0 00.5-.29 1.36 1.36 0 00.35-.44 1.29 1.29 0 00.15-.56h1.72a2.48 2.48 0 01-.29 1.11 2.84 2.84 0 01-.71.91 3.41 3.41 0 01-1.05.61 3.53 3.53 0 01-1.27.22 3.81 3.81 0 01-1.64-.32 3.4 3.4 0 01-1.16-.88 3.65 3.65 0 01-.69-1.31A5.39 5.39 0 0144.2 15v-.26a5.51 5.51 0 01.23-1.59 3.69 3.69 0 01.69-1.3 3.22 3.22 0 011.16-.9 4.28 4.28 0 013-.1 3.14 3.14 0 011 .64 2.93 2.93 0 01.68 1 3.35 3.35 0 01.26 1.24h-1.7a2.21 2.21 0 00-.13-.62 1.72 1.72 0 00-.33-.51 1.48 1.48 0 00-.5-.34 1.59 1.59 0 00-.66-.13 1.59 1.59 0 00-1.49.83 2.39 2.39 0 00-.3.84 6.2 6.2 0 00-.07 1v.26a6.15 6.15 0 00.07 1 2.55 2.55 0 00.3.84 1.79 1.79 0 00.56.6 1.73 1.73 0 00.93.13zm8.32 1.46a4.19 4.19 0 01-1.63-.3 3.66 3.66 0 01-1.23-.84 3.55 3.55 0 01-.77-1.25 4.2 4.2 0 01-.28-1.56v-.3a5 5 0 01.34-1.73 4 4 0 01.78-1.33 3.36 3.36 0 011.13-.83 3.52 3.52 0 011.45-.3 3.68 3.68 0 011.54.3 2.81 2.81 0 011.09.83 3.62 3.62 0 01.64 1.27 5.88 5.88 0 01.21 1.62v.79h-5.33a3.07 3.07 0 00.2.87 2 2 0 00.44.69 2.18 2.18 0 00.66.46 2.13 2.13 0 00.86.16 2.42 2.42 0 001.18-.27 2.6 2.6 0 00.87-.75l1 .95a3.55 3.55 0 01-.49.57 3.37 3.37 0 01-.67.48 3.85 3.85 0 01-.88.35 4.2 4.2 0 01-1.11.12zm-.22-7a1.55 1.55 0 00-1.22.52 2.82 2.82 0 00-.59 1.47h3.46v-.13a3.31 3.31 0 00-.12-.7 1.71 1.71 0 00-.29-.59 1.31 1.31 0 00-.51-.42 1.72 1.72 0 00-.73-.13z" fill="#3e3d3f"/></svg>