<svg xmlns="http://www.w3.org/2000/svg" width="42" height="30"><path d="M1.74 0h38.83C41.36 0 42 .64 42 1.43v27.15c0 .79-.64 1.43-1.43 1.43H1.74c-.79 0-1.43-.64-1.43-1.43V1.43C.32.64.96 0 1.74 0z" fill="#fff"/><path d="M18.86 11.44H15.9v8.06h-1.98v-8.06H11V9.83h7.86v1.61zm4.07 8.06c-.1-.2-.17-.42-.19-.65-.46.52-1.12.82-1.81.8-.64.02-1.27-.2-1.75-.61-.46-.39-.72-.96-.71-1.56-.03-.69.29-1.35.86-1.75.73-.45 1.59-.66 2.45-.6h.89v-.41c.02-.29-.08-.57-.26-.8a.986.986 0 00-.81-.3c-.27-.02-.54.07-.76.24-.19.16-.29.39-.28.63h-1.92c0-.42.13-.82.38-1.15.28-.37.66-.66 1.09-.84.5-.21 1.04-.31 1.58-.3.76-.04 1.51.2 2.11.67.53.47.82 1.16.78 1.87v3.11c-.03.53.07 1.06.29 1.55v.11l-1.94-.01zm-1.59-1.36c.27 0 .54-.06.78-.19.22-.11.41-.29.53-.5v-1.22h-.72c-.96 0-1.47.33-1.51 1.01v.12c-.01.22.09.44.25.59.19.14.43.21.67.19zm11.19-2.17c.05.95-.21 1.89-.74 2.68-.48.66-1.25 1.03-2.06 1.01-.73.02-1.43-.31-1.86-.9l-.09.76h-1.73V9.29h1.92v3.66c.43-.51 1.07-.8 1.74-.78.81-.03 1.58.33 2.07.97.54.8.81 1.76.75 2.72v.11zm-1.92-.14c.04-.55-.08-1.1-.34-1.59-.23-.33-.61-.52-1.01-.5-.54-.04-1.04.26-1.26.75v2.84c.22.5.73.8 1.27.76.58.03 1.1-.35 1.22-.92.11-.44.15-.89.12-1.34z" fill="#3e3d3f"/></svg>