<svg xmlns="http://www.w3.org/2000/svg" width="31" height="30"><path d="M2.07 0H29.2c.79 0 1.43.64 1.43 1.43v27.14c0 .79-.64 1.43-1.43 1.43H2.07c-.79 0-1.43-.64-1.43-1.43V1.43C.63.64 1.28 0 2.07 0z" fill="#fff"/><path d="M14.34 12.15c-.01-.33.12-.66.37-.89.25-.23.58-.35.92-.34.34-.01.68.11.93.34.24.23.38.55.36.89.01.33-.12.65-.36.88-.54.45-1.32.45-1.86 0-.24-.23-.38-.55-.36-.88zm0 6.48c-.02-.34.12-.68.37-.91.25-.23.58-.35.92-.34.34-.01.68.11.93.34.24.23.38.55.36.89.01.33-.12.65-.36.88-.54.45-1.32.45-1.86 0-.24-.22-.37-.54-.36-.87v.01z" fill="#3e3d3f"/></svg>