<svg xmlns="http://www.w3.org/2000/svg" width="47" height="30"><path d="M1.81 15.81h12.06c.59 0 1.06.48 1.06 1.06v12.06c0 .59-.48 1.06-1.06 1.06H1.81c-.59 0-1.06-.48-1.06-1.06V16.88c0-.59.47-1.07 1.06-1.07zm16 0h12.06c.59 0 1.06.48 1.06 1.06v12.06c0 .59-.48 1.06-1.06 1.06H17.81c-.59 0-1.06-.48-1.06-1.06V16.88c-.01-.59.47-1.07 1.06-1.07zM11.16 0h12.06c.59 0 1.06.48 1.06 1.06v12.06c0 .59-.48 1.06-1.06 1.06H11.16c-.59 0-1.06-.48-1.06-1.06V1.06C10.09.48 10.57 0 11.16 0zm22.72 15.81h12.06c.59 0 1.06.48 1.06 1.06v12.06c0 .59-.48 1.06-1.06 1.06H33.88c-.59 0-1.06-.48-1.06-1.06V16.88c-.01-.59.47-1.07 1.06-1.07z" fill="#fff"/><path d="M19.02 8.65l.97-5.13h1.48l-1.6 7.22h-1.5L17.2 5.91l-1.18 4.83h-1.5l-1.59-7.22h1.49l.97 5.13 1.19-5.13h1.26l1.18 5.13zM9.14 24.76h-2.6l-.5 1.5H4.46l2.68-7.23h1.38l2.7 7.22H9.64l-.5-1.49zm-2.2-1.2h1.8l-.91-2.7-.89 2.7zm18.17.8c.02-.25-.1-.49-.3-.65a3.79 3.79 0 00-1.07-.47c-.42-.13-.83-.3-1.23-.5-.82-.44-1.23-1.04-1.23-1.79 0-.37.11-.73.33-1.02.24-.34.56-.6.94-.75.44-.18.91-.26 1.38-.26.47-.01.95.09 1.38.28.38.17.71.45.94.79.22.34.34.75.33 1.16h-1.5c.01-.28-.1-.56-.31-.75-.25-.2-.56-.29-.88-.27-.3-.02-.6.06-.85.23-.19.14-.3.37-.3.61.01.25.14.47.35.59.33.2.68.35 1.05.44.69.16 1.33.48 1.87.94.38.37.6.88.58 1.41.02.58-.24 1.13-.71 1.47-.56.38-1.23.57-1.91.53-.52.01-1.03-.1-1.5-.3-.42-.17-.78-.46-1.05-.83-.25-.36-.38-.79-.38-1.23h1.5c0 .81.47 1.21 1.42 1.21.29.01.59-.07.83-.23.21-.15.33-.38.32-.61zm12.14 1.89v-7.22h2.22c.6-.01 1.18.14 1.7.43.5.29.91.71 1.17 1.22.29.55.43 1.17.42 1.79v.33c.01.62-.13 1.24-.41 1.79-.26.51-.67.93-1.17 1.21-.52.29-1.11.45-1.71.44h-2.22zm1.5-6.01v4.82h.72a1.6 1.6 0 001.33-.57c.33-.47.5-1.05.47-1.63v-.38c.04-.59-.12-1.18-.45-1.67-.33-.4-.83-.61-1.35-.58l-.72.01z" fill="#3e3d3f"/></svg>