<svg xmlns="http://www.w3.org/2000/svg" width="20" height="16"><defs><linearGradient id="a" x1="0%" x2="80.902%" y1="58.779%" y2="0%"><stop offset="0%" stop-color="#E41B15"/><stop offset="100%" stop-color="#EA8D0E"/></linearGradient></defs><path fill="#FFF" fill-rule="evenodd" d="M19.788 15.784a.682.682 0 01-.502.216H.714a.682.682 0 01-.502-.216.708.708 0 01-.212-.512v-1.454c0-.197.071-.368.212-.511a.68.68 0 01.502-.216h18.571c.194 0 .361.072.503.216a.704.704 0 01.212.511v1.454a.708.708 0 01-.212.512zm-1.931-8.511H.714a.685.685 0 01-.502-.216A.708.708 0 010 6.545V5.091c0-.197.071-.368.212-.511a.676.676 0 01.502-.216h17.143c.194 0 .361.071.502.216a.7.7 0 01.212.511v1.454c0 .197-.07.368-.212.512a.682.682 0 01-.502.216zm-4.286-4.364H.714a.682.682 0 01-.502-.216A.706.706 0 010 2.182V.727C0 .53.071.36.212.216A.68.68 0 01.714 0h12.857a.68.68 0 01.502.216.703.703 0 01.213.511v1.455a.703.703 0 01-.213.511.68.68 0 01-.502.216zM.714 8.727H15a.68.68 0 01.502.216.704.704 0 01.212.511v1.455c0 .197-.07.367-.212.511a.68.68 0 01-.502.216H.714a.682.682 0 01-.502-.216.706.706 0 01-.212-.511V9.454c0-.196.071-.367.212-.511a.68.68 0 01.502-.216z"/><path fill="url(#a)" d="M19.788 15.784a.682.682 0 01-.502.216H.714a.682.682 0 01-.502-.216.708.708 0 01-.212-.512v-1.454c0-.197.071-.368.212-.511a.68.68 0 01.502-.216h18.571c.194 0 .361.072.503.216a.704.704 0 01.212.511v1.454a.708.708 0 01-.212.512zm-1.931-8.511H.714a.685.685 0 01-.502-.216A.708.708 0 010 6.545V5.091c0-.197.071-.368.212-.511a.676.676 0 01.502-.216h17.143c.194 0 .361.071.502.216a.7.7 0 01.212.511v1.454c0 .197-.07.368-.212.512a.682.682 0 01-.502.216zm-4.286-4.364H.714a.682.682 0 01-.502-.216A.706.706 0 010 2.182V.727C0 .53.071.36.212.216A.68.68 0 01.714 0h12.857a.68.68 0 01.502.216.703.703 0 01.213.511v1.455a.703.703 0 01-.213.511.68.68 0 01-.502.216zM.714 8.727H15a.68.68 0 01.502.216.704.704 0 01.212.511v1.455c0 .197-.07.367-.212.511a.68.68 0 01-.502.216H.714a.682.682 0 01-.502-.216.706.706 0 01-.212-.511V9.454c0-.196.071-.367.212-.511a.68.68 0 01.502-.216z"/></svg>