<svg xmlns="http://www.w3.org/2000/svg" width="21" height="17"><defs><linearGradient id="a" x1="0%" x2="80.902%" y1="58.779%" y2="0%"><stop offset="0%" stop-color="#E41B15"/><stop offset="100%" stop-color="#EA8D0E"/></linearGradient></defs><path fill="#FFF" fill-rule="evenodd" d="M20.556 7.966c-1.029-4.844-2.479-6.038-3.362-6.517-1.414-.767-3.054-.32-3.598-.031-.618.327-1.035.949-1.662 1.219-.726.311-1.713.396-2.455.02-.591-.3-1.113-.94-1.829-1.223-.909-.36-2.421-.865-3.919.238-.354.261-2.879 2.436-3.637 9.232-.468 4.19 1.768 5.538 1.686 5.477.575.424 1.863 1.14 3.608.018 1.166-.749 2.113-2.229 2.113-2.229s.421-.823.981-1.172c.397-.248.99-.06.99-.06h2.099s.666-.086 1.134.126c.454.204.71.707.71.707s1.383 1.836 2.709 2.773c.564.398 2.832.855 4.004-.614.764-.963 1.286-3.92.428-7.964zM9.345 7.537c0 .368-.284.666-.636.666h-1.59v1.668c0 .368-.284.667-.635.667h-.477c-.351 0-.635-.298-.635-.667V8.203H3.781c-.351 0-.636-.297-.636-.666v-.5c0-.368.285-.667.636-.667h1.59V4.704c0-.368.284-.667.635-.667h.477c.351 0 .636.299.636.667v1.667h1.59c.351 0 .635.298.635.667v.499h.001zm4.478 2.333c-.658 0-1.192-.559-1.192-1.25 0-.69.534-1.25 1.192-1.25.658 0 1.192.559 1.192 1.25.001.691-.534 1.25-1.192 1.25zm2.186-2.777c-.651 0-1.179-.553-1.179-1.236 0-.682.528-1.235 1.179-1.235s1.179.553 1.179 1.235c0 .683-.528 1.236-1.179 1.236z"/><path fill="url(#a)" d="M20.556 7.966c-1.029-4.844-2.479-6.038-3.362-6.517-1.414-.767-3.054-.32-3.598-.031-.618.327-1.035.949-1.662 1.219-.726.311-1.713.396-2.455.02-.591-.3-1.113-.94-1.829-1.223-.909-.36-2.421-.865-3.919.238-.354.261-2.879 2.436-3.637 9.232-.468 4.19 1.768 5.538 1.686 5.477.575.424 1.863 1.14 3.608.018 1.166-.749 2.113-2.229 2.113-2.229s.421-.823.981-1.172c.397-.248.99-.06.99-.06h2.099s.666-.086 1.134.126c.454.204.71.707.71.707s1.383 1.836 2.709 2.773c.564.398 2.832.855 4.004-.614.764-.963 1.286-3.92.428-7.964zM9.345 7.537c0 .368-.284.666-.636.666h-1.59v1.668c0 .368-.284.667-.635.667h-.477c-.351 0-.635-.298-.635-.667V8.203H3.781c-.351 0-.636-.297-.636-.666v-.5c0-.368.285-.667.636-.667h1.59V4.704c0-.368.284-.667.635-.667h.477c.351 0 .636.299.636.667v1.667h1.59c.351 0 .635.298.635.667v.499h.001zm4.478 2.333c-.658 0-1.192-.559-1.192-1.25 0-.69.534-1.25 1.192-1.25.658 0 1.192.559 1.192 1.25.001.691-.534 1.25-1.192 1.25zm2.186-2.777c-.651 0-1.179-.553-1.179-1.236 0-.682.528-1.235 1.179-1.235s1.179.553 1.179 1.235c0 .683-.528 1.236-1.179 1.236z"/></svg>