<svg width="124" height="24" fill="none" xmlns="http://www.w3.org/2000/svg"><path d="M2.736 23.192c-.747 0-1.355-.224-1.824-.672-.448-.47-.672-1.077-.672-1.824V2.776c0-.747.203-1.323.608-1.728C1.253.643 1.829.44 2.576.44h11.008c.81 0 1.408.16 1.792.48.384.32.576.821.576 1.504 0 .661-.192 1.152-.576 1.472-.384.32-.981.48-1.792.48H5.168V9.56h7.776c.81 0 1.408.16 1.792.48.384.32.576.821.576 1.504 0 .661-.192 1.152-.576 1.472-.384.32-.981.48-1.792.48H5.168v7.2c0 .768-.224 1.376-.672 1.824-.427.448-1.013.672-1.76.672zM35.769.28c.703 0 1.269.235 1.696.704.447.448.671 1.035.671 1.76v17.952c0 .747-.224 1.355-.672 1.824-.426.448-.992.672-1.695.672-.768 0-1.387-.277-1.856-.832L23.193 8.632v12.064c0 .747-.214 1.355-.64 1.824-.406.448-.96.672-1.665.672-.704 0-1.269-.224-1.696-.672-.426-.47-.64-1.077-.64-1.824V2.744c0-.725.214-1.312.64-1.76.448-.47 1.024-.704 1.729-.704.789 0 1.397.277 1.823.832l10.72 13.632v-12c0-.725.214-1.312.64-1.76.427-.47.982-.704 1.665-.704zm9.342 22.912c-.747 0-1.355-.224-1.824-.672-.448-.47-.672-1.077-.672-1.824V2.776c0-.747.203-1.323.608-1.728.405-.405.981-.608 1.728-.608h11.008c.81 0 1.408.16 1.792.48.384.32.576.821.576 1.504 0 .661-.192 1.152-.576 1.472-.384.32-.981.48-1.792.48h-8.416V9.56h7.776c.81 0 1.408.16 1.792.48.384.32.576.821.576 1.504 0 .661-.192 1.152-.576 1.472-.384.32-.981.48-1.792.48h-7.776v7.2c0 .768-.224 1.376-.672 1.824-.427.448-1.013.672-1.76.672z" fill="#EA0042"/><path d="M79.903 6.904c1.707 0 3.02.523 3.936 1.568.918 1.024 1.377 2.71 1.377 5.056v7.392c0 .747-.224 1.312-.672 1.696-.448.384-1.025.576-1.728.576-.683 0-1.26-.192-1.728-.576-.47-.384-.704-.95-.704-1.696v-7.456c0-1.024-.182-1.739-.544-2.144-.342-.427-.875-.64-1.6-.64-.896 0-1.611.31-2.144.928-.534.619-.8 1.483-.8 2.592v6.72c0 .747-.225 1.312-.672 1.696-.448.384-1.024.576-1.728.576-.683 0-1.26-.192-1.728-.576-.47-.384-.705-.95-.705-1.696v-7.456c0-1.024-.18-1.739-.543-2.144-.342-.427-.875-.64-1.6-.64-.896 0-1.611.31-2.144.928-.534.619-.8 1.483-.8 2.592v6.72c0 .747-.235 1.312-.705 1.696-.448.384-1.013.576-1.696.576-.682 0-1.258-.192-1.727-.576-.47-.384-.704-.95-.704-1.696V9.176c0-.704.234-1.248.704-1.632.49-.384 1.077-.576 1.76-.576.64 0 1.173.192 1.6.576.426.363.64.875.64 1.536v.32a5.168 5.168 0 011.983-1.856c.833-.427 1.771-.64 2.817-.64 1.13 0 2.08.235 2.847.704.79.448 1.398 1.184 1.825 2.208a5.352 5.352 0 012.08-2.112c.917-.533 1.951-.8 3.103-.8zm16.505 16.352c-1.664 0-3.125-.33-4.384-.992-1.259-.683-2.23-1.632-2.912-2.848-.683-1.237-1.024-2.688-1.024-4.352 0-1.664.341-3.104 1.024-4.32a6.942 6.942 0 012.912-2.848c1.259-.661 2.72-.992 4.384-.992 1.664 0 3.125.33 4.384.992a6.942 6.942 0 012.912 2.848c.683 1.216 1.024 2.656 1.024 4.32 0 1.664-.341 3.115-1.024 4.352-.683 1.216-1.653 2.165-2.912 2.848-1.259.661-2.72.992-4.384.992zm0-3.68c2.347 0 3.52-1.504 3.52-4.512 0-1.515-.31-2.645-.928-3.392-.597-.747-1.461-1.12-2.592-1.12-2.347 0-3.52 1.504-3.52 4.512 0 3.008 1.173 4.512 3.52 4.512zM121.077.28c.746 0 1.344.203 1.792.608.469.405.704.939.704 1.6V20.92c0 .683-.224 1.237-.672 1.664-.427.405-1.003.608-1.728.608-.726 0-1.312-.203-1.76-.608-.427-.427-.64-.981-.64-1.664v-.256c-.47.81-1.142 1.45-2.016 1.92-.854.448-1.824.672-2.912.672-1.344 0-2.55-.341-3.616-1.024-1.046-.704-1.867-1.675-2.464-2.912-.576-1.259-.864-2.699-.864-4.32 0-1.621.288-3.04.864-4.256.597-1.237 1.418-2.187 2.464-2.848 1.045-.661 2.25-.992 3.616-.992 1.066 0 2.026.224 2.88.672.874.448 1.546 1.077 2.016 1.888V2.392c0-.64.213-1.152.64-1.536.426-.384.992-.576 1.696-.576zm-5.824 19.296c1.13 0 1.994-.384 2.592-1.152.618-.79.928-1.91.928-3.36s-.31-2.56-.928-3.328c-.598-.768-1.462-1.152-2.592-1.152-1.131 0-2.006.384-2.624 1.152-.619.747-.928 1.835-.928 3.264 0 1.45.309 2.581.928 3.392.618.79 1.493 1.184 2.624 1.184z" fill="#fff"/></svg>