<svg version="1.1" id="Слой_1" xmlns="http://www.w3.org/2000/svg" x="0" y="0" viewBox="0 0 512 512" xml:space="preserve"><style>.st1{fill:#38b1e4}</style><circle cx="253" cy="250" r="223" fill="#fff"/><path class="st1" d="M241.6 210.2l-83 87.8 75.5-41.4 39.4 41.4 82.5-87.8-74.7 40.7-39.7-40.7z"/><path class="st1" d="M256 0C114.6 0 0 114.6 0 256s114.6 256 256 256 256-114.6 256-256S397.4 0 256 0zm2 393c-15.8 0-31.1-2.2-45.5-6.4L160.8 416v-55.2c-34.6-26.3-56.7-66.4-56.7-111.3C104.2 170.3 173 106 258 106s153.8 64.3 153.8 143.5C411.8 328.8 343 393 258 393z"/></svg>