<svg version="1.1" id="Capa_1" xmlns="http://www.w3.org/2000/svg" x="0" y="0" viewBox="0 0 512 512" xml:space="preserve"><style>.st1{fill:#ff9800}</style><path d="M256 0C114.6 0 0 114.6 0 256s114.6 256 256 256 256-114.6 256-256S397.4 0 256 0z" fill="#fff"/><path class="st1" d="M256.2 212.2c24.4-.1 43.9-19.7 43.8-44.2-.1-24.5-19.6-44-44.1-44-24.7 0-44.4 19.8-44.2 44.6.3 24.3 20 43.7 44.5 43.6z"/><path class="st1" d="M256 0C114.6 0 0 114.6 0 256s114.6 256 256 256 256-114.6 256-256S397.4 0 256 0zm.4 77.9c49.9.1 89.9 40.9 89.6 91.3-.3 49.3-40.9 89.2-90.7 89-49.3-.2-89.7-41-89.4-90.4.3-49.9 40.7-90.1 90.5-89.9zm101 215.7c-11 11.3-24.3 19.5-39 25.2-13.9 5.4-29.2 8.1-44.3 9.9 2.3 2.5 3.4 3.7 4.8 5.1 20.5 20.6 41.1 41.1 61.6 61.8 7 7.1 8.4 15.8 4.6 24-4.2 9-13.6 14.8-22.8 14.2-5.8-.4-10.4-3.3-14.4-7.4-15.5-15.6-31.3-30.9-46.4-46.7-4.4-4.6-6.5-3.7-10.4.3-15.6 16-31.4 31.8-47.3 47.5-7.1 7.1-15.7 8.3-24 4.3-8.8-4.3-14.4-13.3-14-22.3.3-6.1 3.3-10.8 7.5-15 20.3-20.3 40.6-40.6 60.8-60.9 1.3-1.3 2.6-2.8 4.5-4.9-27.6-2.9-52.5-9.7-73.8-26.4-2.7-2.1-5.4-4.1-7.8-6.4-9.3-9-10.3-19.2-2.9-29.8 6.3-9.1 16.9-11.5 27.9-6.3 2.1 1 4.2 2.3 6.1 3.6 39.7 27.3 94.3 28.1 134.2 1.2 3.9-3 8.2-5.5 13.1-6.8 9.5-2.5 18.4 1.1 23.5 9.4 5.7 9.7 5.7 19-1.5 26.4z"/></svg>