<svg xmlns="http://www.w3.org/2000/svg" viewBox="0 0 134.9 19.6"><path d="M9.6 8.3h8l-3.2 3.2H9.6V8.3zm2.7 7.4c-.8.4-1.7.6-2.7.6-1.8 0-3.3-.6-4.5-1.8S3.3 11.7 3.3 10c0-1.8.6-3.3 1.8-4.5 1.3-1.3 2.8-1.9 4.5-1.9 1.8 0 3.3.6 4.5 1.9l2.3-2.3c-.9-.9-1.9-1.6-3.1-2.1S10.9.4 9.6.4c-2.7 0-4.9.9-6.8 2.8S0 7.3 0 10s1 4.9 2.8 6.8c1.9 1.9 4.1 2.8 6.8 2.8.8 0 1.6-.1 2.4-.3.8-.2 1.5-.5 2.2-.9s1.3-.8 1.9-1.4c.6-.5 1.1-1.1 1.5-1.8l-3.2-1.1c-.6.7-1.3 1.2-2.1 1.6zm21.3.5l1.6 3.2h3.6l-1.6-3.2h-3.6zM29.2.2l-9.6 19.2h3.6l1.6-3.2 1.6-3.2 2.8-5.6L32 13h3.6L29.2.2zm4.6 0v4.5l9.6 9.7L49.8 8v11.5H53V.3l-9.6 9.6L33.8.2zm22.4 19v.3H69v-3.2h-9.6l-3.2 2.9zm0-10.9v3.2H69V8.3H56.2zm3.2-4.8H69V.3H56.2l3.2 3.2zM82 8.3h-4.8c-.7 0-1.2-.2-1.7-.7s-.7-1-.7-1.7c0-.3 0-.6.2-.9.1-.3.3-.6.5-.8.2-.2.5-.4.8-.5s.6-.2.9-.2V.3c-1.6 0-2.9.6-4 1.7s-1.6 2.4-1.6 3.9c0 1.6.6 2.9 1.6 4 1.1 1.1 2.4 1.6 4 1.6H82c.7 0 1.2.2 1.7.7s.7 1 .7 1.7c0 .3-.1.6-.2.9s-.3.6-.5.8c-.2.2-.5.4-.8.5s-.6.2-.9.2v3.2c1.6 0 2.9-.6 4-1.6 1.1-1.1 1.7-2.4 1.7-4 0-1.5-.6-2.9-1.7-4s-2.5-1.6-4-1.6zm19.9 2.9h4.8l3.2-3.2h-8v3.2zm2.7 4.2c-.8.4-1.7.6-2.7.6-1.8 0-3.3-.6-4.5-1.8-1.2-1.2-1.8-2.8-1.8-4.5 0-1.8.6-3.3 1.8-4.5 1.3-1.3 2.8-1.9 4.5-1.9 1.8 0 3.3.6 4.5 1.9l2.3-2.3c-.9-.9-1.9-1.6-3.1-2.1s-2.4-.7-3.7-.7c-2.7 0-4.9.9-6.8 2.8S92.3 7 92.3 9.7s1 4.9 2.8 6.8c1.9 1.9 4.1 2.8 6.8 2.8.8 0 1.6-.1 2.4-.3.8-.2 1.5-.5 2.2-.9s1.3-.8 1.9-1.4c.6-.5 1.1-1.1 1.5-1.8l-3.2-1.1c-.6.7-1.3 1.3-2.1 1.6zm30.3-5.8c0 2.7-1 4.9-2.9 6.8s-4.1 2.8-6.8 2.8-4.9-1-6.8-2.8c-1.9-1.9-2.8-4.1-2.8-6.8 0-2.6 1-4.9 2.8-6.8s4.1-2.8 6.8-2.8 4.9 1 6.8 2.8c2 1.9 2.9 4.2 2.9 6.8zm-3.2 0c0-1.8-.6-3.3-1.9-4.5-1.2-1.2-2.8-1.9-4.5-1.9-1.8 0-3.3.6-4.5 1.9-1.2 1.2-1.8 2.8-1.8 4.5 0 1.8.6 3.3 1.8 4.5 1.2 1.2 2.8 1.8 4.5 1.8 1.8 0 3.3-.6 4.5-1.8 1.3-1.2 1.9-2.7 1.9-4.5z" fill="#0d0e0f"/></svg>