<?xml version="1.0" encoding="iso-8859-1"?>
<!-- Generator: Adobe Illustrator 18.0.0, SVG Export Plug-In . SVG Version: 6.00 Build 0)  -->
<!DOCTYPE svg PUBLIC "-//W3C//DTD SVG 1.1//EN" "http://www.w3.org/Graphics/SVG/1.1/DTD/svg11.dtd">
<svg version="1.1" id="Capa_1" xmlns="http://www.w3.org/2000/svg" xmlns:xlink="http://www.w3.org/1999/xlink" x="0px" y="0px"
	 viewBox="0 0 489.776 489.776" style="enable-background:new 0 0 489.776 489.776;" xml:space="preserve">
<g id="XMLID_198_">
	<g id="XMLID_201_">
		<path id="XMLID_202_" fill="#ffffff" d="M482.676,4.47c-3.572-3.57-8.673-5.133-13.632-4.209L330.437,26.231
			c-6.266,1.18-11.351,5.709-13.232,11.797c-1.881,6.076-0.24,12.708,4.256,17.203l21.954,21.953l-68.59,68.563
			c-5.582,5.579-5.579,14.628,0.005,20.205l47.182,47.12c5.578,5.57,14.615,5.567,20.189-0.007l68.556-68.554l21.97,21.953
			c4.512,4.512,11.159,6.139,17.25,4.241c6.091-1.915,10.619-7.032,11.75-13.313l25.237-139.309
			C487.857,13.11,486.262,8.024,482.676,4.47z"/>
	</g>
	<g id="XMLID_199_">
		<path id="XMLID_200_" fill="#ffffff" d="M79.019,345.264L57.05,323.311c-4.514-4.513-11.16-6.139-17.25-4.242
			c-6.092,1.914-10.618,7.031-11.752,13.313L2.811,471.692c-0.89,4.973,0.703,10.059,4.29,13.613
			c3.571,3.57,8.673,5.135,13.631,4.209l138.606-25.971c6.267-1.18,11.351-5.709,13.233-11.798
			c1.881-6.075,0.239-12.706-4.258-17.202l-21.952-21.953l68.663-68.454c5.594-5.577,5.598-14.636,0.01-20.218l-47.271-47.214
			c-5.578-5.571-14.616-5.569-20.19,0.006L79.019,345.264z"/>
	</g>
</g>
<g>
</g>
<g>
</g>
<g>
</g>
<g>
</g>
<g>
</g>
<g>
</g>
<g>
</g>
<g>
</g>
<g>
</g>
<g>
</g>
<g>
</g>
<g>
</g>
<g>
</g>
<g>
</g>
<g>
</g>
</svg>
