<svg xmlns="http://www.w3.org/2000/svg" viewBox="0 0 512 232.1"><defs><linearGradient id="a"><stop offset="0%" stop-color="#e41b15"/><stop offset="100%" stop-color="#ea8d0e"/></linearGradient></defs><path fill="url(#a)" d="M501.8 0H171.3c-5.6 0-10.2 4.6-10.2 10.2v19.2H63.9c-5.6 0-10.2 4.6-10.2 10.2s4.6 10.2 10.2 10.2h97.2v132.5H103c-5.6 0-10.2 4.6-10.2 10.2s4.6 10.2 10.2 10.2h58.1v19.2c0 5.6 4.6 10.2 10.2 10.2h330.5c5.6 0 10.2-4.6 10.2-10.2V10.2C512 4.6 507.4 0 501.8 0zm-25.2 20.4l-140.1 115-139.4-115h279.5zm15 191.3H181.5V33.9l148.6 122.5c1.8 1.5 4.1 2.3 6.5 2.3 2.3 0 4.6-.8 6.5-2.3l148.6-122v177.3z"/><path fill="#e41b15" d="M119.7 104.8H10.2C4.6 104.8 0 109.4 0 115s4.6 10.2 10.2 10.2h109.5c5.6 0 10.2-4.6 10.2-10.2s-4.6-10.2-10.2-10.2zm-50.3 77.5h-5.5c-5.6 0-10.2 4.6-10.2 10.2s4.6 10.2 10.2 10.2h5.5c5.6 0 10.2-4.6 10.2-10.2s-4.6-10.2-10.2-10.2z"/></svg>