<svg xmlns="http://www.w3.org/2000/svg" viewBox="0 0 512 512"><circle cx="260" cy="256" r="230" fill="#fff"/><path d="M256 0C114.6 0 0 114.6 0 256s114.6 256 256 256 256-114.6 256-256S397.4 0 256 0zm153.3 338.7c-1.8 4.3-10.1 10.4-39.1 14.9-2.4.4-3.3 3.5-4.7 9.9-.5 2.4-1 4.7-1.8 7.1-.6 2.1-1.9 3.1-4.1 3.1h-.4c-1.5 0-3.7-.3-6.5-.8-4.9-1-10.4-1.8-17.4-1.8-4.1 0-8.3.4-12.6 1.1-8.7 1.5-16.1 6.7-23.9 12.2-11.4 8-23.1 16.3-41.4 16.3-.8 0-1.6 0-2.4-.1-.5 0-1 .1-1.5.1-18.3 0-30-8.3-41.4-16.3-7.8-5.5-15.2-10.8-23.9-12.2-4.2-.7-8.5-1.1-12.6-1.1-7.4 0-13.2 1.1-17.4 2-2.6.5-4.8.9-6.5.9-1.8 0-3.7-.4-4.5-3.2-.7-2.5-1.2-4.8-1.8-7.2-1.3-5.9-2.2-9.6-4.7-10-29-4.5-37.3-10.6-39.1-14.9-.3-.6-.4-1.2-.4-1.9-.1-1.7 1.1-3.1 2.7-3.4 44.6-7.3 64.5-52.9 65.4-54.8 0 0 0-.1.1-.2 2.7-5.5 3.3-10.3 1.6-14.3-3.1-7.2-13-10.4-19.6-12.5-1.6-.5-3.1-1-4.4-1.5-13.2-5.2-14.3-10.6-13.8-13.3.9-4.6 7.1-7.9 12.1-7.9 1.4 0 2.6.2 3.6.7 5.9 2.8 11.3 4.2 15.9 4.2 6.4 0 9.1-2.7 9.5-3-.2-3-.4-6.2-.6-9.4-1.3-21.1-3-47.2 3.7-62.2 20-44.8 62.3-48.3 74.8-48.3.3 0 5.5-.1 5.5-.1h.7c12.5 0 55 3.5 75 48.3 6.7 14.9 5 41.2 3.7 62.2l-.1.9c-.2 2.9-.4 5.8-.5 8.5.3.3 2.9 2.8 8.6 3 4.4-.2 9.4-1.6 15-4.2 1.6-.8 3.4-.9 4.6-.9 1.9 0 3.8.4 5.3 1h.1c4.5 1.6 7.4 4.7 7.5 8 .1 3.1-2.3 7.7-13.9 12.3-1.2.5-2.7 1-4.4 1.5-6.6 2.1-16.6 5.3-19.6 12.5-1.7 3.9-1.1 8.7 1.6 14.3 0 .1.1.1.1.2.8 1.9 20.8 47.5 65.4 54.8 1.6.3 2.8 1.7 2.7 3.4.2.8.1 1.4-.2 2.1z" fill="#ffe529"/></svg>