<svg version="1.1" id="Слой_1" xmlns="http://www.w3.org/2000/svg" x="0" y="0" viewBox="0 0 512 512" xml:space="preserve"><style>.st1{fill:#69e781}</style><circle cx="259.5" cy="253.5" r="227.5" fill="#fff"/><path class="st1" d="M256 0C114.6 0 0 114.6 0 256s114.6 256 256 256 256-114.6 256-256S397.4 0 256 0zm5.4 405.1c-25.7 0-50.9-6.4-73.3-18.6l-81.2 21.3 21.7-79.4c-13.4-23.2-20.5-49.6-20.5-76.6 0-84.5 68.8-153.2 153.2-153.2 41 0 79.5 16 108.4 44.9 28.9 29 44.9 67.4 44.8 108.4.1 84.4-68.6 153.2-153.1 153.2z"/><path class="st1" d="M261.5 124.5c-70.2 0-127.4 57.1-127.4 127.3 0 24.1 6.7 47.5 19.5 67.8l3 4.8-12.9 47 48.2-12.6 4.7 2.8c19.6 11.6 42 17.7 64.8 17.7h.1c70.2 0 127.3-57.1 127.4-127.3 0-34-13.2-66-37.3-90.1s-56.1-37.4-90.1-37.4zm74.9 182c-3.2 8.9-18.5 17.1-25.8 18.2-6.6 1-14.9 1.4-24.1-1.5-5.6-1.8-12.7-4.1-21.8-8.1-38.4-16.6-63.5-55.2-65.4-57.8s-15.6-20.8-15.6-39.6 9.9-28.1 13.4-31.9c3.5-3.8 7.7-4.8 10.2-4.8s5.1 0 7.3.1c2.4.1 5.5-.9 8.6 6.6 3.2 7.7 10.8 26.5 11.8 28.4 1 1.9 1.6 4.2.3 6.7-1.3 2.6-5.5 8.1-9.6 13.1-1.7 2.1-3.9 4-1.7 7.8s9.9 16.4 21.3 26.5c14.6 13 27 17.1 30.8 19 3.8 1.9 6.1 1.6 8.3-1 2.2-2.6 9.6-11.2 12.1-15s5.1-3.2 8.6-1.9c3.5 1.3 22.3 10.5 26.2 12.4 3.8 1.9 6.4 2.9 7.3 4.5 1 1.7 1 9.4-2.2 18.3z"/></svg>