<svg xmlns="http://www.w3.org/2000/svg" width="23" height="16"><defs><linearGradient id="a" x1="0%" x2="80.902%" y1="58.779%" y2="0%"><stop offset="0%" stop-color="#E41B15"/><stop offset="100%" stop-color="#EA8D0E"/></linearGradient></defs><path fill="#FFF" fill-rule="evenodd" d="M22.103 1.373C21.273.398 19.74 0 16.813 0H6.187C3.192 0 1.633.423.806 1.462 0 2.475 0 3.967 0 6.032v3.936C0 13.969.957 16 6.187 16h10.626c2.539 0 3.945-.351 4.855-1.212.934-.883 1.332-2.325 1.332-4.82V6.032c0-2.178-.062-3.679-.897-4.659zm-7.337 7.17l-4.825 2.493a.746.746 0 01-1.086-.65v-4.97a.73.73 0 01.357-.626.747.747 0 01.727-.024l4.825 2.476a.731.731 0 01.002 1.301z"/><path fill="url(#a)" d="M22.103 1.373C21.273.398 19.74 0 16.813 0H6.187C3.192 0 1.633.423.806 1.462 0 2.475 0 3.967 0 6.032v3.936C0 13.969.957 16 6.187 16h10.626c2.539 0 3.945-.351 4.855-1.212.934-.883 1.332-2.325 1.332-4.82V6.032c0-2.178-.062-3.679-.897-4.659zm-7.337 7.17l-4.825 2.493a.746.746 0 01-1.086-.65v-4.97a.73.73 0 01.357-.626.747.747 0 01.727-.024l4.825 2.476a.731.731 0 01.002 1.301z"/></svg>