<?xml version="1.0" standalone="no"?>
<!DOCTYPE svg PUBLIC "-//W3C//DTD SVG 1.1//EN" "http://www.w3.org/Graphics/SVG/1.1/DTD/svg11.dtd" >
<svg xmlns="http://www.w3.org/2000/svg">
<metadata>Generated by IcoMoon</metadata>
<defs>
<font id="icomoon" horiz-adv-x="1024">
<font-face units-per-em="1024" ascent="960" descent="-64" />
<missing-glyph horiz-adv-x="1024" />
<glyph unicode="&#x20;" horiz-adv-x="512" d="" />
<glyph unicode="&#xe900;" glyph-name="arrow-down" d="M512.003 156.14c-18.352 0-36.702 7.007-50.694 20.992l-440.3 440.305c-28.009 28.009-28.009 73.42 0 101.418 27.998 27.998 73.4 27.998 101.411 0l389.583-389.606 389.585 389.592c28.009 27.998 73.407 27.998 101.402 0 28.022-27.998 28.022-73.409 0-101.418l-440.293-440.305c-13.999-13.987-32.349-20.979-50.694-20.979z" />
<glyph unicode="&#xe901;" glyph-name="arrow-left-light" d="M331.295 447.762l444.985 444.985c15.384 15.386 15.384 40.33 0 55.716-15.388 15.381-40.33 15.381-55.716 0l-472.843-472.843c-15.381-15.386-15.381-40.33 0-55.716l472.843-472.843c15.654-15.118 40.598-14.684 55.716 0.97 14.746 15.27 14.746 39.478 0 54.746l-444.985 444.985z" />
<glyph unicode="&#xe902;" glyph-name="arrow-left" d="M220.148 448.004c0 18.345 7.005 36.695 20.983 50.687l440.311 440.3c28.009 28.009 73.42 28.009 101.418 0 27.998-27.998 27.998-73.4 0-101.411l-389.606-389.576 389.579-389.592c27.998-27.998 27.998-73.407 0-101.402-27.998-28.022-73.395-28.022-101.404 0l-440.314 440.293c-13.976 13.999-20.968 32.349-20.968 50.701z" />
<glyph unicode="&#xe903;" glyph-name="arrow-line-left" d="M334.018 797.137c6.565 6.684 15.699 10.826 25.8 10.826s19.235-4.142 25.795-10.821l0.005-0.005c6.466-6.568 10.458-15.588 10.458-25.54s-3.992-18.971-10.462-25.545l-261.636-261.636h863.38c20.126 0 36.643-15.997 36.643-36.123s-16.517-36.643-36.643-36.643h-863.38l261.641-261.153c13.949-14.436 13.949-37.684 0-51.6-6.565-6.684-15.699-10.826-25.8-10.826s-19.235 4.142-25.795 10.821l-323.586 323.586c-6.466 6.568-10.458 15.588-10.458 25.54s3.992 18.971 10.462 25.545l323.576 323.576z" />
<glyph unicode="&#xe904;" glyph-name="arrow-line-right" d="M689.55 797.181c-6.566 6.685-15.701 10.827-25.803 10.827s-19.237-4.143-25.798-10.822l-0.005-0.005c-6.466-6.569-10.459-15.59-10.459-25.543s3.993-18.974 10.464-25.548l261.669-261.669h-863.49c-0.048 0-0.106 0-0.163 0-19.863 0-35.965-16.102-35.965-35.965 0-0.069 0-0.137 0.001-0.206v0.011c0-20.129 15.999-36.648 36.128-36.648h863.49l-261.674-261.187c-13.95-14.438-13.95-37.689 0-51.606 6.566-6.685 15.701-10.827 25.803-10.827s19.237 4.143 25.798 10.822l323.627 323.627c6.681 6.47 10.828 15.522 10.828 25.543s-4.147 19.073-10.818 25.534l-323.631 323.663z" />
<glyph unicode="&#xe905;" glyph-name="arrow-line-up" d="M921.24 574.152l-369.522 369.522c-10.54 10.54-24.601 16.326-39.894 16.326-14.994 0-29.047-5.786-39.586-16.326l-369.531-369.522c-21.829-21.837-21.829-57.377 0-79.198l33.551-33.567c10.54-10.531 24.601-16.326 39.603-16.326 14.994 0 29.538 5.794 40.069 16.326l216.056 215.589v-684.923c0-30.87 24.176-56.054 55.046-56.054h47.454c30.87 0 57.494 25.184 57.494 56.054v687.354l217.279-218.020c10.531-10.531 24.218-16.326 39.22-16.326s28.855 5.794 39.403 16.326l33.451 33.567c21.837 21.829 21.754 57.361-0.092 79.198z" />
<glyph unicode="&#xe906;" glyph-name="arrow-right-light" d="M798.815 480.477l-512.426 466.976c-16.815 16.73-44.086 16.73-60.901 0s-16.815-43.873 0-60.602l481.529-438.852-481.486-438.851c-16.815-16.73-16.815-43.874 0-60.602s44.086-16.729 60.9 0l512.427 466.976c8.962 8.918 12.805 20.742 12.206 32.434 0.557 11.737-3.284 23.559-12.249 32.521z" />
<glyph unicode="&#xe907;" glyph-name="arrow-right" d="M782.861 397.303l-440.306-440.292c-28.009-28.022-73.42-28.022-101.415 0-27.997 27.997-27.997 73.407 0 101.402l389.603 389.591-389.591 389.578c-27.997 28.009-27.997 73.413 0 101.411 27.997 28.009 73.407 28.009 101.415 0l440.306-440.299c13.999-14.006 20.99-32.342 20.99-50.687 0-18.354-7.005-36.704-21.001-50.703z" />
<glyph unicode="&#xe908;" glyph-name="check" d="M535.529 69.483c-27.781-37.399-71.817-61.368-121.451-61.368-44.428 0-84.371 19.205-111.98 49.766l-0.117 0.132-271.913 301.751c-19.331 20.787-31.195 48.747-31.195 79.478 0 64.531 52.312 116.843 116.843 116.843 34.997 0 66.4-15.386 87.814-39.763l0.113-0.131 192.378-213.503c2.607-2.892 6.366-4.702 10.548-4.702 4.672 0 8.816 2.259 11.4 5.744l0.027 0.038 395.423 536.31c21.439 29.937 56.109 49.214 95.282 49.214 64.531 0 116.843-52.312 116.843-116.843 0-26.843-9.052-51.572-24.27-71.301l0.202 0.272-465.947-631.936z" />
<glyph unicode="&#xe909;" glyph-name="close" d="M605.812 447.16l398.732 398.738c25.946 25.937 25.946 67.874 0 93.808-25.937 25.937-67.874 25.937-93.808 0l-398.741-398.735-398.726 398.735c-25.949 25.937-67.871 25.937-93.808 0-25.949-25.937-25.949-67.871 0-93.808l398.723-398.738-398.72-398.735c-25.949-25.937-25.949-67.874 0-93.808 11.975-12.008 28.535-19.437 46.831-19.437 0.026 0 0.051 0 0.077 0h-0.004c16.98 0 33.967 6.5 46.904 19.437l398.723 398.735 398.741-398.735c11.978-12.008 28.542-19.437 46.84-19.437 0.022 0 0.045 0 0.067 0h-0.004c16.98 0 33.967 6.5 46.904 19.437 25.946 25.937 25.946 67.871 0 93.808z" />
<glyph unicode="&#xe90a;" glyph-name="curve-arrow" d="M690.871 960l-55.322-55.322 93.788-93.788c-240.050 29.227-480.363-102.898-577.32-336.965-36.946-89.196-49.952-186.674-37.616-281.899 11.96-92.32 47.341-180.856 102.319-256.029l63.15 46.183c-98.681 134.933-119.455 307.571-55.569 461.803 92.263 222.741 335.765 337.985 562.539 276.12l-151.29-151.29 55.322-55.322 223.255 223.253-223.255 223.255z" />
<glyph unicode="&#xe90b;" glyph-name="date" d="M812 540c0-22.091-17.909-40-40-40s-40 17.909-40 40c0 22.091 17.909 40 40 40s40-17.909 40-40zM864 880h-52v40c0 22.092-17.908 40-40 40s-40-17.908-40-40v-40h-182v40c0 22.092-17.908 40-40 40s-40-17.908-40-40v-40h-180v40c0 22.092-17.908 40-40 40s-40-17.908-40-40v-40h-50c-88.224 0-160-71.776-160-160v-624c0-88.224 71.776-160 160-160h306c22.092 0 40 17.908 40 40s-17.908 40-40 40h-306c-44.112 0-80 35.888-80 80v624c0 44.112 35.888 80 80 80h50v-40c0-22.092 17.908-40 40-40s40 17.908 40 40v40h180v-40c0-22.092 17.908-40 40-40s40 17.908 40 40v40h182v-40c0-22.092 17.908-40 40-40s40 17.908 40 40v40h52c44.112 0 80-35.888 80-80v-228c0-22.092 17.908-40 40-40s40 17.908 40 40v228c0 88.224-71.776 160-160 160zM782 420c-133.44 0-242-108.56-242-242s108.56-242 242-242 242 108.56 242 242-108.56 242-242 242zM782 16c-89.326 0-162 72.672-162 162s72.674 162 162 162 162-72.672 162-162-72.674-162-162-162zM840 218h-18v42c0 22.092-17.908 40-40 40s-40-17.908-40-40v-82c0-22.092 17.908-40 40-40h58c22.092 0 40 17.908 40 40s-17.908 40-40 40zM638 540c0-22.091-17.909-40-40-40s-40 17.909-40 40c0 22.091 17.909 40 40 40s40-17.909 40-40zM464 366c0-22.091-17.909-40-40-40s-40 17.909-40 40c0 22.091 17.909 40 40 40s40-17.909 40-40zM290 540c0-22.091-17.909-40-40-40s-40 17.909-40 40c0 22.091 17.909 40 40 40s40-17.909 40-40zM290 366c0-22.091-17.909-40-40-40s-40 17.909-40 40c0 22.091 17.909 40 40 40s40-17.909 40-40zM290 192c0-22.091-17.909-40-40-40s-40 17.909-40 40c0 22.091 17.909 40 40 40s40-17.909 40-40zM464 192c0-22.091-17.909-40-40-40s-40 17.909-40 40c0 22.091 17.909 40 40 40s40-17.909 40-40zM464 540c0-22.091-17.909-40-40-40s-40 17.909-40 40c0 22.091 17.909 40 40 40s40-17.909 40-40z" />
<glyph unicode="&#xe90c;" glyph-name="dislike" d="M651.636 913.455h-418.909c-37.236 0-69.818-23.273-83.782-55.855l-139.636-330.473c-4.655-9.309-9.309-18.618-9.309-32.582v-93.091c0-51.2 41.891-93.091 93.091-93.091h293.236l-46.545-214.109v-13.964c0-18.618 9.309-37.235 18.618-51.2l51.2-46.545 307.2 307.2c18.618 18.618 27.927 41.891 27.927 65.164v465.455c0 51.2-41.891 93.091-93.091 93.091zM837.818 913.455v-558.545h186.182v558.545h-186.182z" />
<glyph unicode="&#xe90d;" glyph-name="enter" d="M864 960h-704c-88.224 0-160-71.776-160-160v-80c0-22.092 17.908-40 40-40s40 17.908 40 40v80c0 44.112 35.888 80 80 80h704c44.112 0 80-35.888 80-80v-704c0-44.112-35.888-80-80-80h-704c-44.112 0-80 35.888-80 80v80c0 22.092-17.908 40-40 40s-40-17.908-40-40v-80c0-88.224 71.776-160 160-160h704c88.224 0 160 71.776 160 160v704c0 88.224-71.776 160-160 160zM671.838 532.866l-149.568 149.432c-15.628 15.614-40.954 15.602-56.568-0.026s-15.602-40.954 0.026-56.568l149.556-149.418c15.596-15.596 15.596-40.972 0-56.568l-149.742-151.608c-15.524-15.718-15.368-41.044 0.35-56.568 7.2-7.134 17.112-11.542 28.054-11.542 0.018 0 0.037 0 0.055 0h-0.003c10.32 0 20.636 3.97 28.46 11.892l149.492 151.354c46.692 46.796 46.658 122.85-0.112 169.62zM466 488h-426c-22.092 0-40-17.908-40-40s17.908-40 40-40h426c22.092 0 40 17.908 40 40s-17.908 40-40 40z" />
<glyph unicode="&#xe90e;" glyph-name="facebook" d="M682.539 789.973h93.483v162.816c-16.128 2.219-71.595 7.211-136.192 7.211-134.784 0-227.115-84.779-227.115-240.597v-143.403h-148.736v-182.016h148.736v-457.984h182.357v457.941h142.72l22.656 182.016h-165.419v125.397c0.043 52.608 14.208 88.619 87.509 88.619z" />
<glyph unicode="&#xe90f;" glyph-name="fire" d="M893.812 360.462c-11.73 152.718-82.834 248.42-145.562 332.872-58.084 78.184-108.25 145.7-108.25 245.296 0 8-4.48 15.312-11.584 18.978-7.126 3.688-15.688 3.084-22.166-1.624-94.208-67.412-172.812-181.030-200.27-289.438-19.062-75.474-21.584-160.322-21.938-216.36-87 18.582-106.708 148.718-106.916 150.136-1.024 6.89-5.202 12.628-10.991 15.776l-0.113 0.056c-6.062 3.166-13.188 3.396-19.334 0.354-4.562-2.208-111.98-56.788-118.23-274.71-0.438-7.25-0.458-14.522-0.458-21.792 0-211.714 172.27-383.974 384-383.974 0.292-0.020 0.604-0.062 0.854 0h0.27c211.21 0.606 382.876 172.634 382.876 383.974 0 10.646-2.188 40.456-2.188 40.456zM512-21.304c-70.584 0-128 61.162-128 136.344 0 2.562-0.020 5.146 0.166 8.312 0.854 31.706 6.876 53.35 13.48 67.746 12.376-26.582 34.5-51.018 70.438-51.018 0.004 0 0.009 0 0.014 0 11.775 0 21.32 9.545 21.32 21.32 0 0.004 0 0.008 0 0.013v-0.001c0 30.372 0.626 65.412 8.188 97.036 6.73 28.040 22.812 57.872 43.188 81.786 9.062-31.040 26.73-56.162 43.98-80.682 24.688-35.080 50.208-71.35 54.688-133.2 0.27-3.666 0.542-7.354 0.542-11.312-0.004-75.18-57.42-136.344-128.004-136.344z" />
<glyph unicode="&#xe910;" glyph-name="gamepad" d="M277.029 814.324c-0.457-0.305-5.181-0.914-10.514-1.219-19.505-1.371-31.086-4.419-57.752-15.238-1.219-0.457-4.267-2.286-6.857-3.962-2.438-1.676-6.552-4.114-9.143-5.486-13.105-7.314-30.019-23.314-47.695-45.105-11.429-14.019-35.352-49.676-35.352-52.571 0-1.067-0.457-1.981-1.067-1.981-0.762 0-1.981-1.524-2.895-3.505-0.914-1.829-6.248-12.19-11.886-23.162-5.486-10.819-10.057-20.267-10.057-20.876 0-0.762-1.219-3.048-2.59-5.333-1.524-2.133-2.743-4.724-3.048-5.638-0.152-0.914-4.419-11.733-9.448-24.229-12.343-30.629-27.429-77.562-34.438-106.971-0.61-2.438-1.371-5.638-1.676-6.857-1.067-4.419-3.962-16-4.571-19.048-0.457-1.676-1.067-5.029-1.524-7.619-0.457-2.438-1.371-6.552-2.133-9.143-0.61-2.438-1.676-7.010-2.133-9.905s-1.219-7.010-1.676-9.143c-0.457-2.133-1.371-7.619-2.286-12.19s-1.829-10.057-2.286-12.19c-0.457-1.981-1.067-6.095-1.524-9.143s-1.067-6.857-1.371-8.381c-0.305-1.676-1.067-6.857-1.676-11.429s-1.371-9.752-1.676-11.429c-0.762-4.267-1.981-12.648-2.895-21.333-0.457-4.114-1.067-8.99-1.371-10.667s-1.067-8.838-1.676-16c-0.61-7.162-1.371-15.39-1.676-18.286-0.61-8.076-0.61-49.981 0.152-58.667 0.61-7.924 1.981-20.419 3.2-29.714 4.571-33.676 20.724-80.152 34.895-101.181 2.133-3.048 3.81-6.095 3.81-6.552 0-2.286 17.676-24.076 26.667-33.067 9.143-9.143 34.895-27.124 37.943-26.819 0.762 0.152 1.829-0.305 2.286-1.067 0.762-1.067 7.924-4.876 10.819-5.79 0.457-0.152 1.829-0.762 3.048-1.219 25.448-10.667 68.419-10.819 96.305-0.152 19.505 7.467 44.8 21.638 57.6 32 13.257 10.971 18.895 16.152 29.714 27.124 15.086 15.39 24.533 25.905 30.476 33.676 2.438 3.352 5.79 7.467 7.314 9.143 2.438 2.743 9.448 13.105 32.914 48.762 9.295 14.324 27.886 32.762 37.486 37.181 9.295 4.267 23.619 5.638 37.181 3.2 8.838-1.524 36.114-1.829 126.629-1.067 32.762 0.305 51.2-8.99 69.333-34.743 4.114-5.79 11.581-15.848 16.61-22.095 8.076-10.21 12.8-15.695 32.914-38.857 12.648-14.629 56.99-57.448 71.010-68.724 13.41-10.667 29.105-20.267 35.2-21.333 1.067-0.152 5.181-1.371 9.143-2.59 14.629-4.724 28.952-6.4 51.505-6.4 25.143 0.152 34.133 0.762 35.2 2.59 0.457 0.762 1.371 0.914 1.981 0.61 1.067-0.762 10.514 1.219 15.39 3.2 1.219 0.61 2.59 1.067 3.048 1.219 8.533 2.133 19.048 7.162 32.762 15.695 7.771 4.876 29.867 27.124 32.762 33.067 1.219 2.59 3.048 5.638 3.962 6.857 1.067 1.219 1.981 2.743 2.133 3.352 0 0.61 1.676 4.724 3.657 9.143s4.724 11.886 6.095 16.457c1.524 4.571 3.048 9.448 3.505 10.667 1.524 3.657 2.133 6.552 5.029 19.048 1.219 5.029 2.133 9.448 2.286 9.905 0.305 1.219 2.743 15.848 3.2 19.048 0.152 1.676 0.457 3.048 0.61 3.048 0.305 0 2.133 15.086 4.267 36.571 2.286 23.010 0.914 117.181-1.981 131.048-0.305 1.676-1.067 7.467-1.524 12.952s-1.067 12.343-1.524 15.238c-0.457 2.895-1.067 8.838-1.524 12.952-0.457 4.267-1.219 8.686-1.524 9.905-0.457 1.219-1.067 4.724-1.371 7.619-0.914 7.314-6.857 41.448-7.771 44.19-0.305 1.219-0.914 3.962-1.371 6.095-0.305 2.133-1.676 8.686-3.048 14.476-1.219 5.943-2.59 12.495-3.048 14.476-0.457 2.133-2.59 10.667-4.724 19.048s-4.267 17.371-4.724 19.81c-0.457 2.59-1.829 7.314-3.048 10.667-1.067 3.352-2.133 7.314-2.133 8.838 0 1.371-0.61 3.81-1.371 5.333-1.219 2.59-7.619 22.857-7.771 24.99-0.152 2.286-16.457 47.086-20.571 56.838-9.143 21.486-12.952 29.714-20.876 44.952-40.076 76.952-90.971 116.724-158.933 124.343-14.629 1.676-46.019 0.762-57.295-1.829-1.524-0.305-4.419-0.914-6.248-1.371-1.981-0.457-5.486-1.219-8.076-1.676-7.467-1.219-25.752-6.857-27.581-8.381-1.067-0.914-3.2-1.676-4.724-1.981-3.2-0.762-18.286-9.448-21.486-12.648-1.067-1.067-2.438-1.981-3.048-1.981s-3.048-1.981-5.638-4.267c-13.257-12.19-37.333-32.305-38.552-32.305-0.762 0-2.286-0.914-3.2-2.133-4.876-5.943-40.076-18.743-54.4-19.81-3.505-0.305-7.010-0.914-7.771-1.371-1.676-1.067-36.571-0.152-42.362 1.067-19.2 4.114-35.505 11.276-48 20.876-5.638 4.267-16.762 12.952-19.352 15.086-8.686 7.162-27.886 20.876-35.2 24.99-15.086 8.99-49.371 21.486-67.2 24.838-2.133 0.305-4.114 0.914-4.724 1.219-0.457 0.305-5.029 0.914-9.905 1.524-11.429 1.219-17.829 2.286-19.048 3.048-0.457 0.305-1.829 0-3.048-0.762-1.067-0.61-3.505-0.61-5.486 0-1.829 0.762-3.657 1.067-3.962 0.61zM330.667 661.333c4.267-2.438 8.381-6.552 11.429-11.276l4.571-7.467 0.152-44.8c0.152-24.533 0.457-44.952 0.762-45.41 0.457-0.305 3.81-0.61 7.467-0.61 8.381-0.152 42.514-0.305 45.714-0.305 10.667 0.152 27.124 0 28.952-0.305 10.21-1.981 17.371-7.771 22.4-17.676 2.133-4.267 2.743-9.752 3.048-25.905 0.152-12.952-0.305-21.333-1.371-22.552-0.914-1.067-1.067-1.981-0.61-1.981 1.676 0-5.181-9.448-9.752-13.41-7.162-6.248-12.343-7.010-55.162-7.010-26.514-0.152-40.838-0.61-40.99-1.676 0-0.762-0.305-21.029-0.457-44.952-0.152-26.819-1.067-44.952-1.981-47.39-2.895-6.552-9.905-13.867-16.457-16.762-7.924-3.657-38.705-4.114-46.629-0.762-6.705 2.895-12.8 8.838-16.457 15.848-2.59 5.181-2.895 9.6-3.048 49.829 0 24.381-0.152 44.495-0.152 44.952s-19.048 0.762-42.362 0.914c-40.229 0-42.514 0.152-48.61 3.352-6.857 3.505-12.8 10.362-15.695 17.829-2.743 7.010-2.286 41.448 0.61 48.305 3.2 7.314 9.905 14.171 17.067 17.219 4.876 1.981 33.219 3.657 39.467 2.286 0.914-0.152 2.286-0.305 3.048 0 0.914 0.152 11.581 0.305 24.076 0.305h22.4l0.152 8.533c0.152 4.876 0 9.448-0.152 10.21-0.457 1.676-0.457 2.743 0 8.381 0.152 2.133 0.305 13.105 0.152 24.381-0.305 39.771 0.914 46.171 11.124 54.248 8.229 6.705 13.714 7.924 32.914 7.619 15.543-0.152 18.286-0.61 24.381-3.962zM805.029 630.857c5.638-2.743 10.21-5.486 10.21-6.248 0-0.61 1.371-1.676 3.048-2.133s3.048-1.981 3.048-3.2 0.457-2.133 1.219-2.133c1.829 0 7.924-9.905 11.276-18.438 5.943-16 4.724-35.81-3.352-51.657-3.2-6.095-15.695-19.81-18.133-19.81-0.914 0-1.676-0.457-1.676-1.219 0-0.61-2.133-1.981-4.724-3.2-17.524-7.771-34.286-7.771-49.219-0.152-9.448 4.724-20.571 14.781-24.99 22.705-2.286 3.962-6.248 14.324-7.314 19.2-0.914 4.419-0.914 20.571 0.152 25.905 1.676 7.924 9.6 22.705 15.39 28.648 12.038 12.343 25.905 17.676 43.429 17.067 9.448-0.305 13.41-1.219 21.638-5.333zM682.667 502.095c3.81-0.457 10.362-2.59 14.781-4.571 8.533-3.81 23.314-16.61 23.314-19.962 0-1.219 0.61-2.133 1.371-2.133 3.657 0 9.905-23.010 9.6-35.81-0.457-20.876-14.324-43.581-31.695-51.81-23.010-10.819-46.476-7.467-64.152 9.6-9.295 8.686-18.59 24.381-17.829 29.714 0.152 1.371-0.152 2.59-0.61 2.59-1.371 0-1.067 22.248 0.305 28.038 1.829 7.924 9.752 21.333 16.457 28.19 7.467 7.619 21.486 14.781 31.695 16.152 3.81 0.61 7.162 1.219 7.467 1.676 0.305 0.305 1.067 0.305 1.524 0 0.61-0.457 4.114-1.067 7.771-1.676z" />
<glyph unicode="&#xe911;" glyph-name="google" d="M874.946 527.928v129.622h-86.414v-129.622h-129.622v-86.414h129.622v-129.622h86.414v129.622h129.622v86.414h-129.622zM542.25 381.024l-47.53 34.566c-17.283 12.96-34.564 30.245-34.564 60.49s21.604 56.169 43.207 69.132c56.169 43.207 112.339 90.735 112.339 185.791 0 90.735-56.169 142.584-86.414 168.508h73.452l51.849 60.49h-267.885c-190.112 0-285.168-120.98-285.168-250.602 0-99.377 77.773-207.395 216.036-207.395h34.566c-4.321-12.962-17.283-34.566-17.283-56.169 0-43.207 17.283-60.49 38.886-86.414-60.49-4.321-172.829-17.283-254.922-69.132-77.773-47.528-99.377-112.339-99.377-159.867 0-99.377 90.735-194.432 285.168-194.432 233.319 0 345.659 129.622 345.659 254.921-0.002 90.737-47.53 138.265-108.020 190.113zM213.876 774.209c0 95.056 56.169 138.263 116.659 138.263 112.339 0 172.829-151.225 172.829-237.64 0-112.339-90.735-133.942-125.301-133.942-108.018 0-164.187 133.942-164.187 233.319zM369.42-3.521c-142.584 0-233.319 64.811-233.319 159.868s86.414 125.301 112.339 138.263c56.169 17.283 129.622 21.604 142.584 21.604h30.245c103.697-73.452 146.904-103.697 146.904-172.829 0-82.095-82.092-146.906-198.753-146.906z" />
<glyph unicode="&#xe912;" glyph-name="like" d="M0-17.455h186.182v558.545h-186.182v-558.545zM1024 494.545c0 51.2-41.891 93.091-93.091 93.091h-293.236l46.545 214.109v13.964c0 18.618-9.309 37.236-18.616 51.2l-51.202 46.545-307.2-307.2c-18.618-13.964-27.927-37.236-27.927-65.164v-465.455c0-51.2 41.891-93.091 93.091-93.091h418.909c37.236 0 69.818 23.273 83.782 55.855l139.636 330.475c4.655 9.309 4.655 23.273 4.655 32.582v93.091l4.655-0.002z" />
<glyph unicode="&#xe913;" glyph-name="play" d="M906.24 375.654l-696.32-426.598c-13.129-8.147-29.057-12.976-46.113-12.976-15.47 0-30.013 3.973-42.663 10.954l0.456-0.231c-26.787 14.614-44.683 42.528-44.8 74.633v853.213c0 31.078 17.152 59.597 44.8 74.598 12.209 6.799 26.78 10.802 42.286 10.802 17.050 0 32.97-4.84 46.461-13.221l-0.375 0.217 696.32-426.598c25.446-15.616 40.909-43.008 40.909-72.346-0.111-30.55-16.324-57.29-40.59-72.186l-0.37-0.211z" />
<glyph unicode="&#xe914;" glyph-name="question" d="M955.353 705.004c-45.786 78.44-107.892 140.545-186.334 186.329-78.456 45.781-164.102 68.667-257.002 68.667-92.891 0-178.563-22.886-257.005-68.667-78.447-45.777-140.552-107.882-186.338-186.329-45.788-78.451-68.674-164.123-68.674-257.007 0-92.889 22.893-178.546 68.667-257.002 45.784-78.44 107.889-140.545 186.336-186.334 78.451-45.779 164.116-68.667 257.005-68.667s178.563 22.888 257.009 68.667c78.442 45.772 140.545 107.894 186.327 186.334 45.774 78.449 68.658 164.118 68.658 257.002 0.002 92.894-22.884 178.567-68.649 257.007zM597.357 127.994c0-6.216-2.013-11.332-6.008-15.325-3.979-3.995-9.095-5.994-15.311-5.994h-128.015c-6.221 0-11.334 1.999-15.334 5.994-4.002 3.995-6.001 9.109-6.001 15.325v128.015c0 6.216 1.996 11.332 6.001 15.325 4 3.988 9.114 5.985 15.334 5.985h128.015c6.216 0 11.332-1.996 15.311-5.985 3.995-3.995 6.008-9.109 6.008-15.325v-128.015zM759.686 522.002c-5.562-16.446-11.778-29.898-18.667-40.338-6.886-10.445-16.782-21.114-29.676-31.997-12.866-10.888-23.096-18.671-30.671-23.346-7.542-4.658-18.442-11.005-32.649-18.996-14.671-8.437-26.772-19.442-36.322-33.004-9.557-13.553-14.335-24.549-14.335-32.985 0-6.235-2.013-11.346-6.010-15.344-3.986-3.995-9.1-5.992-15.318-5.992h-128.008c-6.221 0-11.334 1.996-15.334 5.992-4.005 3.998-5.996 9.109-5.996 15.344v24.002c0 29.777 11.659 57.678 34.996 83.67 23.337 26.003 49.004 45.226 77.008 57.671 21.319 9.775 36.436 19.778 45.324 29.999 8.901 10.221 13.345 23.79 13.345 40.67 0 14.671-8.341 27.78-25.011 39.344-16.67 11.552-35.656 17.329-56.997 17.329-23.117 0-42.223-5.336-57.338-16.007-14.671-10.66-33.777-31.108-57.335-61.326-4-5.338-9.557-8.012-16.67-8.012-5.333 0-9.557 1.331-12.665 3.991l-87.995 66.671c-10.221 8.002-11.998 17.331-5.338 28 56.896 94.668 139.338 142.002 247.335 142.002 38.676 0 76.459-9.114 113.347-27.339 36.885-18.216 67.668-43.997 92.343-77.335 24.644-33.326 36.999-69.555 36.999-108.667-0.033-19.554-2.821-37.546-8.36-53.996z" />
<glyph unicode="&#xe915;" glyph-name="reload" d="M518.041 959.94h2.034c1.136 0.12 1.615 0 2.333 0 138.548-0.292 264.159-55.441 356.315-144.871l-0.128 0.124 105.151 106.228c3.111 3.196 7.455 5.179 12.262 5.179 2.352 0 4.592-0.474 6.632-1.333l-0.113 0.042c6.497-2.668 11.011-8.897 11.125-16.195v-0.014l-17.585-362.826h-341.832c-9.634 0.102-17.404 7.936-17.404 17.584 0 6.45 3.472 12.088 8.649 15.149l0.082 0.045 103.477 104.733c-61.368 59.095-141.159 91.454-229.204 91.454-179.021-1.017-324.964-147.738-324.964-329.57 1.376-178.123 146.961-322.991 327.836-324.307 125.434 6.983 231.547 83.105 281.411 190.622l0.847 2.036 167.656-77.338-1.136-2.333c-114.841-222.086-295.836-315.634-489.989-295.716-261.682 20.815-469.413 240.030-471.207 509.607-0.060 279.925 227.529 509.249 507.753 511.701z" />
<glyph unicode="&#xe916;" glyph-name="rotate-mob" d="M957.099 646.656l-246.485 246.485c-35.584 35.584-97.621 31.445-138.325-9.216l-496.171-496.299c-40.661-40.661-44.8-102.699-9.216-138.325l246.443-246.443c35.584-35.584 97.621-31.445 138.325 9.216l496.256 496.256c40.661 40.704 44.8 102.741 9.173 138.325zM894.251 548.608l-482.859-482.859c-14.805-14.805-37.333-16.299-50.304-3.371l-234.709 234.709c-12.971 12.971-11.477 35.499 3.371 50.304l482.859 482.859c14.805 14.805 37.333 16.299 50.304 3.371l11.733-11.733c12.971-12.971 11.477-35.499-3.371-50.304-14.805-14.805-16.299-37.333-3.371-50.304l117.376-117.376c12.971-12.971 35.499-11.477 50.304 3.371 14.805 14.805 37.333 16.299 50.304 3.371l11.733-11.733c12.928-12.971 11.435-35.499-3.371-50.304zM590.336-64c-14.336 0-27.349 8.619-32.939 21.888-5.589 13.355-2.56 28.757 7.68 38.997l101.547 101.547c7.125 7.125 16.981 10.965 27.008 10.411 10.069-0.512 19.499-5.248 25.856-13.056l37.632-46.037c115.072 61.141 194.347 181.973 195.456 320.171 0.171 19.627 16.085 35.413 35.669 35.413h0.299c19.712-0.171 35.541-16.256 35.413-35.968-1.835-237.056-196.267-431.488-433.323-433.365-0.085 0-0.171 0-0.299 0zM433.664 960c14.336 0 27.349-8.619 32.939-21.888 5.589-13.355 2.56-28.757-7.68-38.997l-101.547-101.547c-7.168-7.125-17.024-11.008-27.051-10.411-10.069 0.512-19.499 5.248-25.856 13.056l-37.632 46.037c-115.072-61.141-194.347-181.973-195.456-320.171-0.171-19.627-16.128-35.413-35.712-35.413-0.085 0-0.171 0-0.299 0-19.669 0.171-35.499 16.256-35.371 35.968 1.877 237.056 196.309 431.488 433.365 433.365z" />
<glyph unicode="&#xe917;" glyph-name="scale-arrows" d="M1009.156 950.654c-5.789 5.776-13.78 9.348-22.605 9.348-2.085 0-4.124-0.199-6.097-0.58l0.201 0.032-289.793-54.297c-13.191-2.533-23.671-12.014-27.595-24.411l-0.069-0.254c-1.016-3.17-1.601-6.818-1.601-10.601 0-9.905 4.012-18.872 10.5-25.366v0l45.9-45.898-143.405-143.348c-11.671-11.664-11.664-30.584 0.010-42.244l98.646-98.516c11.662-11.645 30.556-11.639 42.21 0.015l143.334 143.329 45.934-45.898c6.495-6.487 15.463-10.498 25.367-10.498 3.819 0 7.499 0.596 10.952 1.701l-0.254-0.070c12.653 4.048 22.111 14.594 24.532 27.613l0.034 0.221 52.764 291.261c0.326 1.716 0.512 3.689 0.512 5.706 0 8.896-3.624 16.946-9.475 22.753l-0.002 0.002zM165.209 238.139l-45.932 45.898c-6.496 6.487-15.465 10.499-25.371 10.499-3.818 0-7.497-0.596-10.949-1.7l0.254 0.070c-12.654-4.048-22.113-14.594-24.536-27.613l-0.034-0.221-52.764-291.263c-0.325-1.713-0.51-3.684-0.51-5.698 0-8.899 3.624-16.952 9.478-22.762l0.002-0.002c5.787-5.777 13.776-9.349 22.599-9.349 2.086 0 4.126 0.2 6.101 0.581l-0.201-0.032 289.791 54.299c16.769 3.233 29.263 17.792 29.263 35.269 0 9.903-4.012 18.87-10.499 25.363v0l-45.896 45.898 143.557 143.12c11.696 11.66 11.704 30.6 0.021 42.271l-98.832 98.713c-11.662 11.648-30.558 11.643-42.212-0.013l-143.329-143.329z" />
<glyph unicode="&#xe918;" glyph-name="search" d="M463.961 960c256.267 0 464.006-207.605 464.006-463.649 0-0.107 0-0.234 0-0.361 0-61.854-12.134-120.873-34.152-174.808l1.117 3.092-2.849 2.849c-8.453-8.885-20.366-14.412-33.57-14.412-25.572 0-46.303 20.73-46.303 46.303 0 0.042 0 0.085 0 0.127v-0.007l-0.445 4.319c0 12.154 4.719 23.24 12.466 31.521l-3.918 3.873c8.396 29.409 13.223 63.185 13.223 98.089 0 0.107 0 0.214 0 0.321v-0.017c0 204.399-165.843 370.154-370.421 370.154s-370.421-165.754-370.421-370.198 165.843-370.198 370.421-370.198c0.158 0 0.345 0 0.532 0 99.669 0 190.116 39.483 256.554 103.661l-0.107-0.103c1.113 1.469 2.315 2.894 3.651 4.274l67.272-1.158 159.388-159.343 0.356 0.312 59.303-59.214c8.39-8.368 13.581-19.939 13.581-32.723s-5.191-24.356-13.58-32.722l-0.001-0.001c-8.377-8.406-19.965-13.607-32.768-13.607s-24.391 5.201-32.767 13.606l-0.001 0.001-187.258 187.036c-79.001-64.969-181.174-104.36-292.548-104.36-0.268 0-0.535 0-0.803 0.001h0.042c-256.223-0.045-463.961 207.605-463.961 463.694 0 256.045 207.738 463.649 463.917 463.649z" />
<glyph unicode="&#xe919;" glyph-name="share-social" d="M948.664 789.336c0-76.586-62.078-138.672-138.664-138.672s-138.664 62.086-138.664 138.672c0 76.578 62.078 138.664 138.664 138.664s138.664-62.086 138.664-138.664zM810 618.664c-94.126 0-170.664 76.546-170.664 170.672 0 94.118 76.54 170.664 170.664 170.664s170.664-76.546 170.664-170.664c0-94.126-76.54-170.672-170.664-170.672zM810 896c-58.836 0-106.664-47.876-106.664-106.664 0-58.796 47.828-106.672 106.664-106.672s106.664 47.876 106.664 106.672c0 58.788-47.828 106.664-106.664 106.664zM948.664 106.664c0-76.578-62.078-138.664-138.664-138.664s-138.664 62.086-138.664 138.664c0 76.586 62.078 138.672 138.664 138.672s138.664-62.086 138.664-138.672zM810-64c-94.126 0-170.664 76.546-170.664 170.664 0 94.126 76.54 170.672 170.664 170.672s170.664-76.546 170.664-170.672c0-94.118-76.54-170.664-170.664-170.664zM810 213.336c-58.836 0-106.664-47.876-106.664-106.672 0-58.79 47.828-106.664 106.664-106.664s106.664 47.876 106.664 106.664c0 58.796-47.828 106.672-106.664 106.672zM351.336 448c0-76.586-62.086-138.664-138.672-138.664-76.578 0-138.664 62.078-138.664 138.664s62.086 138.664 138.664 138.664c76.586 0 138.672-62.078 138.672-138.664zM212.664 277.336c-94.118 0-170.664 76.54-170.664 170.664s76.546 170.664 170.664 170.664c94.126 0 170.672-76.54 170.672-170.664s-76.546-170.664-170.672-170.664zM212.664 554.664c-58.836 0-106.664-47.868-106.664-106.664s47.828-106.664 106.664-106.664c58.844 0 106.672 47.868 106.672 106.664s-47.828 106.664-106.672 106.664zM313.406 468.476c-14.852 0-29.274 7.728-37.124 21.548-11.65 20.436-4.478 46.508 15.96 58.202l395.9 225.704c20.436 11.734 46.506 4.562 58.2-15.954 11.65-20.436 4.48-46.508-15.96-58.202l-395.906-225.704c-6.044-3.518-13.303-5.594-21.047-5.594-0.008 0-0.016 0-0.025 0h0.001zM709.266 116.476c-7.172 0-14.422 1.798-21.080 5.594l-395.902 225.704c-20.44 11.648-27.602 37.72-15.954 58.202 11.6 20.478 37.712 27.688 58.196 15.954l395.906-225.704c20.438-11.648 27.6-37.72 15.952-58.202-7.89-13.82-22.312-21.548-37.116-21.548z" />
<glyph unicode="&#xe91a;" glyph-name="share" d="M1024 447.36l-425.554 466.64v-278.406h-90.478c-280.546 0-507.968-227.422-507.968-507.968v-147.54l40.188 44.040c132.345 144.635 321.944 235 532.648 235h25.61v-278.408z" />
<glyph unicode="&#xe91b;" glyph-name="smile" d="M874.322 810.157c-199.766 199.785-524.78 199.785-724.507 0.048-199.766-199.737-199.746-524.761 0.019-724.536 199.708-199.727 524.723-199.727 724.469 0.039 199.746 199.737 199.737 524.742 0.019 724.449zM818.423 141.568c-168.924-168.924-443.795-168.943-612.728-0.019-168.963 168.953-168.943 443.853 0 612.777 168.924 168.914 443.785 168.934 612.748-0.019 168.924-168.924 168.905-443.824-0.019-612.738zM320.969 586.589c-0.006 0.32-0.010 0.697-0.010 1.075 0 33.069 26.808 59.878 59.878 59.878s59.878-26.808 59.878-59.878c0-0.378-0.004-0.755-0.010-1.132l0.001 0.056c-0.604-32.604-27.177-58.802-59.868-58.802s-59.264 26.199-59.867 58.746l-0.001 0.056zM592.47 586.589c0 33.072 26.81 59.882 59.882 59.882s59.882-26.81 59.882-59.882v0c0-33.082-26.805-59.887-59.868-59.887s-59.897 26.805-59.897 59.887zM734.028 341.353c-37.108-85.814-124.013-141.259-221.386-141.259-99.468 0-186.884 55.725-222.708 141.974-1.501 3.385-2.374 7.333-2.374 11.486 0 15.999 12.97 28.968 28.968 28.968 12.137 0 22.53-7.464 26.841-18.052l0.070-0.194c26.815-64.561 93.23-106.256 169.204-106.256 74.255 0 140.284 41.724 168.209 106.323 4.625 10.219 14.732 17.2 26.47 17.2 15.999 0 28.968-12.97 28.968-28.968 0-4.052-0.832-7.91-2.334-11.411l0.072 0.189z" />
<glyph unicode="&#xe91c;" glyph-name="speech-bubble" d="M149.091-2.796h-72.556l51.305 51.305c27.663 27.663 44.937 63.642 49.582 102.673-118.463 77.741-177.421 190.364-177.421 308.433 0 217.823 200.199 439.181 513.735 439.181 332.156 0 510.265-203.692 510.265-420.098 0-217.833-179.99-421.388-510.265-421.388-57.856 0-118.229 7.724-172.13 21.895-51.024-52.334-120.158-82.001-192.514-82.001z" />
<glyph unicode="&#xe91d;" glyph-name="star" d="M1021.322 567.236c-6.774 20.451-24.816 35.327-46.589 37.36l-0.216 0.016-295.599 26.836-116.822 273.505c-8.626 20.094-28.25 33.061-50.095 33.061s-41.477-12.966-50.047-33.061l-116.822-273.505-295.645-26.836c-21.674-2-40.027-16.68-46.807-37.377-1.7-5.042-2.682-10.849-2.682-16.886 0-16.3 7.155-30.928 18.496-40.915l0.060-0.052 223.45-195.931-65.883-290.179c-4.82-21.336 3.46-43.401 21.164-56.197 8.82-6.479 19.892-10.368 31.873-10.368 0.015 0 0.029 0 0.044 0h-0.002c0.001 0 0.003 0 0.005 0 10.303 0 19.936 2.871 28.143 7.856l-0.241-0.136 254.894 152.409 254.848-152.409c7.975-4.848 17.617-7.717 27.929-7.717 12.003 0 23.097 3.888 32.094 10.472l-0.153-0.107c17.702 12.796 25.984 34.861 21.164 56.197l-65.885 290.177 223.45 195.931c11.401 10.038 18.557 24.666 18.557 40.965 0 6.037-0.982 11.845-2.794 17.273l0.111-0.385z" />
<glyph unicode="&#xe91e;" glyph-name="user" d="M874.132 810.246c-199.657 199.726-524.561 199.726-724.218 0-67.804-67.655-116.665-154.267-137.959-251.21l-0.623-3.379c-7.235-32.309-11.381-69.415-11.381-107.49 0-62.404 11.136-122.208 31.53-177.531l-1.148 3.558c2.849-8.345 10.621-14.239 19.77-14.239 11.512 0 20.844 9.332 20.844 20.844 0 2.707-0.516 5.294-1.456 7.668l0.049-0.141c-17.677 47.554-27.905 102.492-27.905 159.819 0 35.013 3.815 69.134 11.053 101.971l-0.579-3.127c20.135 92.118 65.008 171.646 127.263 233.759l0.009 0.009c183.41 183.478 481.872 183.478 665.281 0 84.041-83.697 136.428-199.122 137.669-326.785l0.002-0.236c0.029-1.952 0.046-4.256 0.046-6.565 0-125.372-49.294-239.231-129.558-323.251l0.17 0.179-2.981-3.186c-1.887-2.024-3.631-3.847-5.397-5.648l0.049 0.050c-183.41-183.455-481.872-183.455-665.281 0-0.938 0.944-1.872 1.907-2.796 2.882l-0.072 0.076c-0.038 1.927-0.060 4.199-0.060 6.476 0 4.132 0.071 8.248 0.212 12.346l-0.016-0.595 0.228 4.187c0.137 2.776 0.273 5.552 0.455 8.306l0.455 4.892 0.683 7.441 0.683 5.211c0.296 2.344 0.569 4.688 0.91 7.031l0.865 5.302 1.161 6.827 1.070 5.325 1.388 6.667 1.274 5.348c0.523 2.162 1.024 4.324 1.593 6.485 0.455 1.798 0.978 3.55 1.479 5.348 0.592 2.116 1.183 4.255 1.82 6.372 1.788 6.113 3.052 9.951 4.387 13.756l-0.678-2.219 1.82 5.234c2.235 6.31 3.697 10.042 5.217 13.744l-0.893-2.458c6.048 15.203 12.197 27.856 19.131 40.003l-0.813-1.546c5.707 10.165 10.827 18.361 16.264 26.325l-0.79-1.226c2.881 4.25 5.163 7.437 7.505 10.576l-0.565-0.791c1.297 1.775 2.617 3.527 3.959 5.279 1.092 1.434 2.185 2.867 3.322 4.278 1.365 1.729 2.753 3.436 4.164 5.143 1.138 1.365 2.276 2.776 3.459 4.142 1.434 1.684 2.89 3.368 4.369 5.006 2.901 3.277 5.567 6.174 8.286 9.021l-0.117-0.123 3.709 3.868 4.779 4.756 3.823 3.686c1.661 1.593 3.368 3.095 5.052 4.642 1.297 1.183 2.571 2.367 3.868 3.504 1.752 1.547 3.55 3.049 5.325 4.551 1.32 1.092 2.594 2.23 3.937 3.3 1.82 1.502 3.732 2.958 5.598 4.437l3.937 3.095c1.98 1.502 4.005 2.958 6.030 4.415 1.274 0.91 2.526 1.866 3.823 2.776 2.23 1.57 4.506 3.072 6.781 4.597 1.138 0.751 2.23 1.525 3.368 2.253 2.958 1.934 5.962 3.8 9.011 5.643 0.455 0.273 0.91 0.592 1.411 0.865 3.504 2.116 7.077 4.142 10.695 6.144 1.229 0.683 2.503 1.32 3.732 1.98 2.389 1.274 4.779 2.571 7.214 3.777 1.57 0.796 3.163 1.525 4.733 2.276 2.002 0.978 3.982 1.957 5.985 2.89 36.43-34.911 85.925-56.438 140.449-56.548h0.021c54.553 0.103 104.058 21.632 140.565 56.617l-0.073-0.069c74.521-35.278 132.859-94.595 166.002-167.76l0.865-2.133c3.312-7.393 10.606-12.45 19.081-12.45 11.513 0 20.846 9.333 20.846 20.846 0 3.039-0.65 5.925-1.819 8.529l0.053-0.132c-36.262 81.431-98.073 146.044-175.091 184.928l-2.152 0.985c22.102 31.992 35.308 71.603 35.317 114.299v0.002c0 112.276-91.318 203.639-203.594 203.639-11.518 0-20.855-9.337-20.855-20.855s9.337-20.855 20.855-20.855v0c89.293 0 161.906-72.636 161.906-161.929-0.028-41.732-15.879-79.757-41.877-108.405l0.12 0.134c-29.712-32.942-72.508-53.59-120.129-53.703h-0.020c-47.641 0.116-90.436 20.764-120.022 53.56l-0.127 0.144c-25.869 28.51-41.718 66.525-41.756 108.24v0.008c0 43.6 17.067 84.491 48.014 115.143 3.602 3.741 5.821 8.836 5.821 14.449 0 11.512-9.332 20.844-20.844 20.844-5.534 0-10.564-2.157-14.296-5.675l0.010 0.010c-37.29-36.704-60.394-87.724-60.394-144.141 0-0.213 0-0.427 0.001-0.64v0.033c0-40.96 12.356-80.623 35.248-114.233l-0.614-0.296c-1.616-0.819-3.186-1.684-4.824-2.503-2.458-1.297-4.938-2.549-7.373-3.891-1.729-0.933-3.413-1.934-5.12-2.89-2.276-1.274-4.551-2.571-6.804-3.891-1.729-1.024-3.436-2.116-5.166-3.163-2.162-1.343-4.324-2.662-6.44-4.028-1.729-1.115-3.413-2.276-5.143-3.413-5.214-3.465-8.868-6.019-12.481-8.627l1.262 0.868-5.916-4.324-4.961-3.8c-6.106-4.743-11.313-9.056-16.391-13.514l0.393 0.339c-5.302-4.622-10.030-8.953-14.651-13.394l0.133 0.127-5.143-5.074c-1.456-1.479-2.913-2.913-4.324-4.392l-5.006-5.302c-1.365-1.502-2.753-2.958-4.096-4.483-1.661-1.843-3.277-3.709-4.892-5.575-1.274-1.502-2.594-2.981-3.868-4.506-1.638-1.957-3.209-3.959-4.801-5.939l-3.573-4.437c-1.661-2.162-3.277-4.346-4.915-6.531l-3.072-4.142c-2.048-2.844-4.050-5.734-6.007-8.647-0.523-0.751-1.070-1.479-1.593-2.276-2.458-3.641-4.847-7.373-7.168-11.127l-2.344-3.914c-1.502-2.503-3.004-5.006-4.46-7.509-0.91-1.593-1.752-3.209-2.64-4.801-1.252-2.298-2.526-4.574-3.755-6.895-0.91-1.729-1.752-3.482-2.64-5.211-1.138-2.23-2.276-4.46-3.345-6.736-0.865-1.798-1.684-3.618-2.526-5.416l-3.049-6.713c-0.819-1.866-1.593-3.755-2.367-5.621-8.891-20.384-16.445-44.335-21.473-69.201l-0.395-2.342c-0.41-2.002-0.819-4.005-1.183-6.007-0.455-2.503-0.865-5.006-1.274-7.509l-0.933-5.962c-0.387-2.594-0.683-5.188-1.024-7.805l-0.728-5.78c-0.296-2.731-0.523-5.484-0.751-8.238-0.159-1.82-0.364-3.664-0.501-5.507-0.228-3.072-0.364-6.144-0.501-9.239-0.091-1.525-0.205-3.049-0.25-4.574-0.159-4.642-0.273-9.284-0.273-13.949 0-5.006 0.182-9.785 0.387-15.041 0.046-1.229 0.228-2.412 0.455-3.55l0.068-0.273c0.228-1.138 0.614-2.23 1.047-3.3l0.114-0.296c0.455-1.047 0.978-2.048 1.593-2.958l0.228-0.387c0.654-0.98 1.328-1.834 2.062-2.632l-0.014 0.015 0.159-0.182 2.753-2.913c2.094-2.23 4.164-4.46 6.326-6.622 99.829-99.874 230.969-149.777 362.109-149.777s262.281 49.903 362.132 149.777c2.162 2.162 4.233 4.392 6.326 6.599l2.731 2.935c87.196 91.276 140.861 215.232 140.861 351.721 0 2.508-0.018 5.012-0.054 7.512l0.004-0.378c-1.341 139.244-58.372 264.912-149.851 356.016l-0.017 0.017z" />
<glyph unicode="&#xe91f;" glyph-name="warning" d="M1003.218 190.794l-362.132 666.676c-27.332 46.012-75.604 73.492-129.124 73.492s-101.792-27.48-129.124-73.492c-0.206-0.352-0.38-0.704-0.586-1.056l-360.928-664.566c-27.918-46.982-28.446-103.404-1.438-150.914 27.070-47.538 75.838-75.896 130.532-75.896h721.088c54.694 0 105.466 28.358 132.534 75.896 27.008 47.508 26.482 103.934-0.822 149.86zM451.902 625.704c0 33.172 26.89 60.060 60.060 60.060 33.172 0 60.060-26.89 60.060-60.060v-240.242c0-33.168-26.89-60.060-60.060-60.060s-60.060 26.894-60.060 60.060v240.242zM511.962 85.158c-49.678 0-90.092 40.412-90.092 90.092 0 49.678 40.412 90.090 90.092 90.090 49.678 0 90.090-40.412 90.090-90.090 0.002-49.678-40.41-90.092-90.090-90.092z" />
</font>
</defs>
</svg>
