<svg xmlns="http://www.w3.org/2000/svg" width="20" height="16"><defs><linearGradient id="a" x1="0" x2="20" y1="15" y2="1" gradientUnits="userSpaceOnUse"><stop offset="0" stop-color="#e41b15"/><stop offset="1" stop-color="#ea8d0e"/></linearGradient></defs><path fill="#fff" d="M.212 7.057A.706.706 0 010 6.545V5.091a.7.7 0 01.212-.511.68.68 0 01.502-.216h17.143a.68.68 0 01.502.216.704.704 0 01.212.51v1.455c0 .197-.07.368-.212.512a.682.682 0 01-.502.216H.714a.683.683 0 01-.502-.216zm0-4.364A.706.706 0 010 2.182V.727A.7.7 0 01.212.216.68.68 0 01.714 0h12.857a.68.68 0 01.502.216.705.705 0 01.213.511v1.455a.703.703 0 01-.213.511.681.681 0 01-.502.216H.714a.682.682 0 01-.502-.216zM20 13.818v1.454c0 .197-.07.368-.212.512a.682.682 0 01-.502.216H.714a.682.682 0 01-.502-.216.707.707 0 01-.212-.512v-1.454c0-.197.07-.368.212-.512a.68.68 0 01.502-.216h18.571c.194 0 .361.072.503.216a.706.706 0 01.212.512zM.212 11.42A.706.706 0 010 10.91V9.454c0-.196.07-.367.212-.511a.68.68 0 01.502-.216H15a.68.68 0 01.502.216.705.705 0 01.212.511v1.455c0 .197-.07.367-.212.511a.68.68 0 01-.502.216H.714a.682.682 0 01-.502-.216z"/><path fill="url(#a)" d="M.212 7.057A.706.706 0 010 6.545V5.091a.7.7 0 01.212-.511.68.68 0 01.502-.216h17.143a.68.68 0 01.502.216.704.704 0 01.212.51v1.455c0 .197-.07.368-.212.512a.682.682 0 01-.502.216H.714a.683.683 0 01-.502-.216zm0-4.364A.706.706 0 010 2.182V.727A.7.7 0 01.212.216.68.68 0 01.714 0h12.857a.68.68 0 01.502.216.705.705 0 01.213.511v1.455a.703.703 0 01-.213.511.681.681 0 01-.502.216H.714a.682.682 0 01-.502-.216zM20 13.818v1.454c0 .197-.07.368-.212.512a.682.682 0 01-.502.216H.714a.682.682 0 01-.502-.216.707.707 0 01-.212-.512v-1.454c0-.197.07-.368.212-.512a.68.68 0 01.502-.216h18.571c.194 0 .361.072.503.216a.706.706 0 01.212.512zM.212 11.42A.706.706 0 010 10.91V9.454c0-.196.07-.367.212-.511a.68.68 0 01.502-.216H15a.68.68 0 01.502.216.705.705 0 01.212.511v1.455c0 .197-.07.367-.212.511a.68.68 0 01-.502.216H.714a.682.682 0 01-.502-.216z"/></svg>