<svg xmlns="http://www.w3.org/2000/svg" width="21" height="16"><defs><linearGradient id="a" x1=".03" x2="21.03" y1="16" y2="0" gradientUnits="userSpaceOnUse"><stop offset="0" stop-color="#e41b15"/><stop offset="1" stop-color="#ea8d0e"/></linearGradient></defs><path fill="#fff" d="M20.128 14.93c-1.172 1.47-3.44 1.012-4.004.614-1.326-.937-2.709-2.773-2.709-2.773s-.256-.503-.71-.707c-.468-.212-1.134-.126-1.134-.126H9.472s-.593-.188-.99.06c-.56.349-.981 1.172-.981 1.172s-.947 1.48-2.113 2.23c-1.745 1.12-3.033.405-3.608-.019.082.061-2.154-1.287-1.686-5.477C.852 3.108 3.377.934 3.73.672 5.23-.431 6.741.074 7.65.434c.716.283 1.238.923 1.83 1.223.741.375 1.728.291 2.454-.02.627-.27 1.044-.892 1.662-1.219.544-.29 2.184-.736 3.598.031.883.48 2.333 1.673 3.362 6.517.858 4.044.336 7.001-.428 7.963zM9.344 6.536v-.5c0-.369-.284-.666-.635-.666h-1.59V3.704c0-.369-.285-.667-.636-.667h-.477c-.35 0-.635.3-.635.667V5.37H3.78c-.351 0-.636.298-.636.667v.5c0 .369.285.666.636.666h1.59v1.668c0 .369.285.667.636.667h.477c.351 0 .635-.299.635-.667V7.203h1.59c.352 0 .636-.298.636-.666zm5.671 1.083c0-.69-.534-1.25-1.192-1.25-.658 0-1.192.56-1.192 1.25 0 .691.534 1.25 1.192 1.25.658 0 1.193-.559 1.192-1.25zm2.173-2.763c0-.682-.528-1.235-1.18-1.235-.65 0-1.178.553-1.178 1.235 0 .683.528 1.236 1.179 1.236s1.179-.553 1.179-1.236z"/><path fill="url(#a)" d="M20.128 14.93c-1.172 1.47-3.44 1.012-4.004.614-1.326-.937-2.709-2.773-2.709-2.773s-.256-.503-.71-.707c-.468-.212-1.134-.126-1.134-.126H9.472s-.593-.188-.99.06c-.56.349-.981 1.172-.981 1.172s-.947 1.48-2.113 2.23c-1.745 1.12-3.033.405-3.608-.019.082.061-2.154-1.287-1.686-5.477C.852 3.108 3.377.934 3.73.672 5.23-.431 6.741.074 7.65.434c.716.283 1.238.923 1.83 1.223.741.375 1.728.291 2.454-.02.627-.27 1.044-.892 1.662-1.219.544-.29 2.184-.736 3.598.031.883.48 2.333 1.673 3.362 6.517.858 4.044.336 7.001-.428 7.963zM9.344 6.536v-.5c0-.369-.284-.666-.635-.666h-1.59V3.704c0-.369-.285-.667-.636-.667h-.477c-.35 0-.635.3-.635.667V5.37H3.78c-.351 0-.636.298-.636.667v.5c0 .369.285.666.636.666h1.59v1.668c0 .369.285.667.636.667h.477c.351 0 .635-.299.635-.667V7.203h1.59c.352 0 .636-.298.636-.666zm5.671 1.083c0-.69-.534-1.25-1.192-1.25-.658 0-1.192.56-1.192 1.25 0 .691.534 1.25 1.192 1.25.658 0 1.193-.559 1.192-1.25zm2.173-2.763c0-.682-.528-1.235-1.18-1.235-.65 0-1.178.553-1.178 1.235 0 .683.528 1.236 1.179 1.236s1.179-.553 1.179-1.236z"/></svg>