<svg version="1.1" id="Слой_1" xmlns="http://www.w3.org/2000/svg" x="0" y="0" viewBox="0 0 135 19.6" xml:space="preserve"><style>.st0{fill:#fff}.st1{fill:#e85f10}</style><path class="st0" d="M33.6 16.2l1.6 3.2h3.6l-1.6-3.2zm22.6 2.9v.3H69v-3.2h-9.6zM29.2.2l-9.6 19.2h3.6l1.6-3.2 1.6-3.2 2.8-5.6L32 13h3.6zm4.6 0v4.4l9.6 9.7 6.4-6.4v11.5H53V.2l-9.6 9.6zM12.3 15.7c-.8.4-1.7.6-2.7.6-1.8 0-3.3-.6-4.5-1.8-1.2-1.2-1.8-2.8-1.8-4.5 0-1.8.6-3.3 1.8-4.5 1.3-1.3 2.8-1.9 4.5-1.9 1.8 0 3.3.6 4.5 1.9l2.3-2.3c-.9-.9-1.9-1.6-3.1-2.1S10.9.4 9.6.4c-2.7 0-4.9.9-6.8 2.8C.9 5.1 0 7.3 0 10s1 4.9 2.8 6.8c1.9 1.9 4.1 2.8 6.8 2.8.8 0 1.6-.1 2.4-.3s1.5-.5 2.2-.9c.7-.4 1.3-.8 1.9-1.4.6-.5 1.1-1.1 1.5-1.8l-3.2-1.1c-.6.7-1.3 1.2-2.1 1.6z"/><path class="st0" d="M9.6 11.4h4.8l3.2-3.2h-8z"/><path class="st1" d="M132.1 2.8C130.2 1 128 0 125.3 0s-5 .9-6.8 2.8c-1.8 1.9-2.8 4.2-2.8 6.8 0 2.7.9 4.9 2.8 6.8 1.9 1.8 4.1 2.8 6.8 2.8s4.9-.9 6.8-2.8c1.9-1.9 2.9-4.1 2.9-6.8s-1-4.9-2.9-6.8zm-2.3 11.3c-1.2 1.2-2.8 1.8-4.5 1.8-1.8 0-3.3-.6-4.5-1.8-1.2-1.2-1.8-2.8-1.8-4.5 0-1.8.6-3.3 1.8-4.5 1.2-1.3 2.8-1.9 4.5-1.9 1.8 0 3.3.6 4.5 1.9s1.9 2.8 1.9 4.5c0 1.8-.6 3.3-1.9 4.5zm-25.2 1.3c-.9.4-1.7.6-2.7.6-1.7 0-3.3-.6-4.5-1.8-1.2-1.2-1.8-2.7-1.8-4.5 0-1.7.6-3.3 1.8-4.5 1.2-1.3 2.7-1.9 4.5-1.9s3.3.7 4.5 1.9l2.3-2.3c-.9-.9-1.9-1.6-3.1-2.1-1.1-.5-2.4-.7-3.7-.7-2.7 0-5 .9-6.8 2.8-1.9 1.9-2.8 4.2-2.8 6.8 0 2.7.9 4.9 2.8 6.8 1.9 1.8 4.1 2.8 6.8 2.8.8 0 1.6-.1 2.4-.3.8-.2 1.5-.5 2.2-.9.7-.4 1.3-.9 1.9-1.4.6-.6 1.1-1.2 1.5-1.8l-3.2-1.1c-.6.7-1.3 1.3-2.1 1.6z"/><path class="st1" d="M101.9 11.2h4.8l3.2-3.2h-8z"/><path class="st0" d="M56.2 8.3v3.2H69V8.3h-9.6zM82 8.2h-4.8c-.7 0-1.2-.2-1.7-.7s-.7-1-.7-1.7c0-.3.1-.6.2-.9.1-.3.3-.6.5-.8s.5-.4.8-.5c.3-.2.6-.2.9-.2V.2c-1.6 0-3 .6-4 1.7s-1.6 2.4-1.6 3.9c0 1.6.5 2.9 1.6 4 1.1 1 2.4 1.6 4 1.6H82c.7 0 1.2.2 1.7.7.4.5.7 1.1.7 1.7 0 .3-.1.6-.2.9-.1.3-.3.6-.5.8s-.5.4-.8.5c-.3.2-.6.2-.9.2v3.2c1.6 0 2.9-.5 4-1.6s1.7-2.4 1.7-4-.6-2.9-1.7-4c-1.1-1-2.4-1.6-4-1.6zM59.4 3.4H69V.2H56.2z"/></svg>