<svg xmlns="http://www.w3.org/2000/svg" width="23" height="16"><defs><linearGradient id="a" x1="0" x2="23" y1="16" y2="0" gradientUnits="userSpaceOnUse"><stop offset="0" stop-color="#e41b15"/><stop offset="1" stop-color="#ea8d0e"/></linearGradient></defs><path fill="#fff" d="M23 6.032v3.936c0 2.495-.398 3.937-1.332 4.82-.91.86-2.316 1.212-4.855 1.212H6.187C.957 16 0 13.968 0 9.968V6.032c0-2.065 0-3.557.806-4.57C1.633.423 3.192 0 6.186 0h10.627c2.927 0 4.46.397 5.29 1.373.835.98.897 2.48.897 4.659zm-7.836 1.86a.732.732 0 00-.4-.65L9.94 4.765a.75.75 0 00-.727.024.732.732 0 00-.357.627v4.97c0 .256.136.494.358.627a.749.749 0 00.728.023l4.825-2.493a.732.732 0 00.398-.651z"/><path fill="url(#a)" d="M23 6.032v3.936c0 2.495-.398 3.937-1.332 4.82-.91.86-2.316 1.212-4.855 1.212H6.187C.957 16 0 13.968 0 9.968V6.032c0-2.065 0-3.557.806-4.57C1.633.423 3.192 0 6.186 0h10.627c2.927 0 4.46.397 5.29 1.373.835.98.897 2.48.897 4.659zm-7.836 1.86a.732.732 0 00-.4-.65L9.94 4.765a.75.75 0 00-.727.024.732.732 0 00-.357.627v4.97c0 .256.136.494.358.627a.749.749 0 00.728.023l4.825-2.493a.732.732 0 00.398-.651z"/></svg>