<?xml version="1.0" standalone="no"?>
<!DOCTYPE svg PUBLIC "-//W3C//DTD SVG 20010904//EN"
 "http://www.w3.org/TR/2001/REC-SVG-20010904/DTD/svg10.dtd">
<svg version="1.0" xmlns="http://www.w3.org/2000/svg"
 width="672.000000pt" height="672.000000pt" viewBox="0 0 672.000000 672.000000"
 preserveAspectRatio="xMidYMid meet">
<metadata>
Created by potrace 1.11, written by Peter Selinger 2001-2013
</metadata>
<g transform="translate(0.000000,672.000000) scale(0.100000,-0.100000)"
fill="#000000" stroke="none">
<path d="M1818 5764 c-3 -2 -34 -6 -69 -8 -128 -9 -204 -29 -379 -100 -8 -3
-28 -15 -45 -26 -16 -11 -43 -27 -60 -36 -86 -48 -197 -153 -313 -296 -75 -92
-232 -326 -232 -345 0 -7 -3 -13 -7 -13 -5 0 -13 -10 -19 -23 -6 -12 -41 -80
-78 -152 -36 -71 -66 -133 -66 -137 0 -5 -8 -20 -17 -35 -10 -14 -18 -31 -20
-37 -1 -6 -29 -77 -62 -159 -81 -201 -180 -509 -226 -702 -4 -16 -9 -37 -11
-45 -7 -29 -26 -105 -30 -125 -3 -11 -7 -33 -10 -50 -3 -16 -9 -43 -14 -60 -4
-16 -11 -46 -14 -65 -3 -19 -8 -46 -11 -60 -3 -14 -9 -50 -15 -80 -6 -30 -12
-66 -15 -80 -3 -13 -7 -40 -10 -60 -3 -20 -7 -45 -9 -55 -2 -11 -7 -45 -11
-75 -4 -30 -9 -64 -11 -75 -5 -28 -13 -83 -19 -140 -3 -27 -7 -59 -9 -70 -2
-11 -7 -58 -11 -105 -4 -47 -9 -101 -11 -120 -4 -53 -4 -328 1 -385 4 -52 13
-134 21 -195 30 -221 136 -526 229 -664 14 -20 25 -40 25 -43 0 -15 116 -158
175 -217 60 -60 229 -178 249 -176 5 1 12 -2 15 -7 5 -7 52 -32 71 -38 3 -1
12 -5 20 -8 167 -70 449 -71 632 -1 128 49 294 142 378 210 87 72 124 106 195
178 99 101 161 170 200 221 16 22 38 49 48 60 16 18 62 86 216 320 61 94 183
215 246 244 61 28 155 37 244 21 58 -10 237 -12 831 -7 215 2 336 -59 455
-228 27 -38 76 -104 109 -145 53 -67 84 -103 216 -255 83 -96 374 -377 466
-451 88 -70 191 -133 231 -140 7 -1 34 -9 60 -17 96 -31 190 -42 338 -42 165
1 224 5 231 17 3 5 9 6 13 4 7 -5 69 8 101 21 8 4 17 7 20 8 56 14 125 47 215
103 51 32 196 178 215 217 8 17 20 37 26 45 7 8 13 18 14 22 0 4 11 31 24 60
13 29 31 78 40 108 10 30 20 62 23 70 10 24 14 43 33 125 8 33 14 62 15 65 2
8 18 104 21 125 1 11 3 20 4 20 2 0 14 99 28 240 15 151 6 769 -13 860 -2 11
-7 49 -10 85 -3 36 -7 81 -10 100 -3 19 -7 58 -10 85 -3 28 -8 57 -10 65 -3 8
-7 31 -9 50 -6 48 -45 272 -51 290 -2 8 -6 26 -9 40 -2 14 -11 57 -20 95 -8
39 -17 82 -20 95 -3 14 -17 70 -31 125 -14 55 -28 114 -31 130 -3 17 -12 48
-20 70 -7 22 -14 48 -14 58 0 9 -4 25 -9 35 -8 17 -50 150 -51 164 -1 15 -108
309 -135 373 -60 141 -85 195 -137 295 -263 505 -597 766 -1043 816 -96 11
-302 5 -376 -12 -10 -2 -29 -6 -41 -9 -13 -3 -36 -8 -53 -11 -49 -8 -169 -45
-181 -55 -7 -6 -21 -11 -31 -13 -21 -5 -120 -62 -141 -83 -7 -7 -16 -13 -20
-13 -4 0 -20 -13 -37 -28 -87 -80 -245 -212 -253 -212 -5 0 -15 -6 -21 -14
-32 -39 -263 -123 -357 -130 -23 -2 -46 -6 -51 -9 -11 -7 -240 -1 -278 7 -126
27 -233 74 -315 137 -37 28 -110 85 -127 99 -57 47 -183 137 -231 164 -99 59
-324 141 -441 163 -14 2 -27 6 -31 8 -3 2 -33 6 -65 10 -75 8 -117 15 -125 20
-3 2 -12 0 -20 -5 -7 -4 -23 -4 -36 0 -12 5 -24 7 -26 4z m352 -1004 c28 -16
55 -43 75 -74 l30 -49 1 -294 c1 -161 3 -295 5 -298 3 -2 25 -4 49 -4 55 -1
279 -2 300 -2 70 1 178 0 190 -2 67 -13 114 -51 147 -116 14 -28 18 -64 20
-170 1 -85 -2 -140 -9 -148 -6 -7 -7 -13 -4 -13 11 0 -34 -62 -64 -88 -47 -41
-81 -46 -362 -46 -174 -1 -268 -4 -269 -11 0 -5 -2 -138 -3 -295 -1 -176 -7
-295 -13 -311 -19 -43 -65 -91 -108 -110 -52 -24 -254 -27 -306 -5 -44 19 -84
58 -108 104 -17 34 -19 63 -20 327 0 160 -1 292 -1 295 0 3 -125 5 -278 6
-264 0 -279 1 -319 22 -45 23 -84 68 -103 117 -18 46 -15 272 4 317 21 48 65
93 112 113 32 13 218 24 259 15 6 -1 15 -2 20 0 6 1 76 2 158 2 l147 0 1 56
c1 32 0 62 -1 67 -3 11 -3 18 0 55 1 14 2 86 1 160 -2 261 6 303 73 356 54 44
90 52 216 50 102 -1 120 -4 160 -26z m3113 -200 c37 -18 67 -36 67 -41 0 -4 9
-11 20 -14 11 -3 20 -13 20 -21 0 -8 3 -14 8 -14 12 0 52 -65 74 -121 39 -105
31 -235 -22 -339 -21 -40 -103 -130 -119 -130 -6 0 -11 -3 -11 -8 0 -4 -14
-13 -31 -21 -115 -51 -225 -51 -323 -1 -62 31 -135 97 -164 149 -15 26 -41 94
-48 126 -6 29 -6 135 1 170 11 52 63 149 101 188 79 81 170 116 285 112 62 -2
88 -8 142 -35z m-803 -845 c25 -3 68 -17 97 -30 56 -25 153 -109 153 -131 0
-8 4 -14 9 -14 24 0 65 -151 63 -235 -3 -137 -94 -286 -208 -340 -151 -71
-305 -49 -421 63 -61 57 -122 160 -117 195 1 9 -1 17 -4 17 -9 0 -7 146 2 184
12 52 64 140 108 185 49 50 141 97 208 106 25 4 47 8 49 11 2 2 7 2 10 0 4 -3
27 -7 51 -11z"/>
</g>
</svg>
