<?xml version="1.0" encoding="utf-8"?>
<!-- Generator: Adobe Illustrator 23.0.4, SVG Export Plug-In . SVG Version: 6.00 Build 0)  -->
<svg version="1.1" id="Слой_1" xmlns="http://www.w3.org/2000/svg" xmlns:xlink="http://www.w3.org/1999/xlink" x="0px" y="0px"
	 width="60px" height="30px" viewBox="0 0 60 30" style="enable-background:new 0 0 60 30;" xml:space="preserve">
<style type="text/css">
	.st0{fill:#FFFFFF;stroke:#CCCBCB;stroke-width:0.1124;stroke-miterlimit:10;}
	.st1{fill:#3E3D3F;}
</style>
<g id="Layer_2">
	<g id="Слой_1_1_">
		<path class="st0" d="M58.6,0H31.4c-0.3,0-1.5,0-2.9,0h-5.8H1.4C0.6,0,0,0.6,0,1.4v27.1C0,29.3,0.6,30,1.4,30h23.1h4h30
			c0.8,0,1.4-0.6,1.4-1.4V1.4C60,0.6,59.4,0,58.6,0z"/>
		<path class="st1" d="M17.8,20.7h-2.3v-8.8l-2.7,0.8v-1.9l4.8-1.7h0.3V20.7z"/>
	</g>
</g>
<path class="st1" d="M44.9,16.2c-0.5,0.6-1.3,0.9-2.1,0.9c-0.9,0-1.8-0.3-2.4-1c-0.6-0.8-1-1.8-0.9-2.8c0-0.7,0.2-1.4,0.5-2
	c0.3-0.6,0.8-1.1,1.4-1.4c0.6-0.3,1.3-0.5,2-0.5c0.7,0,1.4,0.2,2,0.6c0.6,0.4,1.1,1,1.4,1.6c0.3,0.8,0.5,1.6,0.5,2.4v0.8
	c0,1.9-0.5,3.4-1.4,4.4c-1,1.1-2.5,1.7-4,1.7h-0.6v-1.9h0.5C43.7,18.9,44.8,17.9,44.9,16.2z M43.4,15.3c0.3,0,0.7-0.1,0.9-0.3
	c0.3-0.2,0.5-0.4,0.6-0.7v-0.9c0-0.6-0.1-1.3-0.4-1.8c-0.3-0.4-0.7-0.6-1.2-0.6c-0.5,0-0.9,0.2-1.1,0.6c-0.3,0.5-0.5,1-0.4,1.6
	c0,0.5,0.1,1.1,0.4,1.5C42.5,15.1,42.9,15.4,43.4,15.3L43.4,15.3z"/>
<path class="st1" d="M20.7,20.8v-2.3H23v2.3"/>
<path class="st1" d="M27.2,20.8v-2.3h2.3v2.3"/>
<path class="st1" d="M33.6,20.8v-2.3h2.3v2.3"/>
</svg>
