<?xml version="1.0" encoding="utf-8"?>
<!-- Generator: Adobe Illustrator 23.0.6, SVG Export Plug-In . SVG Version: 6.00 Build 0)  -->
<svg version="1.1" id="Слой_1" xmlns="http://www.w3.org/2000/svg" xmlns:xlink="http://www.w3.org/1999/xlink" x="0px" y="0px"
	 width="30px" height="30px" viewBox="0 0 30 30" style="enable-background:new 0 0 30 30;" xml:space="preserve">
<style type="text/css">
	.st0{fill:#FFFFFF;}
	.st1{fill:#3E3D3F;}
</style>
<g id="Layer_2">
	<g>
		<path class="st0" d="M1.42,0h27.14c0.79,0,1.43,0.64,1.43,1.43v27.14c0,0.79-0.64,1.43-1.43,1.43H1.42
			c-0.79,0-1.43-0.64-1.43-1.43V1.43C-0.01,0.64,0.63,0,1.42,0z"/>
		<path class="st1" d="M19.02,20.85h-7.9v-1.56l3.73-3.97c0.43-0.45,0.81-0.94,1.13-1.46c0.23-0.36,0.36-0.77,0.37-1.19
			c0.03-0.44-0.11-0.87-0.38-1.2c-0.29-0.31-0.69-0.47-1.11-0.44c-0.46-0.01-0.91,0.19-1.2,0.54c-0.31,0.4-0.47,0.9-0.45,1.41H10.9
			c-0.01-0.67,0.17-1.34,0.51-1.92c0.33-0.58,0.83-1.05,1.42-1.36c0.64-0.34,1.36-0.52,2.08-0.51c0.99-0.06,1.98,0.24,2.76,0.86
			c0.67,0.62,1.03,1.5,0.98,2.41c-0.01,0.61-0.16,1.2-0.44,1.74c-0.41,0.75-0.92,1.45-1.52,2.07L14.08,19h4.95V20.85z"/>
	</g>
</g>
</svg>
