<?xml version="1.0" encoding="utf-8"?>
<!-- Generator: Adobe Illustrator 23.0.6, SVG Export Plug-In . SVG Version: 6.00 Build 0)  -->
<svg version="1.1" id="Слой_1" xmlns="http://www.w3.org/2000/svg" xmlns:xlink="http://www.w3.org/1999/xlink" x="0px" y="0px"
	 width="30px" height="30px" viewBox="0 0 30 30" style="enable-background:new 0 0 30 30;" xml:space="preserve">
<style type="text/css">
	.st0{fill:#FFFFFF;}
	.st1{fill:#3E3D3F;}
</style>
<g id="Layer_2">
	<g>
		<path class="st0" d="M1.43,0h27.14C29.36,0,30,0.64,30,1.43v27.14c0,0.79-0.64,1.43-1.43,1.43H1.43C0.64,30,0,29.36,0,28.57V1.43
			C0,0.64,0.64,0,1.43,0z"/>
		<path class="st1" d="M13.46,14.08h1.21c0.47,0.04,0.94-0.11,1.29-0.42c0.29-0.31,0.44-0.73,0.42-1.15
			c0.02-0.41-0.13-0.8-0.42-1.09c-0.32-0.27-0.73-0.41-1.14-0.38c-0.4-0.01-0.79,0.11-1.1,0.36c-0.29,0.22-0.46,0.57-0.45,0.94H11
			c0-0.58,0.17-1.14,0.51-1.61c0.34-0.49,0.81-0.88,1.36-1.12c0.6-0.28,1.26-0.41,1.92-0.4c1.03-0.06,2.05,0.25,2.86,0.88
			c0.69,0.6,1.06,1.49,1.01,2.4c-0.01,0.53-0.18,1.04-0.51,1.46c-0.33,0.44-0.76,0.79-1.27,1.01c0.58,0.19,1.09,0.55,1.45,1.05
			c0.33,0.49,0.49,1.06,0.48,1.65c0.03,0.94-0.38,1.85-1.11,2.44c-0.85,0.65-1.9,0.97-2.96,0.92c-1.02,0.04-2.02-0.28-2.82-0.91
			c-0.71-0.59-1.1-1.47-1.07-2.38h2.3c-0.01,0.41,0.18,0.8,0.51,1.06c0.34,0.28,0.76,0.42,1.2,0.41c0.46,0.01,0.9-0.15,1.24-0.46
			c0.31-0.3,0.48-0.71,0.47-1.14c0-1.15-0.63-1.72-1.9-1.72h-1.21V14.08z"/>
	</g>
</g>
</svg>
