<?xml version="1.0" encoding="utf-8"?>
<!-- Generator: Adobe Illustrator 23.0.6, SVG Export Plug-In . SVG Version: 6.00 Build 0)  -->
<svg version="1.1" id="Слой_1" xmlns="http://www.w3.org/2000/svg" xmlns:xlink="http://www.w3.org/1999/xlink" x="0px" y="0px"
	 width="30px" height="30px" viewBox="0 0 30 30" style="enable-background:new 0 0 30 30;" xml:space="preserve">
<style type="text/css">
	.st0{fill:#FFFFFF;}
	.st1{fill:#3E3D3F;}
</style>
<g id="Layer_2">
	<g>
		<path class="st0" d="M1.43,0h27.14C29.36,0,30,0.64,30,1.43v27.14c0,0.79-0.64,1.43-1.43,1.43H1.43C0.64,30,0,29.36,0,28.57V1.43
			C0,0.64,0.64,0,1.43,0z"/>
		<path class="st1" d="M11.48,15.18l0.67-5.85h6.45v1.91h-4.56l-0.28,2.48c0.53-0.29,1.13-0.44,1.73-0.44
			c0.97-0.05,1.91,0.32,2.58,1.01c0.66,0.8,1,1.82,0.94,2.85c0.02,0.7-0.15,1.4-0.47,2.02c-0.31,0.58-0.78,1.05-1.35,1.37
			c-0.64,0.34-1.35,0.52-2.07,0.51c-0.68-0.01-1.34-0.16-1.95-0.46c-0.57-0.26-1.06-0.67-1.41-1.19c-0.35-0.52-0.54-1.13-0.55-1.75
			h2.26c0.02,0.42,0.2,0.82,0.51,1.12c0.31,0.27,0.71,0.42,1.12,0.4c0.47,0.03,0.92-0.18,1.19-0.56c0.31-0.47,0.45-1.02,0.42-1.58
			c0.04-0.55-0.13-1.09-0.48-1.52c-0.36-0.36-0.86-0.54-1.37-0.51c-0.48-0.02-0.95,0.13-1.32,0.43l-0.22,0.2L11.48,15.18z"/>
	</g>
</g>
</svg>
