<?xml version="1.0" encoding="utf-8"?>
<!-- Generator: Adobe Illustrator 23.0.6, SVG Export Plug-In . SVG Version: 6.00 Build 0)  -->
<svg version="1.1" id="Слой_1" xmlns="http://www.w3.org/2000/svg" xmlns:xlink="http://www.w3.org/1999/xlink" x="0px" y="0px"
	 width="30px" height="30px" viewBox="0 0 30 30" style="enable-background:new 0 0 30 30;" xml:space="preserve">
<style type="text/css">
	.st0{fill:#FFFFFF;}
	.st1{fill:#3E3D3F;}
</style>
<g id="Layer_2">
	<g>
		<path class="st0" d="M1.43,0h27.14C29.36,0,30,0.64,30,1.43v27.14c0,0.79-0.64,1.43-1.43,1.43H1.43C0.64,30,0,29.36,0,28.57V1.43
			C0,0.64,0.64,0,1.43,0z"/>
		<path class="st1" d="M17.34,9.22v1.88h-0.22c-0.9-0.03-1.78,0.25-2.5,0.8c-0.65,0.55-1.06,1.33-1.14,2.18
			c0.61-0.62,1.45-0.95,2.32-0.92c0.92-0.04,1.81,0.36,2.39,1.08c0.62,0.81,0.94,1.81,0.89,2.83c0,0.71-0.17,1.4-0.51,2.02
			c-0.31,0.59-0.78,1.08-1.36,1.41c-0.62,0.35-1.32,0.52-2.02,0.51c-1.12,0.04-2.2-0.42-2.94-1.27c-0.78-0.95-1.18-2.15-1.11-3.38
			v-0.82c-0.02-1.14,0.22-2.28,0.71-3.31c0.44-0.92,1.14-1.7,2.02-2.22c0.93-0.54,2-0.81,3.07-0.79H17.34z M15.11,14.99
			c-0.36,0-0.71,0.1-1.01,0.29c-0.29,0.18-0.52,0.45-0.66,0.76v0.69c-0.04,0.63,0.12,1.25,0.45,1.79c0.48,0.69,1.42,0.87,2.11,0.39
			c0.13-0.09,0.25-0.2,0.34-0.33c0.32-0.44,0.48-0.98,0.46-1.52c0.03-0.54-0.14-1.08-0.46-1.52C16.04,15.18,15.58,14.97,15.11,14.99
			z"/>
	</g>
</g>
</svg>
