<?xml version="1.0" encoding="utf-8"?>
<!-- Generator: Adobe Illustrator 23.0.6, SVG Export Plug-In . SVG Version: 6.00 Build 0)  -->
<svg version="1.1" id="Слой_1" xmlns="http://www.w3.org/2000/svg" xmlns:xlink="http://www.w3.org/1999/xlink" x="0px" y="0px"
	 width="30px" height="30px" viewBox="0 0 30 30" style="enable-background:new 0 0 30 30;" xml:space="preserve">
<style type="text/css">
	.st0{fill:#FFFFFF;}
	.st1{fill:#3E3D3F;}
</style>
<g id="Layer_2">
	<g>
		<path class="st0" d="M1.55,0.12h27.02c0.79,0,1.43,0.64,1.43,1.43v27.02c0,0.79-0.64,1.43-1.43,1.43H1.55
			c-0.79,0-1.43-0.64-1.43-1.43V1.55C0.12,0.76,0.76,0.12,1.55,0.12z"/>
		<path class="st1" d="M18.69,12.47c0.01,0.52-0.14,1.04-0.42,1.48c-0.29,0.43-0.69,0.78-1.15,1.01c0.53,0.25,0.99,0.63,1.33,1.11
			c0.34,0.49,0.51,1.07,0.5,1.66c0.04,0.92-0.35,1.81-1.04,2.41c-0.8,0.63-1.81,0.94-2.83,0.88c-1.03,0.07-2.04-0.24-2.86-0.87
			c-0.69-0.6-1.08-1.48-1.04-2.39c-0.01-0.59,0.17-1.18,0.5-1.66c0.33-0.48,0.79-0.86,1.32-1.1c-0.46-0.23-0.86-0.58-1.14-1.01
			c-0.28-0.44-0.42-0.96-0.41-1.48c-0.04-0.88,0.32-1.74,0.97-2.33c0.74-0.62,1.69-0.93,2.66-0.87c0.96-0.05,1.91,0.26,2.65,0.86
			C18.37,10.75,18.72,11.6,18.69,12.47z M16.67,17.58c0.02-0.44-0.14-0.87-0.43-1.2c-0.31-0.31-0.73-0.47-1.17-0.45
			c-0.43-0.02-0.85,0.14-1.15,0.45c-0.3,0.32-0.46,0.76-0.43,1.2c-0.03,0.44,0.12,0.87,0.4,1.19c0.31,0.31,0.74,0.48,1.18,0.45
			c0.44,0.03,0.88-0.14,1.19-0.45c0.29-0.33,0.43-0.76,0.4-1.19H16.67z M16.44,12.58c0.02-0.39-0.11-0.78-0.36-1.08
			c-0.56-0.53-1.43-0.53-1.99,0c-0.25,0.31-0.38,0.69-0.35,1.09c-0.02,0.4,0.11,0.79,0.35,1.1c0.25,0.29,0.63,0.44,1.01,0.42
			c0.38,0.03,0.76-0.13,1.01-0.42c0.23-0.32,0.34-0.71,0.31-1.11L16.44,12.58z"/>
	</g>
</g>
</svg>
