<?xml version="1.0" encoding="utf-8"?>
<!-- Generator: Adobe Illustrator 23.0.6, SVG Export Plug-In . SVG Version: 6.00 Build 0)  -->
<svg version="1.1" id="Слой_1" xmlns="http://www.w3.org/2000/svg" xmlns:xlink="http://www.w3.org/1999/xlink" x="0px" y="0px"
	 width="31px" height="30px" viewBox="0 0 31 30" style="enable-background:new 0 0 31 30;" xml:space="preserve">
<style type="text/css">
	.st0{fill:#FFFFFF;}
	.st1{fill:#3E3D3F;}
</style>
<g id="Layer_2">
	<g>
		<path class="st0" d="M1.66,0H28.8c0.79,0,1.43,0.64,1.43,1.43v27.14c0,0.79-0.64,1.43-1.43,1.43H1.66c-0.79,0-1.43-0.64-1.43-1.43
			V1.43C0.23,0.64,0.87,0,1.66,0z"/>
		<path class="st1" d="M16.05,16.25c-0.55,0.56-1.3,0.88-2.09,0.88c-0.93,0.04-1.83-0.35-2.44-1.05c-0.65-0.79-0.97-1.8-0.92-2.82
			c0-0.72,0.17-1.44,0.51-2.08c0.31-0.61,0.79-1.12,1.38-1.47c0.6-0.35,1.29-0.52,1.99-0.51c0.72-0.01,1.42,0.18,2.02,0.57
			c0.61,0.4,1.09,0.97,1.38,1.64c0.34,0.77,0.52,1.6,0.51,2.44v0.83c0,1.92-0.48,3.43-1.43,4.53c-1.04,1.13-2.51,1.77-4.05,1.75
			h-0.56v-1.9h0.51C14.82,18.96,15.89,18.02,16.05,16.25z M14.53,15.38c0.34,0.01,0.68-0.09,0.96-0.28c0.25-0.18,0.46-0.41,0.6-0.69
			v-0.94c0.04-0.64-0.12-1.27-0.45-1.82c-0.26-0.4-0.71-0.65-1.19-0.64c-0.46,0-0.89,0.24-1.13,0.64c-0.31,0.47-0.46,1.02-0.44,1.58
			c-0.02,0.55,0.13,1.09,0.44,1.54c0.27,0.39,0.72,0.62,1.2,0.61H14.53z"/>
	</g>
</g>
</svg>
