<?xml version="1.0" encoding="utf-8"?>
<!-- Generator: Adobe Illustrator 23.0.6, SVG Export Plug-In . SVG Version: 6.00 Build 0)  -->
<svg version="1.1" id="Слой_1" xmlns="http://www.w3.org/2000/svg" xmlns:xlink="http://www.w3.org/1999/xlink" x="0px" y="0px"
	 width="42px" height="30px" viewBox="0 0 42 30" style="enable-background:new 0 0 42 30;" xml:space="preserve">
<style type="text/css">
	.st0{fill:#FFFFFF;}
	.st1{fill:#3E3D3F;}
</style>
<g id="Layer_2">
	<g>
		<path class="st0" d="M1.57,0H40.4c0.79,0,1.43,0.64,1.43,1.43v27.15c0,0.79-0.64,1.43-1.43,1.43H1.57c-0.79,0-1.43-0.64-1.43-1.43
			V1.43C0.15,0.64,0.79,0,1.57,0z"/>
		<path class="st1" d="M18.63,17.51h-3.5l-0.66,1.99h-2.12l3.6-9.67h1.83l3.62,9.67H19.3L18.63,17.51z M15.67,15.89h2.42l-1.21-3.62
			L15.67,15.89z"/>
		<path class="st1" d="M24.23,19.5h-1.9V9.29h1.93L24.23,19.5z"/>
		<path class="st1" d="M28.11,10.54v1.77h1.23v1.41h-1.23v3.59c-0.02,0.2,0.03,0.4,0.15,0.57c0.16,0.14,0.37,0.2,0.58,0.18
			c0.19,0,0.38-0.01,0.56-0.05v1.46c-0.38,0.12-0.77,0.18-1.16,0.18c-1.34,0-2.03-0.68-2.06-2.04v-3.88h-1.05v-1.41h1.05v-1.77
			H28.11z"/>
	</g>
</g>
</svg>
