<?xml version="1.0" encoding="utf-8"?>
<!-- Generator: Adobe Illustrator 23.0.6, SVG Export Plug-In . SVG Version: 6.00 Build 0)  -->
<svg version="1.1" id="Слой_1" xmlns="http://www.w3.org/2000/svg" xmlns:xlink="http://www.w3.org/1999/xlink" x="0px" y="0px"
	 width="47px" height="30px" viewBox="0 0 47 30" style="enable-background:new 0 0 47 30;" xml:space="preserve">
<style type="text/css">
	.st0{fill:#FFFFFF;}
	.st1{fill:#3E3D3F;}
</style>
<g id="Layer_2">
	<g>
		<path class="st0" d="M1.44,15.68h12.17c0.59,0,1.07,0.48,1.07,1.07v12.17c0,0.59-0.48,1.07-1.07,1.07H1.44
			c-0.59,0-1.07-0.48-1.07-1.07V16.76C0.37,16.16,0.85,15.68,1.44,15.68z"/>
		<polygon class="st1" points="8.8,19.3 5.26,22.84 8.8,26.38 9.8,25.38 7.26,22.84 9.8,20.31 		"/>
		<path class="st0" d="M33.03,15.68H45.2c0.59,0,1.07,0.48,1.07,1.07v12.17c0,0.59-0.48,1.07-1.07,1.07H33.03
			c-0.59,0-1.07-0.48-1.07-1.07V16.76C31.95,16.16,32.43,15.68,33.03,15.68z"/>
		<polygon class="st1" points="37.84,26.38 41.38,22.84 37.84,19.3 36.84,20.31 39.37,22.84 36.84,25.38 		"/>
		<path class="st0" d="M17.4,15.68h12.17c0.59,0,1.07,0.48,1.07,1.07v12.17c0,0.59-0.48,1.07-1.07,1.07H17.4
			c-0.59,0-1.07-0.48-1.07-1.07V16.76C16.33,16.16,16.81,15.68,17.4,15.68z"/>
		<polygon class="st1" points="19.94,21.57 23.48,25.12 27.03,21.57 26.02,20.57 23.48,23.1 20.95,20.57 		"/>
		<path class="st0" d="M17.53,0H29.7c0.59,0,1.07,0.48,1.07,1.07v12.17c0,0.59-0.48,1.07-1.07,1.07H17.53
			c-0.59,0-1.07-0.48-1.07-1.07V1.07C16.45,0.48,16.93,0,17.53,0z"/>
		<polygon class="st1" points="27.03,8.43 23.48,4.89 19.94,8.43 20.95,9.43 23.48,6.9 26.02,9.43 		"/>
	</g>
</g>
</svg>
