<?xml version="1.0" encoding="utf-8"?>
<!-- Generator: Adobe Illustrator 23.0.6, SVG Export Plug-In . SVG Version: 6.00 Build 0)  -->
<svg version="1.1" id="Слой_1" xmlns="http://www.w3.org/2000/svg" xmlns:xlink="http://www.w3.org/1999/xlink" x="0px" y="0px"
	 width="31px" height="30px" viewBox="0 0 31 30" style="enable-background:new 0 0 31 30;" xml:space="preserve">
<style type="text/css">
	.st0{fill:#FFFFFF;}
	.st1{fill:#3E3D3F;}
</style>
<g id="Layer_2">
	<g>
		<path class="st0" d="M1.43,0h27.14C29.36,0,30,0.64,30,1.43v27.14c0,0.79-0.64,1.43-1.43,1.43H1.43C0.64,30,0,29.36,0,28.57V1.43
			C0,0.64,0.64,0,1.43,0z"/>
		<path class="st1" d="M10.39,20.25V8.74h4.05c1.4,0,2.46,0.27,3.18,0.8c0.73,0.56,1.14,1.44,1.08,2.35
			c0.01,0.53-0.14,1.05-0.44,1.49c-0.3,0.43-0.72,0.76-1.21,0.95c0.55,0.13,1.05,0.44,1.4,0.89c0.35,0.48,0.52,1.06,0.51,1.65
			c0.07,0.96-0.32,1.9-1.06,2.53c-0.88,0.63-1.96,0.93-3.04,0.87L10.39,20.25z M12.76,13.55h1.76c1.2-0.02,1.8-0.5,1.8-1.43
			c0.04-0.43-0.13-0.85-0.46-1.13c-0.43-0.26-0.93-0.38-1.43-0.34h-1.67L12.76,13.55z M12.76,15.24v3.11h2.02
			c0.47,0.03,0.94-0.12,1.31-0.4c0.32-0.28,0.49-0.68,0.47-1.1c0-1.06-0.55-1.59-1.64-1.6L12.76,15.24z"/>
	</g>
</g>
</svg>
