<?xml version="1.0" encoding="utf-8"?>
<!-- Generator: Adobe Illustrator 23.0.6, SVG Export Plug-In . SVG Version: 6.00 Build 0)  -->
<svg version="1.1" id="Слой_1" xmlns="http://www.w3.org/2000/svg" xmlns:xlink="http://www.w3.org/1999/xlink" x="0px" y="0px"
	 width="98px" height="30px" viewBox="0 0 98 30" style="enable-background:new 0 0 98 30;" xml:space="preserve">
<style type="text/css">
	.st0{fill:#FFFFFF;}
	.st1{fill:#3E3D3F;}
</style>
<g id="Layer_2">
	<g>
		<path class="st0" d="M2.18,0h93.88c0.79,0,1.43,0.64,1.43,1.43v27.15c0,0.79-0.64,1.43-1.43,1.43H2.18
			c-0.79,0-1.43-0.64-1.43-1.43V1.43C0.76,0.64,1.39,0,2.18,0z"/>
		<path class="st1" d="M16.61,18.97V9.3H20c0.94-0.06,1.88,0.17,2.67,0.68c0.61,0.47,0.95,1.21,0.91,1.98
			c0.01,0.44-0.12,0.88-0.36,1.25c-0.25,0.36-0.6,0.64-1.01,0.8c0.47,0.11,0.88,0.37,1.17,0.75c0.29,0.4,0.43,0.88,0.42,1.38
			c0.06,0.8-0.26,1.59-0.87,2.12c-0.73,0.52-1.62,0.78-2.52,0.73H16.61z M18.63,13.35h1.48c1.01,0,1.51-0.42,1.51-1.2
			c0.04-0.36-0.11-0.71-0.38-0.94c-0.36-0.22-0.78-0.33-1.2-0.29h-1.42L18.63,13.35z M18.63,14.77v2.61h1.71
			c0.39,0.02,0.77-0.1,1.08-0.34c0.26-0.23,0.4-0.57,0.39-0.91c0-0.89-0.46-1.34-1.38-1.35L18.63,14.77z"/>
		<path class="st1" d="M29.34,18.97c-0.1-0.2-0.16-0.42-0.19-0.65c-0.46,0.52-1.12,0.8-1.81,0.78c-0.64,0.02-1.27-0.2-1.75-0.61
			c-0.45-0.38-0.7-0.95-0.69-1.54c-0.04-0.69,0.28-1.35,0.85-1.75c0.73-0.45,1.59-0.67,2.45-0.62h0.88v-0.41
			c0.01-0.29-0.08-0.57-0.26-0.8c-0.21-0.21-0.51-0.32-0.81-0.3c-0.27-0.02-0.54,0.07-0.76,0.23c-0.19,0.16-0.29,0.39-0.28,0.63
			h-1.92c0.01-0.42,0.15-0.82,0.41-1.15c0.28-0.37,0.66-0.66,1.09-0.83c0.5-0.21,1.04-0.31,1.58-0.3c0.76-0.04,1.51,0.2,2.11,0.67
			c0.53,0.48,0.81,1.17,0.77,1.88v3.11c-0.03,0.53,0.07,1.06,0.29,1.55v0.11H29.34z M27.75,17.64c0.27,0,0.54-0.06,0.78-0.19
			c0.22-0.11,0.41-0.29,0.53-0.5v-1.24h-0.72c-0.96,0-1.48,0.33-1.51,1.01v0.11c-0.01,0.22,0.09,0.44,0.25,0.59
			C27.27,17.57,27.51,17.65,27.75,17.64z"/>
		<path class="st1" d="M35.45,17.56c0.31,0.01,0.62-0.09,0.87-0.29c0.22-0.2,0.35-0.48,0.34-0.78h1.8c0,0.48-0.15,0.94-0.41,1.34
			c-0.26,0.41-0.64,0.73-1.07,0.94c-0.47,0.23-0.99,0.35-1.51,0.34c-0.92,0.04-1.81-0.33-2.43-1.01c-0.63-0.76-0.94-1.72-0.89-2.71
			v-0.13c-0.05-0.96,0.26-1.91,0.88-2.65c0.62-0.68,1.51-1.05,2.42-1.01c0.79-0.04,1.57,0.24,2.16,0.77
			c0.55,0.53,0.85,1.27,0.83,2.04h-1.77c0.01-0.34-0.12-0.66-0.34-0.91c-0.52-0.49-1.33-0.46-1.82,0.06
			c-0.03,0.03-0.05,0.06-0.07,0.09c-0.27,0.48-0.39,1.04-0.34,1.59v0.2c-0.04,0.55,0.07,1.11,0.34,1.6
			C34.65,17.38,35.04,17.58,35.45,17.56z"/>
		<path class="st1" d="M42.17,16.09l-0.69,0.69v2.19h-1.92V8.77h1.92v5.65l0.37-0.48l1.84-2.16H46l-2.6,3l2.82,4.19h-2.2
			L42.17,16.09z"/>
		<path class="st1" d="M50.72,16.99c0-0.24-0.14-0.45-0.35-0.55c-0.35-0.18-0.73-0.3-1.12-0.36c-1.71-0.36-2.56-1.09-2.57-2.18
			c0-0.63,0.29-1.22,0.8-1.6c0.6-0.45,1.33-0.68,2.08-0.64c0.78-0.04,1.55,0.18,2.19,0.64c0.53,0.39,0.84,1.02,0.82,1.68h-1.92
			c0.01-0.25-0.09-0.5-0.27-0.68c-0.23-0.2-0.53-0.3-0.83-0.27c-0.27-0.02-0.53,0.06-0.75,0.22c-0.17,0.13-0.27,0.34-0.27,0.55
			c0,0.21,0.12,0.4,0.3,0.5c0.31,0.17,0.66,0.28,1.01,0.34c0.41,0.08,0.82,0.18,1.21,0.32c1.01,0.37,1.51,1.01,1.51,1.93
			c0.01,0.64-0.31,1.24-0.84,1.59c-0.64,0.43-1.41,0.64-2.18,0.61c-0.55,0.01-1.1-0.1-1.6-0.32c-0.44-0.19-0.82-0.5-1.1-0.88
			c-0.26-0.35-0.4-0.78-0.4-1.21h1.82c0,0.31,0.14,0.59,0.38,0.78c0.28,0.19,0.61,0.29,0.94,0.27c0.29,0.02,0.59-0.05,0.84-0.21
			C50.6,17.4,50.72,17.21,50.72,16.99z"/>
		<path class="st1" d="M60.3,15.45c0.05,0.95-0.22,1.88-0.76,2.66c-0.46,0.65-1.22,1.03-2.02,1.01c-0.67,0.02-1.32-0.25-1.76-0.76
			v3.39h-1.94v-9.96h1.78l0.07,0.71c0.44-0.55,1.12-0.86,1.82-0.84c0.81-0.04,1.58,0.33,2.07,0.98c0.54,0.8,0.8,1.75,0.74,2.71
			V15.45z M58.38,15.31c0.03-0.54-0.09-1.08-0.36-1.55c-0.22-0.35-0.6-0.55-1.01-0.54c-0.52-0.05-1.01,0.23-1.24,0.7v2.94
			c0.23,0.47,0.73,0.75,1.26,0.71C57.93,17.56,58.38,16.81,58.38,15.31z"/>
		<path class="st1" d="M65.65,18.97c-0.1-0.2-0.16-0.42-0.19-0.65c-0.46,0.52-1.12,0.8-1.81,0.78c-0.64,0.02-1.27-0.2-1.75-0.61
			c-0.45-0.38-0.71-0.95-0.7-1.54c-0.04-0.69,0.28-1.35,0.85-1.75c0.73-0.45,1.59-0.67,2.45-0.62h0.88v-0.41
			c0.01-0.29-0.08-0.57-0.26-0.8c-0.21-0.21-0.51-0.32-0.81-0.3c-0.27-0.02-0.54,0.07-0.76,0.23c-0.18,0.16-0.28,0.39-0.27,0.63
			h-1.92c0-0.42,0.13-0.82,0.38-1.15c0.28-0.37,0.66-0.66,1.09-0.83c0.5-0.21,1.04-0.31,1.58-0.3c0.76-0.04,1.51,0.2,2.11,0.67
			c0.53,0.48,0.82,1.17,0.78,1.88v3.11c-0.03,0.53,0.07,1.06,0.29,1.55v0.11H65.65z M64.06,17.64c0.27,0,0.54-0.06,0.79-0.19
			c0.21-0.12,0.39-0.29,0.5-0.5v-1.24h-0.72c-0.96,0-1.47,0.33-1.51,1.01v0.11c0,0.22,0.09,0.44,0.25,0.59
			C63.57,17.58,63.81,17.65,64.06,17.64z"/>
		<path class="st1" d="M71.77,17.56c0.32,0.01,0.62-0.09,0.87-0.29c0.22-0.2,0.35-0.48,0.34-0.78h1.8c0,0.48-0.14,0.94-0.4,1.34
			c-0.26,0.41-0.62,0.73-1.05,0.94c-0.47,0.23-0.99,0.35-1.51,0.34c-0.92,0.04-1.81-0.33-2.43-1.01c-0.63-0.76-0.94-1.72-0.89-2.71
			v-0.13c-0.05-0.96,0.26-1.91,0.88-2.65c0.62-0.68,1.51-1.05,2.42-1.01c0.79-0.04,1.57,0.24,2.16,0.77
			c0.55,0.53,0.86,1.27,0.83,2.04h-1.8c0.01-0.34-0.12-0.66-0.34-0.91c-0.52-0.49-1.33-0.46-1.82,0.06
			c-0.03,0.03-0.05,0.06-0.07,0.09c-0.27,0.48-0.39,1.04-0.34,1.59v0.2c-0.04,0.55,0.07,1.11,0.34,1.6
			C70.97,17.37,71.36,17.58,71.77,17.56z"/>
		<path class="st1" d="M79.19,19.11c-0.95,0.04-1.88-0.31-2.58-0.97c-0.68-0.68-1.05-1.62-1.01-2.59v-0.19
			c-0.01-0.67,0.13-1.33,0.42-1.94c0.26-0.55,0.68-1.02,1.2-1.34c0.53-0.31,1.13-0.47,1.75-0.46c0.88-0.04,1.73,0.31,2.32,0.96
			c0.6,0.74,0.91,1.68,0.85,2.64v0.79h-4.58c0.05,0.43,0.24,0.82,0.56,1.11c0.33,0.29,0.75,0.44,1.19,0.43
			c0.67,0.03,1.32-0.27,1.73-0.81l0.94,1.06c-0.3,0.42-0.7,0.75-1.17,0.95C80.31,19,79.75,19.12,79.19,19.11z M78.96,13.2
			c-0.35-0.01-0.69,0.13-0.93,0.39c-0.26,0.31-0.42,0.7-0.45,1.1h2.67v-0.15c0.02-0.37-0.11-0.73-0.35-1.01
			C79.65,13.3,79.31,13.18,78.96,13.2z"/>
	</g>
</g>
</svg>
