<?xml version="1.0" encoding="utf-8"?>
<!-- Generator: Adobe Illustrator 23.0.6, SVG Export Plug-In . SVG Version: 6.00 Build 0)  -->
<svg version="1.1" id="Слой_1" xmlns="http://www.w3.org/2000/svg" xmlns:xlink="http://www.w3.org/1999/xlink" x="0px" y="0px"
	 width="30px" height="30px" viewBox="0 0 30 30" style="enable-background:new 0 0 30 30;" xml:space="preserve">
<style type="text/css">
	.st0{fill:#FFFFFF;}
	.st1{fill:#3E3D3F;}
</style>
<g id="Layer_2">
	<g>
		<path class="st0" d="M1.43,0h27.14C29.36,0,30,0.64,30,1.43v27.14c0,0.79-0.64,1.43-1.43,1.43H1.43C0.64,30,0,29.36,0,28.57V1.43
			C0,0.64,0.64,0,1.43,0z"/>
		<path class="st1" d="M18.55,16.41c-0.03,1.12-0.53,2.18-1.37,2.93c-0.92,0.74-2.08,1.12-3.26,1.06c-1.33,0.06-2.61-0.48-3.48-1.49
			c-0.84-0.99-1.27-2.36-1.27-4.09v-0.7c-0.02-1.01,0.18-2,0.59-2.93c0.35-0.8,0.93-1.47,1.67-1.94c0.76-0.46,1.64-0.7,2.53-0.68
			c1.17-0.06,2.31,0.32,3.21,1.07c0.84,0.78,1.35,1.86,1.41,3.01H16.2c0-0.6-0.22-1.17-0.62-1.61c-0.46-0.37-1.04-0.55-1.62-0.51
			c-0.7-0.04-1.37,0.28-1.78,0.85c-0.45,0.8-0.67,1.72-0.61,2.64v0.86c-0.06,0.95,0.14,1.89,0.58,2.73c0.4,0.59,1.08,0.92,1.78,0.87
			c0.59,0.05,1.18-0.13,1.65-0.51c0.4-0.42,0.62-0.98,0.62-1.55H18.55z"/>
	</g>
</g>
</svg>
