<?xml version="1.0" encoding="utf-8"?>
<!-- Generator: Adobe Illustrator 23.0.6, SVG Export Plug-In . SVG Version: 6.00 Build 0)  -->
<svg version="1.1" id="Слой_1" xmlns="http://www.w3.org/2000/svg" xmlns:xlink="http://www.w3.org/1999/xlink" x="0px" y="0px"
	 width="42px" height="30px" viewBox="0 0 42 30" style="enable-background:new 0 0 42 30;" xml:space="preserve">
<style type="text/css">
	.st0{fill:#FFFFFF;}
	.st1{fill:#3E3D3F;}
</style>
<g id="Layer_2">
	<g>
		<path class="st0" d="M1.72,0h38.85C41.36,0,42,0.64,42,1.43v27.16c0,0.79-0.64,1.43-1.43,1.43H1.72c-0.79,0-1.43-0.64-1.43-1.43
			V1.43C0.29,0.64,0.93,0,1.72,0z"/>
		<path class="st1" d="M17.87,16.29c-0.03,0.94-0.45,1.83-1.15,2.46c-0.77,0.63-1.75,0.96-2.74,0.92c-1.12,0.05-2.2-0.41-2.92-1.26
			c-0.76-0.98-1.14-2.2-1.07-3.44v-0.62c-0.01-0.85,0.16-1.68,0.5-2.46c0.3-0.67,0.79-1.24,1.41-1.63c0.64-0.39,1.38-0.58,2.13-0.57
			c0.97-0.04,1.93,0.27,2.68,0.89c0.71,0.65,1.13,1.56,1.19,2.52h-2.02c0-0.5-0.18-0.98-0.5-1.36c-0.38-0.31-0.87-0.46-1.37-0.42
			c-0.6-0.04-1.17,0.23-1.51,0.72c-0.38,0.68-0.55,1.45-0.5,2.22v0.73c-0.06,0.79,0.11,1.59,0.47,2.29c0.34,0.5,0.92,0.77,1.51,0.72
			c0.5,0.04,0.99-0.11,1.38-0.42c0.33-0.36,0.51-0.82,0.5-1.31L17.87,16.29z"/>
		<path class="st1" d="M21.36,10.55v1.77h1.23v1.41h-1.23v3.59c-0.02,0.2,0.03,0.4,0.15,0.57c0.16,0.14,0.37,0.2,0.58,0.18
			c0.19,0,0.38-0.01,0.56-0.05v1.46c-0.38,0.13-0.78,0.19-1.19,0.2c-1.34,0-2.02-0.69-2.02-2.06v-3.88h-1.07v-1.41h1.07v-1.77H21.36
			z"/>
		<path class="st1" d="M27.69,14.12c-0.22-0.03-0.45-0.05-0.68-0.06c-0.58-0.08-1.15,0.22-1.43,0.74v4.7h-1.94v-7.19h1.82l0.05,0.86
			c0.3-0.61,0.92-1.01,1.6-1.01c0.2,0,0.41,0.03,0.6,0.09L27.69,14.12z"/>
		<path class="st1" d="M30.65,19.51h-1.93V9.3h1.93V19.51z"/>
	</g>
</g>
</svg>
