<?xml version="1.0" encoding="utf-8"?>
<!-- Generator: Adobe Illustrator 23.0.6, SVG Export Plug-In . SVG Version: 6.00 Build 0)  -->
<svg version="1.1" id="Слой_1" xmlns="http://www.w3.org/2000/svg" xmlns:xlink="http://www.w3.org/1999/xlink" x="0px" y="0px"
	 width="31px" height="30px" viewBox="0 0 31 30" style="enable-background:new 0 0 31 30;" xml:space="preserve">
<style type="text/css">
	.st0{fill:#FFFFFF;}
	.st1{fill:#3E3D3F;}
</style>
<g id="Layer_2">
	<g>
		<path class="st0" d="M1.57,0h27.14c0.79,0,1.43,0.64,1.43,1.43v27.14c0,0.79-0.64,1.43-1.43,1.43H1.57
			c-0.79,0-1.43-0.64-1.43-1.43V1.43C0.14,0.64,0.78,0,1.57,0z"/>
		<path class="st1" d="M10.91,19.74V8.22h3.54c0.95-0.02,1.89,0.22,2.72,0.68c0.8,0.45,1.45,1.13,1.87,1.94
			c0.46,0.89,0.69,1.87,0.67,2.87v0.51c0.02,0.99-0.21,1.97-0.66,2.86c-0.42,0.81-1.07,1.48-1.86,1.93
			c-0.82,0.48-1.76,0.73-2.71,0.72H10.91z M13.3,10.12v7.7h1.14c0.81,0.05,1.6-0.29,2.13-0.91c0.53-0.76,0.8-1.68,0.75-2.6v-0.61
			c0.07-0.94-0.19-1.88-0.73-2.66c-0.53-0.63-1.32-0.98-2.15-0.92H13.3z"/>
	</g>
</g>
</svg>
