<?xml version="1.0" encoding="utf-8"?>
<!-- Generator: Adobe Illustrator 23.0.6, SVG Export Plug-In . SVG Version: 6.00 Build 0)  -->
<svg version="1.1" id="Слой_1" xmlns="http://www.w3.org/2000/svg" xmlns:xlink="http://www.w3.org/1999/xlink" x="0px" y="0px"
	 width="42px" height="30px" viewBox="0 0 42 30" style="enable-background:new 0 0 42 30;" xml:space="preserve">
<style type="text/css">
	.st0{fill:#FFFFFF;}
	.st1{fill:#3E3D3F;}
</style>
<g id="Layer_2">
	<g>
		<path class="st0" d="M1.71,0h38.83c0.79,0,1.43,0.64,1.43,1.43v27.15c0,0.79-0.64,1.43-1.43,1.43H1.71
			c-0.79,0-1.43-0.64-1.43-1.43V1.43C0.28,0.64,0.92,0,1.71,0z"/>
		<path class="st1" d="M13.89,19.5V9.83h2.98c0.8-0.02,1.59,0.18,2.28,0.57c0.67,0.38,1.22,0.95,1.57,1.63
			c0.39,0.74,0.58,1.57,0.56,2.41v0.44c0.01,0.83-0.18,1.66-0.55,2.4c-0.35,0.68-0.9,1.25-1.57,1.63c-0.7,0.39-1.48,0.59-2.28,0.58
			H13.89z M15.91,11.43v6.46h0.96c0.67,0.03,1.32-0.25,1.76-0.76c0.45-0.64,0.67-1.41,0.63-2.19v-0.5c0.06-0.79-0.16-1.58-0.61-2.23
			c-0.44-0.52-1.11-0.81-1.79-0.76L15.91,11.43z"/>
		<path class="st1" d="M25.91,19.65c-0.96,0.03-1.89-0.34-2.58-1.01c-0.68-0.68-1.05-1.62-1.01-2.59v-0.19
			c-0.01-0.67,0.13-1.33,0.42-1.94c0.27-0.55,0.7-1,1.22-1.3c0.53-0.31,1.14-0.47,1.75-0.46c0.86-0.03,1.69,0.3,2.28,0.93
			c0.61,0.74,0.91,1.68,0.85,2.64v0.79h-4.56c0.05,0.42,0.25,0.82,0.56,1.11c0.33,0.29,0.75,0.44,1.19,0.42
			c0.67,0.03,1.32-0.27,1.73-0.8l0.94,1.05c-0.3,0.42-0.7,0.75-1.17,0.96C27.03,19.52,26.48,19.65,25.91,19.65z M25.69,13.74
			c-0.35-0.01-0.69,0.13-0.93,0.39c-0.26,0.32-0.42,0.7-0.45,1.11h2.69v-0.15c0.02-0.37-0.11-0.73-0.35-1.01
			c-0.25-0.25-0.6-0.38-0.96-0.36V13.74z"/>
		<path class="st1" d="M31.98,19.5h-1.93V9.29h1.93V19.5z"/>
	</g>
</g>
</svg>
