<?xml version="1.0" encoding="utf-8"?>
<!-- Generator: Adobe Illustrator 23.0.4, SVG Export Plug-In . SVG Version: 6.00 Build 0)  -->
<svg version="1.1" id="Слой_1" xmlns="http://www.w3.org/2000/svg" xmlns:xlink="http://www.w3.org/1999/xlink" x="0px" y="0px"
	 width="41.5px" height="30px" viewBox="0 0 41.5 30" style="enable-background:new 0 0 41.5 30;" xml:space="preserve">
<style type="text/css">
	.st0{fill:#FFFFFF;}
	.st1{fill:#3E3D3F;}
</style>
<g id="Layer_2">
	<g>
		<path class="st0" d="M1.4,0.1h38.7c0.8,0,1.4,0.6,1.4,1.4v27c0,0.8-0.6,1.4-1.4,1.4H1.4C0.6,30,0,29.4,0,28.6v-27
			C0,0.8,0.6,0.1,1.4,0.1z"/>
		<path class="st1" d="M16,14.8h-3.8v2.6h4.5V19h-6.5V9.4h6.5V11h-4.5v2.3H16V14.8z"/>
		<path class="st1" d="M19.5,11.9l0.1,0.8c0.5-0.6,1.3-1,2.1-0.9c0.6-0.1,1.3,0.2,1.7,0.7c0.4,0.6,0.6,1.3,0.6,2V19h-1.9v-4.6
			c0-0.3-0.1-0.6-0.3-0.9c-0.2-0.2-0.6-0.3-0.9-0.3c-0.5,0-1,0.3-1.2,0.7v5h-1.9v-7.1H19.5z"/>
		<path class="st1" d="M25,15.4c-0.1-0.9,0.2-1.9,0.8-2.7c0.5-0.7,1.2-1,2.1-1c0.7,0,1.3,0.3,1.7,0.8V8.9h1.9V19h-1.7l-0.1-0.8
			c-0.4,0.6-1.1,0.9-1.8,0.9c-0.8,0-1.5-0.4-2-1C25.2,17.3,24.9,16.4,25,15.4z M26.9,15.5c0,0.5,0.1,1.1,0.4,1.5
			c0.2,0.3,0.6,0.6,1,0.5c0.5,0,1-0.3,1.3-0.8V14c-0.2-0.5-0.7-0.8-1.2-0.8C27.4,13.3,26.9,14,26.9,15.5z"/>
	</g>
</g>
</svg>
