<?xml version="1.0" encoding="utf-8"?>
<!-- Generator: Adobe Illustrator 23.0.6, SVG Export Plug-In . SVG Version: 6.00 Build 0)  -->
<svg version="1.1" id="Слой_1" xmlns="http://www.w3.org/2000/svg" xmlns:xlink="http://www.w3.org/1999/xlink" x="0px" y="0px"
	 width="34px" height="30px" viewBox="0 0 34 30" style="enable-background:new 0 0 34 30;" xml:space="preserve">
<style type="text/css">
	.st0{fill:#FFFFFF;}
	.st1{fill:#3E3D3F;}
</style>
<g id="Layer_2">
	<g>
		<path class="st0" d="M15.52,0h17.44c0.6,0,1.09,0.49,1.09,1.09v27.82c0,0.6-0.49,1.09-1.09,1.09H15.52c-0.6,0-1.09-0.49-1.09-1.09
			V1.09C14.43,0.49,14.92,0,15.52,0z"/>
		<path class="st0" d="M1.17,10.02h17.44c0.6,0,1.09,0.49,1.09,1.09v17.79c0,0.6-0.49,1.09-1.09,1.09H1.17
			c-0.6,0-1.09-0.49-1.09-1.09V11.12C0.08,10.51,0.57,10.02,1.17,10.02z"/>
		<polygon class="st1" points="16,16.08 12.4,19.68 16,23.28 17.02,22.26 14.44,19.68 17.02,17.1 		"/>
		<rect x="17.38" y="18.96" class="st1" width="7.2" height="1.44"/>
		<rect x="23.13" y="12.48" class="st1" width="1.44" height="7.92"/>
	</g>
</g>
</svg>
