<?xml version="1.0" encoding="utf-8"?>
<!-- Generator: Adobe Illustrator 23.0.6, SVG Export Plug-In . SVG Version: 6.00 Build 0)  -->
<svg version="1.1" id="Слой_1" xmlns="http://www.w3.org/2000/svg" xmlns:xlink="http://www.w3.org/1999/xlink" x="0px" y="0px"
	 width="73px" height="30px" viewBox="0 0 73 30" style="enable-background:new 0 0 73 30;" xml:space="preserve">
<style type="text/css">
	.st0{fill:#FFFFFF;}
	.st1{fill:#3E3D3F;}
</style>
<g id="Layer_2">
	<g>
		<path class="st0" d="M1.51,0h69.45c0.79,0,1.43,0.64,1.43,1.43v27.15c0,0.79-0.64,1.43-1.43,1.43H1.51
			c-0.79,0-1.43-0.64-1.43-1.43V1.43C0.09,0.64,0.72,0,1.51,0z"/>
		<path class="st1" d="M20.89,14.79h-3.82v2.59h4.49v1.6h-6.48V9.3h6.47v1.61h-4.48v2.31h3.82V14.79z"/>
		<path class="st1" d="M26.5,16.99c0-0.24-0.14-0.45-0.35-0.55c-0.35-0.18-0.73-0.3-1.12-0.36c-1.71-0.36-2.56-1.09-2.56-2.18
			c0-0.63,0.29-1.22,0.8-1.6c0.6-0.45,1.33-0.68,2.08-0.64c0.78-0.04,1.55,0.18,2.19,0.64c0.53,0.39,0.84,1.02,0.82,1.68h-1.93
			c0.01-0.25-0.08-0.5-0.26-0.68c-0.23-0.2-0.53-0.3-0.83-0.27c-0.27-0.02-0.53,0.06-0.75,0.22c-0.17,0.13-0.27,0.34-0.27,0.56
			c0,0.21,0.12,0.4,0.3,0.5c0.31,0.17,0.65,0.28,1.01,0.34c0.41,0.08,0.82,0.18,1.21,0.32c1.01,0.37,1.51,1.01,1.51,1.94
			c0.01,0.64-0.31,1.24-0.84,1.59c-0.64,0.43-1.41,0.64-2.18,0.61c-0.55,0.01-1.1-0.1-1.6-0.32c-0.44-0.19-0.82-0.5-1.1-0.88
			c-0.24-0.35-0.37-0.78-0.36-1.2h1.82c0,0.31,0.14,0.6,0.38,0.79c0.28,0.19,0.61,0.29,0.94,0.27c0.29,0.02,0.59-0.05,0.84-0.21
			C26.41,17.41,26.5,17.2,26.5,16.99z"/>
		<path class="st1" d="M32.59,17.56c0.31,0.01,0.62-0.09,0.86-0.29c0.22-0.2,0.35-0.48,0.35-0.78h1.8c0,0.48-0.14,0.94-0.4,1.34
			c-0.26,0.41-0.63,0.73-1.07,0.94c-0.47,0.23-0.99,0.35-1.51,0.34c-0.92,0.04-1.81-0.33-2.43-1.01c-0.62-0.75-0.93-1.71-0.87-2.68
			v-0.13c-0.05-0.96,0.27-1.91,0.88-2.65c0.62-0.68,1.51-1.05,2.43-1.01c0.79-0.04,1.57,0.24,2.16,0.77
			c0.55,0.53,0.85,1.27,0.83,2.04H33.8c0-0.34-0.12-0.66-0.35-0.91c-0.52-0.49-1.33-0.46-1.82,0.06c-0.03,0.03-0.05,0.06-0.07,0.09
			c-0.27,0.48-0.38,1.04-0.34,1.59v0.2c-0.04,0.55,0.07,1.11,0.34,1.6C31.79,17.39,32.18,17.59,32.59,17.56z"/>
		<path class="st1" d="M40.86,18.97c-0.1-0.2-0.16-0.42-0.19-0.64c-0.46,0.51-1.12,0.8-1.81,0.78c-0.64,0.02-1.26-0.19-1.75-0.61
			c-0.45-0.38-0.71-0.95-0.7-1.54c-0.04-0.69,0.28-1.35,0.85-1.75c0.73-0.45,1.59-0.67,2.45-0.62h0.88v-0.41
			c0.01-0.29-0.08-0.57-0.26-0.8c-0.21-0.21-0.51-0.32-0.81-0.3c-0.27-0.02-0.54,0.07-0.76,0.23c-0.18,0.16-0.28,0.39-0.27,0.63
			h-1.93c0-0.42,0.14-0.82,0.39-1.15c0.28-0.37,0.66-0.66,1.09-0.83c0.5-0.21,1.04-0.31,1.58-0.3c0.76-0.04,1.51,0.2,2.11,0.67
			c0.53,0.47,0.82,1.17,0.78,1.88v3.11c-0.03,0.53,0.07,1.06,0.29,1.55v0.11H40.86z M39.27,17.64c0.27,0,0.54-0.06,0.79-0.19
			c0.22-0.11,0.41-0.29,0.53-0.5v-1.24H39.9c-0.96,0-1.48,0.33-1.51,1.01v0.11c-0.01,0.22,0.08,0.44,0.25,0.59
			C38.82,17.56,39.04,17.64,39.27,17.64z"/>
		<path class="st1" d="M50.48,15.45c0.05,0.95-0.22,1.88-0.76,2.66c-0.46,0.65-1.22,1.03-2.02,1.01c-0.67,0.02-1.31-0.25-1.76-0.76
			v3.39h-1.96v-9.96h1.78l0.07,0.71c0.44-0.55,1.12-0.86,1.82-0.84c0.81-0.03,1.58,0.33,2.07,0.98c0.54,0.8,0.8,1.75,0.76,2.71
			V15.45z M48.56,15.31c0.03-0.54-0.09-1.08-0.35-1.55c-0.22-0.35-0.62-0.56-1.04-0.54c-0.52-0.05-1.01,0.23-1.24,0.69v2.94
			c0.23,0.47,0.73,0.75,1.25,0.71c0.9,0,1.36-0.75,1.36-2.25H48.56z"/>
		<path class="st1" d="M54.96,19.11c-0.95,0.04-1.88-0.31-2.58-0.97c-0.68-0.68-1.05-1.62-1.01-2.58v-0.19
			c-0.01-0.67,0.13-1.33,0.42-1.94c0.26-0.56,0.68-1.02,1.2-1.34c0.53-0.31,1.14-0.47,1.75-0.46c0.87-0.05,1.72,0.29,2.32,0.93
			c0.61,0.74,0.91,1.69,0.85,2.64v0.78h-4.58c0.04,0.44,0.23,0.85,0.55,1.15c0.33,0.29,0.75,0.44,1.19,0.43
			c0.67,0.03,1.32-0.27,1.73-0.81l0.94,1.06c-0.3,0.42-0.7,0.75-1.17,0.95C56.08,19,55.52,19.12,54.96,19.11z M54.74,13.2
			c-0.35-0.01-0.69,0.13-0.93,0.39c-0.26,0.31-0.42,0.7-0.45,1.1h2.67v-0.15c0.02-0.37-0.11-0.73-0.35-1.01
			C55.42,13.3,55.08,13.18,54.74,13.2z"/>
	</g>
</g>
</svg>
