<?xml version="1.0" encoding="utf-8"?>
<!-- Generator: Adobe Illustrator 23.0.6, SVG Export Plug-In . SVG Version: 6.00 Build 0)  -->
<svg version="1.1" id="Слой_1" xmlns="http://www.w3.org/2000/svg" xmlns:xlink="http://www.w3.org/1999/xlink" x="0px" y="0px"
	 width="31px" height="30px" viewBox="0 0 31 30" style="enable-background:new 0 0 31 30;" xml:space="preserve">
<style type="text/css">
	.st0{fill:#FFFFFF;}
	.st1{fill:#3E3D3F;}
</style>
<g id="Layer_2">
	<g>
		<path class="st0" d="M2.41,0h27.14c0.79,0,1.43,0.64,1.43,1.43v27.14c0,0.79-0.64,1.43-1.43,1.43H2.41
			c-0.79,0-1.43-0.64-1.43-1.43V1.43C0.97,0.64,1.61,0,2.41,0z"/>
		<path class="st1" d="M20.6,18.28c-0.49,0.55-1.11,0.96-1.81,1.19c-0.83,0.29-1.71,0.44-2.59,0.43c-0.92,0.02-1.82-0.21-2.62-0.66
			c-0.76-0.44-1.37-1.1-1.74-1.89c-0.43-0.91-0.64-1.91-0.63-2.92v-0.75c-0.03-1.03,0.17-2.05,0.58-2.99
			c0.35-0.8,0.93-1.47,1.68-1.93c0.78-0.46,1.67-0.69,2.57-0.67c1.15-0.07,2.29,0.28,3.2,0.98c0.81,0.73,1.3,1.75,1.37,2.84h-2.31
			c-0.05-0.55-0.3-1.07-0.7-1.45c-0.43-0.33-0.95-0.49-1.49-0.46c-0.73-0.04-1.43,0.3-1.84,0.91c-0.47,0.81-0.69,1.75-0.63,2.69
			v0.73c-0.07,0.96,0.17,1.92,0.69,2.74c0.48,0.63,1.24,0.97,2.02,0.93c0.68,0.07,1.37-0.14,1.9-0.57v-1.98h-2.18v-1.77h4.56
			L20.6,18.28z"/>
	</g>
</g>
</svg>
