<?xml version="1.0" encoding="utf-8"?>
<!-- Generator: Adobe Illustrator 23.0.4, SVG Export Plug-In . SVG Version: 6.00 Build 0)  -->
<svg version="1.1" id="Слой_1" xmlns="http://www.w3.org/2000/svg" xmlns:xlink="http://www.w3.org/1999/xlink" x="0px" y="0px"
	 width="58.7px" height="30px" viewBox="0 0 58.7 30" style="enable-background:new 0 0 58.7 30;" xml:space="preserve">
<style type="text/css">
	.st0{fill:#FFFFFF;}
	.st1{fill:#3E3D3F;}
</style>
<g id="Layer_2">
	<g>
		<path class="st0" d="M1.4,0h55.8c0.8,0,1.4,0.6,1.4,1.4v27.1c0,0.8-0.6,1.4-1.4,1.4H1.4C0.6,30,0,29.4,0,28.6V1.4
			C0,0.6,0.6,0,1.4,0z"/>
		<path class="st1" d="M19.9,19h-2v-4.1H14V19h-2V9.3h2v3.9h3.9V9.3h2L19.9,19z"/>
		<path class="st1" d="M21.2,15.3c0-0.7,0.1-1.3,0.4-1.9c0.3-0.6,0.7-1,1.2-1.3c0.5-0.3,1.2-0.5,1.8-0.5c0.9,0,1.7,0.3,2.4,0.9
			c0.6,0.6,1,1.5,1,2.4v0.5c0,1-0.3,1.9-0.9,2.7c-0.6,0.7-1.5,1.1-2.5,1c-0.9,0-1.8-0.3-2.5-1C21.4,17.3,21.1,16.4,21.2,15.3
			L21.2,15.3z M23.1,15.5c0,0.5,0.1,1.1,0.4,1.6c0.5,0.6,1.3,0.7,1.9,0.3c0.1-0.1,0.2-0.2,0.3-0.3c0.3-0.5,0.4-1.1,0.4-1.7
			c0-0.5-0.1-1.1-0.4-1.6c-0.2-0.4-0.7-0.6-1.1-0.5c-0.4,0-0.8,0.2-1.1,0.5C23.2,14.3,23.1,14.9,23.1,15.5L23.1,15.5z"/>
		<path class="st1" d="M31,11.8l0.1,0.8c0.5-0.6,1.3-1,2.1-0.9c0.8-0.1,1.6,0.4,1.9,1.1c0.5-0.7,1.3-1.1,2.2-1.1
			c0.7-0.1,1.3,0.2,1.7,0.7c0.4,0.6,0.6,1.3,0.6,2V19h-1.9v-4.6c0-0.3-0.1-0.6-0.3-0.9c-0.2-0.2-0.5-0.3-0.8-0.3
			c-0.5,0-1,0.3-1.2,0.8V19h-1.9v-4.6c0-0.3-0.1-0.6-0.2-0.9c-0.2-0.2-0.5-0.3-0.8-0.3c-0.5,0-1,0.2-1.2,0.7V19h-1.9v-7.2H31z"/>
		<path class="st1" d="M44.3,19.1c-1,0-1.9-0.3-2.6-1c-0.7-0.7-1-1.6-1-2.6v-0.2c0-0.7,0.1-1.3,0.4-1.9c0.3-0.6,0.7-1,1.2-1.3
			c0.5-0.3,1.1-0.5,1.7-0.5c0.9,0,1.7,0.3,2.3,1c0.6,0.7,0.9,1.7,0.8,2.6V16h-4.6c0,0.4,0.2,0.8,0.6,1.1c0.3,0.3,0.7,0.4,1.2,0.4
			c0.7,0,1.3-0.3,1.7-0.8l0.9,1.1c-0.3,0.4-0.7,0.7-1.2,1C45.4,19,44.8,19.1,44.3,19.1z M44,13.2c-0.4,0-0.7,0.1-0.9,0.4
			c-0.3,0.3-0.4,0.7-0.5,1.1h2.7v-0.2c0-0.4-0.1-0.7-0.3-1C44.8,13.3,44.4,13.2,44,13.2z"/>
	</g>
</g>
</svg>
