<?xml version="1.0" encoding="utf-8"?>
<!-- Generator: Adobe Illustrator 23.0.6, SVG Export Plug-In . SVG Version: 6.00 Build 0)  -->
<svg version="1.1" id="Слой_1" xmlns="http://www.w3.org/2000/svg" xmlns:xlink="http://www.w3.org/1999/xlink" x="0px" y="0px"
	 width="30px" height="30px" viewBox="0 0 30 30" style="enable-background:new 0 0 30 30;" xml:space="preserve">
<style type="text/css">
	.st0{fill:#FFFFFF;}
	.st1{fill:#3E3D3F;}
</style>
<g id="Layer_2">
	<g>
		<path class="st0" d="M1.43,0h27.14C29.36,0,30,0.64,30,1.43v27.14c0,0.79-0.64,1.43-1.43,1.43H1.43C0.64,30,0,29.36,0,28.57V1.43
			C0,0.64,0.64,0,1.43,0z"/>
		<path class="st1" d="M16.15,8.22h2.37v7.98c0.01,0.68-0.17,1.35-0.51,1.94c-0.32,0.56-0.8,1.01-1.37,1.3
			c-0.63,0.32-1.32,0.48-2.02,0.46c-1.03,0.06-2.05-0.27-2.84-0.93c-0.7-0.69-1.07-1.65-1.01-2.63h2.4
			c-0.04,0.45,0.09,0.89,0.36,1.25c0.3,0.29,0.7,0.44,1.12,0.4c0.42,0.02,0.82-0.16,1.09-0.47c0.3-0.38,0.45-0.85,0.42-1.33V8.22z"
			/>
	</g>
</g>
</svg>
