<?xml version="1.0" encoding="utf-8"?>
<!-- Generator: Adobe Illustrator 23.0.4, SVG Export Plug-In . SVG Version: 6.00 Build 0)  -->
<svg version="1.1" id="Слой_1" xmlns="http://www.w3.org/2000/svg" xmlns:xlink="http://www.w3.org/1999/xlink" x="0px" y="0px"
	 width="21.9px" height="30px" viewBox="0 0 21.9 30" style="enable-background:new 0 0 21.9 30;" xml:space="preserve">
<style type="text/css">
	.st0{fill:#FFFFFF;}
	.st1{fill:#3E3D3F;stroke:#FFFFFF;stroke-width:0.2647;stroke-miterlimit:10;}
	.st2{fill:#3E3D3F;}
</style>
<g id="Layer_2">
	<g>
		<path class="st0" d="M11,4.2L11,4.2c3.5,0,6.4,2.8,6.4,6.3v8.8c0,3.5-2.8,6.3-6.3,6.3h0c-3.5,0-6.3-2.8-6.3-6.3v-8.8
			C4.7,7.1,7.5,4.2,11,4.2z"/>
		<path class="st1" d="M11,6.9L11,6.9c0.5,0,0.9,0.4,0.9,0.8v3.3c0,0.5-0.4,0.8-0.8,0.8H11c-0.5,0-0.8-0.4-0.8-0.8V7.8
			C10.2,7.3,10.5,6.9,11,6.9z"/>
		<path class="st2" d="M2.7,17.4c0.1,0.1,0.3,0.1,0.5,0c0,0,0,0,0,0c0.1-0.1,0.1-0.3,0-0.5c-1.3-1.3-1.3-3.3,0-4.6
			c0.1-0.1,0.2-0.3,0-0.5c-0.1-0.1-0.3-0.2-0.5,0c0,0,0,0,0,0C1.2,13.5,1.2,15.9,2.7,17.4z"/>
		<path class="st2" d="M1.6,18.5c0.1,0.1,0.3,0.2,0.5,0s0.2-0.3,0-0.5c0,0,0,0,0,0c-1.9-1.9-1.9-4.9,0-6.8c0.1-0.1,0.2-0.3,0-0.5
			s-0.3-0.2-0.5,0c0,0,0,0,0,0C-0.5,12.9-0.5,16.4,1.6,18.5z"/>
		<path class="st2" d="M19.2,11.9c-0.1-0.1-0.3-0.1-0.5,0c-0.1,0.1-0.1,0.3,0,0.4c1.3,1.3,1.3,3.3,0,4.6c0,0,0,0,0,0
			c-0.1,0.1-0.1,0.3,0,0.5c0.1,0.1,0.3,0.1,0.5,0c0,0,0,0,0,0C20.7,15.9,20.7,13.4,19.2,11.9z"/>
		<path class="st2" d="M20.3,10.8c-0.1-0.1-0.3-0.1-0.5,0c-0.1,0.1-0.1,0.3,0,0.5l0,0c1.9,1.9,1.9,4.9,0,6.8c-0.1,0.1-0.1,0.3,0,0.5
			c0.1,0.1,0.3,0.1,0.4,0C22.4,16.4,22.5,12.9,20.3,10.8z"/>
		<path class="st2" d="M13.7,27.3c0.1-0.1,0.1-0.3,0-0.5c-0.1-0.1-0.3-0.1-0.5,0l0,0c-1.3,1.3-3.3,1.3-4.6,0c-0.1-0.1-0.3-0.1-0.5,0
			c-0.1,0.1-0.1,0.3,0,0.5C9.7,28.8,12.2,28.8,13.7,27.3z"/>
		<path class="st2" d="M14.8,28.4c0.1-0.1,0.1-0.3,0-0.5c-0.1-0.1-0.3-0.1-0.4,0c-1.9,1.9-4.9,1.9-6.8,0c-0.1-0.1-0.3-0.1-0.5,0
			c-0.1,0.1-0.1,0.3,0,0.4C9.2,30.5,12.7,30.5,14.8,28.4z"/>
		<path class="st2" d="M8.2,2.7c-0.1,0.1-0.1,0.3,0,0.5c0,0,0,0,0,0c0.1,0.1,0.3,0.1,0.5,0c1.3-1.3,3.3-1.3,4.6,0
			c0.1,0.1,0.3,0.1,0.5,0c0.1-0.1,0.1-0.3,0-0.5c0,0,0,0,0,0C12.2,1.2,9.7,1.2,8.2,2.7z"/>
		<path class="st2" d="M7.1,1.6C7,1.7,7,1.9,7.1,2.1c0,0,0,0,0,0c0.1,0.1,0.3,0.1,0.5,0c1.9-1.9,4.9-1.9,6.8,0
			c0.1,0.1,0.3,0.1,0.5,0c0.1-0.1,0.1-0.3,0-0.5c0,0,0,0,0,0C12.7-0.5,9.2-0.5,7.1,1.6z"/>
	</g>
</g>
</svg>
