<svg id="Слой_1" data-name="Слой 1" xmlns="http://www.w3.org/2000/svg" width="18px" height="30px" viewBox="0 0 11.29 19.16"><defs><style>.cls-1{fill:#fff;}.cls-2{fill:#3e3d3f;}</style></defs><title>456374,36</title><path class="cls-1" d="M11.19,4.4h0A5.69,5.69,0,0,1,16.92,10v7.88a5.61,5.61,0,0,1-5.64,5.64h0a5.62,5.62,0,0,1-5.64-5.64V10A5.54,5.54,0,0,1,11.19,4.4Z" transform="translate(-5.64 -4.4)"/><path class="cls-2" d="M9.23,8.78l.54.52a.09.09,0,0,0,.13,0l.91-.88v3.84a.09.09,0,0,0,.09.09h.76a.09.09,0,0,0,.09-.09V8.42l.91.88a.09.09,0,0,0,.13,0l.54-.52a.09.09,0,0,0,0-.07.11.11,0,0,0,0-.07l-2-1.93-.07,0-.07,0-2,1.93a.11.11,0,0,0,0,.07A.09.09,0,0,0,9.23,8.78Z" transform="translate(-5.64 -4.4)"/><path class="cls-2" d="M13.33,13.63l-.54-.52a.09.09,0,0,0-.13,0l-.91.89V10.16a.09.09,0,0,0-.09-.1H10.9a.09.09,0,0,0-.09.1V14l-.91-.89a.09.09,0,0,0-.13,0l-.54.52a.11.11,0,0,0,0,.07.09.09,0,0,0,0,.07l2,1.93a.1.1,0,0,0,.14,0l2-1.93a.09.09,0,0,0,0-.07A.11.11,0,0,0,13.33,13.63Z" transform="translate(-5.64 -4.4)"/></svg>