<?xml version="1.0" encoding="utf-8"?>
<!-- Generator: Adobe Illustrator 23.0.6, SVG Export Plug-In . SVG Version: 6.00 Build 0)  -->
<svg version="1.1" id="Слой_1" xmlns="http://www.w3.org/2000/svg" xmlns:xlink="http://www.w3.org/1999/xlink" x="0px" y="0px"
	 width="18px" height="30px" viewBox="0 0 18 30" style="enable-background:new 0 0 18 30;" xml:space="preserve">
<style type="text/css">
	.st0{fill:#FFFFFF;}
	.st1{fill:#3E3D3F;stroke:#FFFFFF;stroke-miterlimit:10;}
</style>
<g id="Layer_2">
	<g>
		<path class="st0" d="M8.84,0h0.06c4.88,0,8.84,3.96,8.84,8.84v12.31c0,4.88-3.96,8.84-8.84,8.84H8.84C3.96,30,0,26.04,0,21.16
			V8.84C0,3.96,3.96,0,8.84,0z"/>
		<path class="st1" d="M8.88,13.47H0.44V9.13c0-4.84,3.71-8.76,8.44-8.76l0,0V13.47z"/>
		<path class="st1" d="M8.83,3.77h0.09c0.63,0,1.14,0.51,1.14,1.14v4.62c0,0.63-0.51,1.14-1.14,1.14H8.83
			c-0.63,0-1.14-0.51-1.14-1.14V4.91C7.69,4.28,8.2,3.77,8.83,3.77z"/>
	</g>
</g>
</svg>
