<?xml version="1.0" encoding="utf-8"?>
<!-- Generator: Adobe Illustrator 22.0.1, SVG Export Plug-In . SVG Version: 6.00 Build 0)  -->
<svg version="1.1" id="Слой_1" xmlns="http://www.w3.org/2000/svg" xmlns:xlink="http://www.w3.org/1999/xlink" x="0px" y="0px"
	 width="29px" height="30px" viewBox="0 0 21.9 30" style="enable-background:new 0 0 21.9 30;" xml:space="preserve">
<style type="text/css">
	.st0{fill:#FFFFFF;}
	.st1{fill:#3E3D3F;stroke:#FFFFFF;stroke-width:0.2647;stroke-miterlimit:10;}
</style>
<path class="st0" d="M11.1,4.1L11.1,4.1c3.6,0,6.6,2.9,6.6,6.5v9c0,3.6-2.9,6.5-6.5,6.5l0,0c-3.6,0-6.5-2.9-6.5-6.5v-9
	C4.6,7.1,7.5,4.1,11.1,4.1z"/>
<path class="st1" d="M11.1,6.9L11.1,6.9c0.5,0,0.9,0.4,0.9,0.8v3.4c0,0.5-0.4,0.8-0.8,0.8h-0.1c-0.5,0-0.8-0.4-0.8-0.8V7.8
	C10.3,7.3,10.6,6.9,11.1,6.9z"/>
<polygon class="st0" points="9.4,28.2 11.2,30 13,28.2 12.4,27.7 11.2,28.9 9.9,27.7 "/>
<polygon class="st0" points="13,1.8 11.2,0 9.4,1.8 9.9,2.4 11.2,1.1 12.4,2.4 "/>
<polygon class="st0" points="20.1,17.3 21.9,15.5 20.1,13.7 19.6,14.2 20.9,15.5 19.6,16.8 "/>
<polygon class="st0" points="1.8,13.7 0,15.5 1.8,17.3 2.3,16.8 1.1,15.5 2.3,14.2 "/>
</svg>
