<?xml version="1.0" encoding="utf-8"?>
<!-- Generator: Adobe Illustrator 23.0.4, SVG Export Plug-In . SVG Version: 6.00 Build 0)  -->
<svg version="1.1" id="Слой_1" xmlns="http://www.w3.org/2000/svg" xmlns:xlink="http://www.w3.org/1999/xlink" x="0px" y="0px"
	 width="17.8px" height="30px" viewBox="0 0 17.8 30" style="enable-background:new 0 0 17.8 30;" xml:space="preserve">
<style type="text/css">
	.st0{fill:#FFFFFF;}
	.st1{fill:#3E3D3F;stroke:#FFFFFF;stroke-width:0.3699;stroke-miterlimit:10;}
</style>
<g id="Layer_2">
	<g>
		<path class="st0" d="M8.8,0L8.8,0c4.9,0,8.9,4,8.9,8.8v12.3c0,4.9-4,8.8-8.8,8.8H8.8C4,30,0,26,0,21.2V8.8C0,4,4,0,8.8,0z"/>
		<path class="st1" d="M8.9,13.5h8.4V9.1c0-4.8-3.7-8.8-8.4-8.8l0,0V13.5z"/>
		<path class="st1" d="M8.8,3.8L8.8,3.8c0.7,0,1.2,0.5,1.2,1.1v4.6c0,0.6-0.5,1.1-1.1,1.1H8.8c-0.6,0-1.1-0.5-1.1-1.1V4.9
			C7.7,4.3,8.2,3.8,8.8,3.8z"/>
	</g>
</g>
</svg>
