<?xml version="1.0" encoding="utf-8"?>
<!-- Generator: Adobe Illustrator 23.0.6, SVG Export Plug-In . SVG Version: 6.00 Build 0)  -->
<svg version="1.1" id="Слой_1" xmlns="http://www.w3.org/2000/svg" xmlns:xlink="http://www.w3.org/1999/xlink" x="0px" y="0px"
	 width="31px" height="30px" viewBox="0 0 31 30" style="enable-background:new 0 0 31 30;" xml:space="preserve">
<style type="text/css">
	.st0{fill:#FFFFFF;}
	.st1{fill:#3E3D3F;}
</style>
<g id="Layer_2">
	<g>
		<path class="st0" d="M2.34,0h27.14c0.79,0,1.43,0.64,1.43,1.43v27.14c0,0.79-0.64,1.43-1.43,1.43H2.34
			c-0.79,0-1.43-0.64-1.43-1.43V1.43C0.9,0.64,1.55,0,2.34,0z"/>
		<path class="st1" d="M19.99,16.09c0,1.59-0.34,2.81-1.01,3.65c-0.7,0.86-1.78,1.34-2.89,1.27c-1.1,0.07-2.17-0.39-2.88-1.24
			c-0.66-0.83-1.01-2.02-1.01-3.54v-2.14c0-1.61,0.34-2.83,1.01-3.66c0.71-0.85,1.78-1.32,2.88-1.25c1.1-0.07,2.17,0.39,2.88,1.24
			c0.66,0.83,1.01,2.02,1.01,3.54L19.99,16.09z M17.7,13.76c0.05-0.72-0.09-1.43-0.39-2.09c-0.25-0.43-0.72-0.68-1.22-0.65
			c-0.48-0.03-0.94,0.21-1.19,0.62c-0.3,0.6-0.44,1.27-0.4,1.94v2.8c-0.05,0.72,0.09,1.44,0.38,2.1c0.24,0.44,0.71,0.71,1.21,0.68
			c0.5,0.03,0.97-0.22,1.21-0.65c0.29-0.63,0.42-1.33,0.38-2.02L17.7,13.76z"/>
	</g>
</g>
</svg>
