<?xml version="1.0" encoding="utf-8"?>
<!-- Generator: Adobe Illustrator 23.0.6, SVG Export Plug-In . SVG Version: 6.00 Build 0)  -->
<svg version="1.1" id="Слой_1" xmlns="http://www.w3.org/2000/svg" xmlns:xlink="http://www.w3.org/1999/xlink" x="0px" y="0px"
	 width="31px" height="30px" viewBox="0 0 31 30" style="enable-background:new 0 0 31 30;" xml:space="preserve">
<style type="text/css">
	.st0{fill:#FFFFFF;}
	.st1{fill:#3E3D3F;}
</style>
<g id="Layer_2">
	<g>
		<path class="st0" d="M2.14,0h27.14c0.79,0,1.43,0.64,1.43,1.43v27.14c0,0.79-0.64,1.43-1.43,1.43H2.14
			c-0.79,0-1.43-0.64-1.43-1.43V1.43C0.7,0.64,1.35,0,2.14,0z"/>
		<path class="st1" d="M13.51,15.69v4.05h-2.37V8.22h4.49c0.79-0.02,1.56,0.15,2.28,0.48c0.63,0.29,1.16,0.76,1.52,1.35
			c0.35,0.6,0.52,1.29,0.51,1.99c0.05,1.01-0.37,1.99-1.14,2.65c-0.91,0.71-2.05,1.07-3.2,1.01H13.51z M13.51,13.77h2.12
			c0.52,0.03,1.03-0.12,1.43-0.45c0.35-0.33,0.53-0.79,0.51-1.27c0.02-0.5-0.16-1-0.51-1.37c-0.36-0.37-0.86-0.58-1.38-0.57h-2.18
			L13.51,13.77z"/>
	</g>
</g>
</svg>
