<?xml version="1.0" encoding="utf-8"?>
<!-- Generator: Adobe Illustrator 23.0.6, SVG Export Plug-In . SVG Version: 6.00 Build 0)  -->
<svg version="1.1" id="Слой_1" xmlns="http://www.w3.org/2000/svg" xmlns:xlink="http://www.w3.org/1999/xlink" x="0px" y="0px"
	 width="31px" height="30px" viewBox="0 0 31 30" style="enable-background:new 0 0 31 30;" xml:space="preserve">
<style type="text/css">
	.st0{fill:#FFFFFF;}
	.st1{fill:#3E3D3F;}
</style>
<g id="Layer_2">
	<g>
		<path class="st0" d="M2.25,0h27.14c0.79,0,1.43,0.64,1.43,1.43v27.14c0,0.79-0.64,1.43-1.43,1.43H2.25
			c-0.79,0-1.43-0.64-1.43-1.43V1.43C0.82,0.64,1.46,0,2.25,0z"/>
		<path class="st1" d="M20.59,14.24c0.03,0.96-0.15,1.91-0.51,2.8c-0.31,0.75-0.81,1.41-1.45,1.91l1.91,1.52l-1.52,1.34l-2.45-1.97
			c-0.29,0.05-0.58,0.07-0.87,0.07c-0.9,0.02-1.79-0.22-2.56-0.69c-0.76-0.47-1.36-1.15-1.74-1.96c-0.43-0.92-0.64-1.93-0.62-2.94
			v-0.58c-0.02-1.03,0.19-2.06,0.61-3c0.37-0.82,0.97-1.51,1.73-1.98c0.77-0.47,1.66-0.71,2.56-0.69c0.9-0.02,1.79,0.22,2.56,0.69
			c0.76,0.47,1.36,1.17,1.73,1.98c0.42,0.94,0.63,1.96,0.61,2.99L20.59,14.24z M18.19,13.73c0.06-0.97-0.17-1.93-0.66-2.77
			c-0.41-0.62-1.11-0.97-1.85-0.94c-0.73-0.03-1.43,0.32-1.84,0.93c-0.48,0.82-0.7,1.76-0.64,2.71v0.56
			c-0.05,0.95,0.17,1.9,0.65,2.73c0.4,0.64,1.12,1.01,1.87,0.98c0.73,0.03,1.41-0.32,1.82-0.93c0.48-0.83,0.71-1.78,0.65-2.73
			L18.19,13.73z"/>
	</g>
</g>
</svg>
