<?xml version="1.0" encoding="utf-8"?>
<!-- Generator: Adobe Illustrator 23.0.6, SVG Export Plug-In . SVG Version: 6.00 Build 0)  -->
<svg version="1.1" id="Слой_1" xmlns="http://www.w3.org/2000/svg" xmlns:xlink="http://www.w3.org/1999/xlink" x="0px" y="0px"
	 width="30px" height="30px" viewBox="0 0 30 30" style="enable-background:new 0 0 30 30;" xml:space="preserve">
<style type="text/css">
	.st0{fill:#FFFFFF;}
	.st1{fill:#3E3D3F;}
</style>
<g id="Layer_2">
	<g>
		<path class="st0" d="M1.43,0h27.14C29.36,0,30,0.64,30,1.43v27.14c0,0.79-0.64,1.43-1.43,1.43H1.43C0.64,30,0,29.36,0,28.57V1.43
			C0,0.64,0.64,0,1.43,0z"/>
		<path class="st1" d="M13.72,17.42c-0.02-0.6,0.07-1.2,0.27-1.77c0.22-0.5,0.56-0.94,0.98-1.3c0.37-0.3,0.69-0.65,0.96-1.04
			c0.16-0.25,0.24-0.55,0.24-0.85c0-0.89-0.42-1.34-1.24-1.34c-0.35-0.02-0.69,0.11-0.94,0.36c-0.25,0.28-0.39,0.64-0.37,1.01h-2.29
			c-0.04-0.9,0.31-1.77,0.98-2.38c0.74-0.6,1.67-0.91,2.62-0.86c0.94-0.06,1.86,0.23,2.6,0.81c0.64,0.58,0.98,1.42,0.93,2.29
			c0,0.44-0.1,0.88-0.3,1.27c-0.28,0.5-0.63,0.94-1.05,1.33l-0.64,0.61c-0.39,0.35-0.63,0.83-0.69,1.35l-0.03,0.51L13.72,17.42z
			 M13.48,19.84c-0.01-0.33,0.12-0.65,0.36-0.88c0.25-0.23,0.58-0.35,0.92-0.34c0.34-0.01,0.67,0.11,0.92,0.34
			c0.24,0.23,0.37,0.55,0.36,0.88c0.01,0.32-0.12,0.63-0.35,0.86c-0.54,0.45-1.32,0.45-1.86,0C13.6,20.47,13.48,20.16,13.48,19.84z"
			/>
	</g>
</g>
</svg>
