<?xml version="1.0" encoding="utf-8"?>
<!-- Generator: Adobe Illustrator 23.0.6, SVG Export Plug-In . SVG Version: 6.00 Build 0)  -->
<svg version="1.1" id="Слой_1" xmlns="http://www.w3.org/2000/svg" xmlns:xlink="http://www.w3.org/1999/xlink" x="0px" y="0px"
	 width="31px" height="30px" viewBox="0 0 31 30" style="enable-background:new 0 0 31 30;" xml:space="preserve">
<style type="text/css">
	.st0{fill:#FFFFFF;}
	.st1{fill:#3E3D3F;}
	.st2{font-family:'Roboto-Medium';}
	.st3{font-size:16.185px;}
</style>
<g id="Layer_2">
	<g>
		<path class="st0" d="M2.3,0h27.11c0.79,0,1.43,0.64,1.43,1.43v27.11c0,0.79-0.64,1.43-1.43,1.43H2.3c-0.79,0-1.43-0.64-1.43-1.43
			V1.43C0.87,0.64,1.51,0,2.3,0z"/>
		<text transform="matrix(1 0 0 1 10.9404 20.9297)" class="st1 st2 st3">‘</text>
		<path class="st1" d="M16.62,8.52l1.08,0.63c-0.43,0.65-0.68,1.4-0.7,2.18v1.32h-1.81v-1.18c0.01-0.55,0.16-1.1,0.41-1.59
			C15.84,9.35,16.18,8.89,16.62,8.52z"/>
	</g>
</g>
</svg>
