<?xml version="1.0" encoding="utf-8"?>
<!-- Generator: Adobe Illustrator 23.0.6, SVG Export Plug-In . SVG Version: 6.00 Build 0)  -->
<svg version="1.1" id="Слой_1" xmlns="http://www.w3.org/2000/svg" xmlns:xlink="http://www.w3.org/1999/xlink" x="0px" y="0px"
	 width="30px" height="30px" viewBox="0 0 30 30" style="enable-background:new 0 0 30 30;" xml:space="preserve">
<style type="text/css">
	.st0{fill:#FFFFFF;}
	.st1{fill:#3E3D3F;}
</style>
<g id="Layer_2">
	<g>
		<path class="st0" d="M1.43,0h27.14C29.36,0,30,0.64,30,1.43v27.14c0,0.79-0.64,1.43-1.43,1.43H1.43C0.64,30,0,29.36,0,28.57V1.43
			C0,0.64,0.64,0,1.43,0z"/>
		<path class="st1" d="M15.12,15.52h-1.89v4.22h-2.37V8.22h4.28c1.12-0.08,2.23,0.24,3.15,0.89c0.75,0.64,1.16,1.59,1.11,2.57
			c0.03,0.69-0.15,1.38-0.51,1.97c-0.38,0.56-0.92,0.99-1.55,1.25l2.5,4.71v0.13h-2.53L15.12,15.52z M13.23,13.6h1.92
			c0.5,0.03,1-0.13,1.38-0.46c0.34-0.32,0.53-0.78,0.51-1.25c0.02-0.47-0.16-0.92-0.48-1.26c-0.39-0.34-0.9-0.51-1.42-0.47h-1.91
			V13.6z"/>
	</g>
</g>
</svg>
