<?xml version="1.0" encoding="utf-8"?>
<!-- Generator: Adobe Illustrator 23.0.6, SVG Export Plug-In . SVG Version: 6.00 Build 0)  -->
<svg version="1.1" id="Слой_1" xmlns="http://www.w3.org/2000/svg" xmlns:xlink="http://www.w3.org/1999/xlink" x="0px" y="0px"
	 width="31px" height="30px" viewBox="0 0 31 30" style="enable-background:new 0 0 31 30;" xml:space="preserve">
<style type="text/css">
	.st0{fill:#FFFFFF;}
	.st1{fill:#3E3D3F;}
</style>
<g id="Layer_2">
	<g>
		<path class="st0" d="M1.86,0H29c0.79,0,1.43,0.64,1.43,1.43v27.14c0,0.79-0.64,1.43-1.43,1.43H1.86c-0.79,0-1.43-0.64-1.43-1.43
			V1.43C0.43,0.64,1.07,0,1.86,0z"/>
		<path class="st1" d="M17.45,16.7c0.02-0.39-0.16-0.77-0.48-1.01c-0.53-0.34-1.1-0.59-1.71-0.76c-0.67-0.2-1.33-0.46-1.95-0.78
			c-1.31-0.71-1.96-1.66-1.96-2.85c-0.01-0.59,0.16-1.18,0.51-1.67c0.39-0.52,0.91-0.91,1.52-1.14c0.71-0.29,1.47-0.43,2.24-0.42
			c0.76-0.01,1.51,0.14,2.2,0.45c0.62,0.27,1.14,0.7,1.52,1.26c0.35,0.55,0.52,1.2,0.51,1.85h-2.38c0.02-0.47-0.16-0.92-0.51-1.23
			c-0.4-0.32-0.9-0.47-1.4-0.44c-0.48-0.03-0.95,0.1-1.35,0.37c-0.31,0.22-0.49,0.58-0.48,0.97c0.01,0.39,0.22,0.75,0.57,0.94
			c0.52,0.32,1.08,0.56,1.67,0.71c1.09,0.27,2.1,0.79,2.95,1.52c0.61,0.58,0.95,1.4,0.94,2.24c0.04,0.92-0.39,1.8-1.13,2.34
			c-0.89,0.61-1.96,0.9-3.04,0.85c-0.83,0-1.66-0.17-2.42-0.51c-0.67-0.27-1.26-0.73-1.68-1.32c-0.38-0.58-0.58-1.27-0.57-1.96h2.38
			c0,1.27,0.76,1.91,2.28,1.91c0.47,0.03,0.93-0.09,1.32-0.34C17.29,17.45,17.47,17.09,17.45,16.7z"/>
	</g>
</g>
</svg>
