<?xml version="1.0" encoding="utf-8"?>
<!-- Generator: Adobe Illustrator 23.0.6, SVG Export Plug-In . SVG Version: 6.00 Build 0)  -->
<svg version="1.1" id="Слой_1" xmlns="http://www.w3.org/2000/svg" xmlns:xlink="http://www.w3.org/1999/xlink" x="0px" y="0px"
	 width="59px" height="30px" viewBox="0 0 59 30" style="enable-background:new 0 0 59 30;" xml:space="preserve">
<style type="text/css">
	.st0{fill:#FFFFFF;}
	.st1{fill:#3E3D3F;}
</style>
<g id="Layer_2">
	<g>
		<path class="st0" d="M1.86,0.07h55.72c0.79,0,1.42,0.64,1.42,1.42v27.08c0,0.79-0.64,1.42-1.42,1.42H1.86
			c-0.79,0-1.42-0.64-1.42-1.42V1.49C0.44,0.71,1.07,0.07,1.86,0.07z"/>
		<path class="st1" d="M21.09,16.99c0.02-0.34-0.13-0.66-0.4-0.86c-0.44-0.28-0.93-0.49-1.43-0.63c-0.56-0.17-1.11-0.39-1.64-0.66
			c-1.1-0.59-1.64-1.39-1.64-2.39c-0.01-0.5,0.15-0.99,0.44-1.4c0.32-0.43,0.76-0.76,1.27-0.96c0.59-0.24,1.22-0.36,1.86-0.35
			c0.64-0.01,1.27,0.12,1.85,0.38c0.51,0.22,0.95,0.59,1.25,1.06c0.29,0.46,0.44,1,0.42,1.55H21.1c0.02-0.38-0.14-0.75-0.42-1.01
			c-0.33-0.27-0.75-0.4-1.17-0.37c-0.4-0.02-0.8,0.09-1.14,0.31c-0.26,0.19-0.41,0.49-0.4,0.81c0.01,0.33,0.19,0.63,0.47,0.79
			c0.43,0.26,0.9,0.47,1.39,0.6c0.91,0.22,1.76,0.65,2.47,1.26c0.5,0.49,0.77,1.17,0.75,1.87c0.03,0.77-0.32,1.51-0.95,1.97
			c-0.74,0.51-1.63,0.77-2.53,0.73c-0.69,0.01-1.38-0.14-2.01-0.41c-0.56-0.23-1.05-0.62-1.4-1.12c-0.32-0.49-0.49-1.06-0.48-1.64
			h2.01c0,1.07,0.64,1.6,1.91,1.6c0.39,0.02,0.78-0.08,1.11-0.29C20.98,17.62,21.12,17.31,21.09,16.99z"/>
		<path class="st1" d="M26.17,13.14c0.46-0.59,1.17-0.93,1.92-0.93c1.56,0,2.34,0.9,2.36,2.71v4.6h-1.92V15
			c0.03-0.33-0.07-0.65-0.26-0.91c-0.24-0.22-0.56-0.33-0.88-0.3c-0.5-0.03-0.97,0.22-1.22,0.65v5.08h-1.92V9.34h1.92L26.17,13.14z"
			/>
		<path class="st1" d="M31.89,10.49c-0.01-0.27,0.1-0.53,0.29-0.71c0.46-0.37,1.11-0.37,1.56,0c0.19,0.18,0.3,0.44,0.29,0.71
			c0.01,0.27-0.1,0.53-0.29,0.72c-0.45,0.37-1.1,0.37-1.56,0C31.98,11.02,31.88,10.76,31.89,10.49z M33.9,19.54H32v-7.19h1.92
			L33.9,19.54z"/>
		<path class="st1" d="M36.02,19.52v-5.77h-1.07v-1.4h1.07v-0.61c-0.04-0.69,0.21-1.37,0.69-1.87c0.53-0.47,1.22-0.71,1.93-0.67
			c0.33,0.01,0.66,0.05,0.98,0.14v1.48c-0.19-0.04-0.39-0.06-0.58-0.06c-0.72,0-1.08,0.34-1.08,1.01v0.58h1.43v1.4h-1.44v5.78H36.02
			z"/>
		<path class="st1" d="M42.67,10.59v1.76h1.22v1.4h-1.22v3.58c-0.02,0.2,0.03,0.4,0.15,0.57c0.16,0.14,0.37,0.2,0.58,0.18
			c0.19,0,0.38-0.01,0.56-0.05v1.45c-0.38,0.12-0.77,0.18-1.16,0.18c-1.34,0-2.02-0.68-2.05-2.04v-3.87h-1.06v-1.4h1.05v-1.76H42.67
			z"/>
	</g>
</g>
</svg>
