<?xml version="1.0" encoding="utf-8"?>
<!-- Generator: Adobe Illustrator 23.0.6, SVG Export Plug-In . SVG Version: 6.00 Build 0)  -->
<svg version="1.1" id="Слой_1" xmlns="http://www.w3.org/2000/svg" xmlns:xlink="http://www.w3.org/1999/xlink" x="0px" y="0px"
	 width="78px" height="30px" viewBox="0 0 78 30" style="enable-background:new 0 0 78 30;" xml:space="preserve">
<style type="text/css">
	.st0{fill:#FFFFFF;}
	.st1{fill:#3E3D3F;}
</style>
<g id="Layer_2">
	<g>
		<path class="st0" d="M2.09,0h74.48C77.36,0,78,0.64,78,1.43v27.14c0,0.79-0.64,1.43-1.43,1.43H2.09c-0.79,0-1.43-0.64-1.43-1.43
			V1.43C0.67,0.64,1.3,0,2.09,0z"/>
		<path class="st1" d="M24.17,18.97h-2.02v-8.06H18.3v8.06h-2.02V9.3h7.89V18.97z"/>
		<path class="st1" d="M32.26,15.44c0.05,0.95-0.22,1.88-0.76,2.66c-0.46,0.65-1.22,1.03-2.02,1.01c-0.67,0.02-1.31-0.25-1.76-0.76
			v3.39h-1.94v-9.96h1.78l0.07,0.71c0.44-0.55,1.12-0.86,1.82-0.84c0.81-0.04,1.59,0.33,2.07,0.98c0.53,0.8,0.79,1.75,0.74,2.71
			L32.26,15.44z M30.34,15.31c0.03-0.54-0.09-1.08-0.36-1.55c-0.22-0.35-0.6-0.55-1.01-0.54c-0.52-0.05-1.01,0.23-1.24,0.69v2.94
			c0.23,0.47,0.73,0.76,1.25,0.71C29.89,17.56,30.34,16.81,30.34,15.31z"/>
		<path class="st1" d="M33.15,15.31c-0.01-0.66,0.13-1.31,0.41-1.9c0.25-0.55,0.67-1.01,1.19-1.32c0.54-0.31,1.17-0.47,1.79-0.46
			c0.88-0.03,1.73,0.28,2.37,0.89c0.63,0.65,0.99,1.51,1.01,2.42v0.5c0.05,0.97-0.28,1.92-0.92,2.65c-1.39,1.33-3.58,1.33-4.96,0
			c-0.65-0.75-0.98-1.72-0.93-2.71L33.15,15.31z M35.07,15.45c-0.03,0.55,0.1,1.1,0.39,1.57c0.46,0.61,1.33,0.72,1.94,0.26
			c0.1-0.07,0.18-0.16,0.26-0.26c0.3-0.52,0.44-1.12,0.39-1.71c0.03-0.55-0.11-1.09-0.39-1.56c-0.25-0.36-0.67-0.57-1.1-0.55
			c-0.43-0.02-0.85,0.19-1.09,0.55C35.16,14.26,35.03,14.86,35.07,15.45z"/>
		<path class="st1" d="M44.71,12.18c0.84-0.04,1.64,0.3,2.21,0.92c0.58,0.7,0.87,1.58,0.83,2.49v0.1c0.04,0.92-0.29,1.82-0.92,2.49
			c-0.66,0.64-1.55,0.98-2.47,0.94c-0.93,0.04-1.84-0.33-2.47-1.01c-0.64-0.77-0.96-1.76-0.91-2.76v-0.32
			c-0.06-1.31,0.22-2.62,0.82-3.79c0.52-0.9,1.41-1.54,2.43-1.73c0.38-0.06,0.75-0.19,1.09-0.37c0.16-0.11,0.26-0.3,0.25-0.5h1.55
			c0.04,0.58-0.16,1.15-0.56,1.57c-0.59,0.44-1.28,0.72-2.02,0.81c-0.51,0.08-0.98,0.32-1.35,0.68c-0.36,0.4-0.58,0.89-0.65,1.42
			C43.11,12.51,43.89,12.18,44.71,12.18z M44.35,13.73c-0.41-0.02-0.8,0.15-1.07,0.46c-0.3,0.44-0.44,0.98-0.39,1.51
			c-0.03,0.5,0.1,0.99,0.38,1.4c0.26,0.34,0.67,0.52,1.09,0.5c0.41,0.02,0.82-0.15,1.08-0.47c0.28-0.41,0.42-0.9,0.39-1.39v-0.16
			c0.04-0.48-0.1-0.96-0.39-1.35C45.17,13.91,44.77,13.72,44.35,13.73z"/>
		<path class="st1" d="M52.2,19.11c-0.95,0.04-1.88-0.31-2.57-0.97c-0.68-0.68-1.05-1.62-1.01-2.58v-0.19
			c-0.01-0.67,0.14-1.33,0.42-1.94c0.26-0.55,0.68-1.02,1.2-1.34c0.53-0.31,1.13-0.47,1.75-0.46c0.88-0.04,1.73,0.32,2.32,0.96
			c0.61,0.74,0.91,1.68,0.85,2.64v0.78h-4.58c0.05,0.43,0.24,0.82,0.56,1.11c0.32,0.29,0.75,0.44,1.18,0.43
			c0.68,0.03,1.32-0.27,1.73-0.81L55,17.81c-0.3,0.42-0.7,0.75-1.17,0.95C53.32,19,52.76,19.11,52.2,19.11z M51.98,13.2
			c-0.35-0.01-0.69,0.14-0.93,0.4c-0.26,0.31-0.42,0.7-0.46,1.1h2.67v-0.15c0.02-0.37-0.1-0.73-0.34-1.01
			C52.67,13.31,52.33,13.18,51.98,13.2z"/>
		<path class="st1" d="M62.5,11.79v7.19h-1.92v-5.64h-1.69l-0.12,2.22c0,0.91-0.24,1.8-0.7,2.58c-0.4,0.55-1.06,0.86-1.74,0.83
			h-0.65v-1.56h0.24c0.35-0.03,0.65-0.28,0.76-0.61c0.2-0.63,0.3-1.29,0.3-1.94l0.13-3.05L62.5,11.79z"/>
	</g>
</g>
</svg>
