<?xml version="1.0" encoding="utf-8"?>
<!-- Generator: Adobe Illustrator 22.0.1, SVG Export Plug-In . SVG Version: 6.00 Build 0)  -->
<svg id="Слой_1" data-name="Слой 1" xmlns="http://www.w3.org/2000/svg" viewBox="0 0 77.3 29.9" width="78px" height="30px">
    <defs><style>.cls-1{fill:#fff;}.cls-2{fill:#3e3d3f;}</style></defs>
    <path class="cls-1" d="M1.75.05h74.5a1.37,1.37,0,0,1,1.4,1.4v27.1a1.37,1.37,0,0,1-1.4,1.4H1.75a1.37,1.37,0,0,1-1.4-1.4V1.45A1.37,1.37,0,0,1,1.75.05Z" transform="translate(-0.35 -0.05)"/>
    <path class="cls-2" d="M24.45,16.17a1.89,1.89,0,0,0-.09-.6A1.21,1.21,0,0,0,24,15.1a2.63,2.63,0,0,0-.72-.42,9.92,9.92,0,0,0-1.17-.42,11.2,11.2,0,0,1-1.45-.54,4.89,4.89,0,0,1-1.14-.7,2.87,2.87,0,0,1-.75-.92,2.52,2.52,0,0,1-.27-1.19,2.64,2.64,0,0,1,.28-1.22,2.94,2.94,0,0,1,.8-1,4,4,0,0,1,1.23-.64,5.2,5.2,0,0,1,1.58-.22,4.78,4.78,0,0,1,1.66.27,3.63,3.63,0,0,1,1.25.72,3.24,3.24,0,0,1,.78,1.07,3.14,3.14,0,0,1,.27,1.29h-1.9a2.15,2.15,0,0,0-.12-.73A1.43,1.43,0,0,0,24,9.91a1.67,1.67,0,0,0-.65-.38,2.84,2.84,0,0,0-.93-.14,3.23,3.23,0,0,0-.87.11,1.85,1.85,0,0,0-.61.32,1.3,1.3,0,0,0-.37.48,1.74,1.74,0,0,0-.11.61,1.21,1.21,0,0,0,.57,1,6.19,6.19,0,0,0,1.76.76,10.14,10.14,0,0,1,1.61.6,4.63,4.63,0,0,1,1.13.75,2.73,2.73,0,0,1,.66.94,3,3,0,0,1,.22,1.18,2.83,2.83,0,0,1-.27,1.25,2.74,2.74,0,0,1-.79.94,3.71,3.71,0,0,1-1.23.6,6.17,6.17,0,0,1-1.61.2,5.87,5.87,0,0,1-1.56-.21,4.18,4.18,0,0,1-1.38-.65,3.41,3.41,0,0,1-1-1.08,3.08,3.08,0,0,1-.37-1.52h1.91a2,2,0,0,0,.18.89,1.69,1.69,0,0,0,.51.61,2.13,2.13,0,0,0,.76.35,4,4,0,0,0,.94.11A2.32,2.32,0,0,0,24,17.23,1.28,1.28,0,0,0,24.45,16.17Z" transform="translate(-0.35 -0.05)"/>
    <path class="cls-2" d="M35,15a6.21,6.21,0,0,1-.21,1.65A4,4,0,0,1,34.18,18a2.94,2.94,0,0,1-1,.87,2.87,2.87,0,0,1-1.36.31,3.17,3.17,0,0,1-1.23-.22,2.69,2.69,0,0,1-.92-.66v3.87H27.85V10.84h1.69l.08.83a2.63,2.63,0,0,1,.93-.73,2.92,2.92,0,0,1,1.26-.25,3,3,0,0,1,1.37.3,2.73,2.73,0,0,1,1,.85,3.87,3.87,0,0,1,.61,1.31A6.36,6.36,0,0,1,35,14.84Zm-1.83-.16a4.23,4.23,0,0,0-.11-1,2.69,2.69,0,0,0-.33-.85,1.67,1.67,0,0,0-.58-.57,1.75,1.75,0,0,0-.85-.2,1.7,1.7,0,0,0-1.62.92v3.62a1.88,1.88,0,0,0,.62.69,1.82,1.82,0,0,0,1,.26,1.62,1.62,0,0,0,.85-.21,1.89,1.89,0,0,0,.58-.58,2.75,2.75,0,0,0,.33-.86,4.93,4.93,0,0,0,.1-1Z" transform="translate(-0.35 -0.05)"/>
    <path class="cls-2" d="M41.42,19a1.86,1.86,0,0,1-.13-.34c0-.13-.06-.27-.08-.42a3.42,3.42,0,0,1-.4.36,4,4,0,0,1-.49.29,3.4,3.4,0,0,1-.59.19,2.78,2.78,0,0,1-.66.07A3.43,3.43,0,0,1,37.94,19a2.67,2.67,0,0,1-.87-.51,2.27,2.27,0,0,1-.78-1.74,2.54,2.54,0,0,1,.25-1.16,2.18,2.18,0,0,1,.72-.85,3.64,3.64,0,0,1,1.16-.51A6.27,6.27,0,0,1,40,14h1.16v-.53a1.43,1.43,0,0,0-.36-1,1.39,1.39,0,0,0-1.07-.38,1.78,1.78,0,0,0-.59.09,1.36,1.36,0,0,0-.45.23,1.21,1.21,0,0,0-.29.35,1.09,1.09,0,0,0-.1.44H36.46a2,2,0,0,1,.24-.93,2.54,2.54,0,0,1,.67-.8,3.55,3.55,0,0,1,1.06-.56,4.36,4.36,0,0,1,1.39-.21,4.64,4.64,0,0,1,1.27.17,3,3,0,0,1,1,.53,2.52,2.52,0,0,1,.66.88A3.05,3.05,0,0,1,43,13.49v3.62a4.06,4.06,0,0,0,.31,1.75V19Zm-2-1.32a1.87,1.87,0,0,0,.59-.08,2.05,2.05,0,0,0,.5-.22,1.91,1.91,0,0,0,.38-.31,2.11,2.11,0,0,0,.27-.36V15.16h-1a2.66,2.66,0,0,0-1.53.36,1.14,1.14,0,0,0-.51,1,1.34,1.34,0,0,0,.08.46,1.15,1.15,0,0,0,.25.37,1.22,1.22,0,0,0,.4.24A1.89,1.89,0,0,0,39.41,17.67Z" transform="translate(-0.35 -0.05)"/>
    <path class="cls-2" d="M48.25,17.68a1.79,1.79,0,0,0,.62-.1,1.46,1.46,0,0,0,.5-.29,1.36,1.36,0,0,0,.35-.44,1.29,1.29,0,0,0,.15-.56h1.72a2.48,2.48,0,0,1-.29,1.11,2.84,2.84,0,0,1-.71.91,3.41,3.41,0,0,1-1.05.61,3.53,3.53,0,0,1-1.27.22,3.81,3.81,0,0,1-1.64-.32,3.4,3.4,0,0,1-1.16-.88,3.65,3.65,0,0,1-.69-1.31,5.39,5.39,0,0,1-.23-1.58v-.26a5.51,5.51,0,0,1,.23-1.59,3.69,3.69,0,0,1,.69-1.3A3.22,3.22,0,0,1,46.63,11a4.28,4.28,0,0,1,3-.1,3.14,3.14,0,0,1,1,.64,2.93,2.93,0,0,1,.68,1,3.35,3.35,0,0,1,.26,1.24H49.87a2.21,2.21,0,0,0-.13-.62,1.72,1.72,0,0,0-.33-.51,1.48,1.48,0,0,0-.5-.34,1.59,1.59,0,0,0-.66-.13,1.59,1.59,0,0,0-1.49.83,2.39,2.39,0,0,0-.3.84,6.2,6.2,0,0,0-.07,1v.26a6.15,6.15,0,0,0,.07,1,2.55,2.55,0,0,0,.3.84,1.79,1.79,0,0,0,.56.6A1.73,1.73,0,0,0,48.25,17.68Z" transform="translate(-0.35 -0.05)"/>
    <path class="cls-2" d="M56.57,19.14a4.19,4.19,0,0,1-1.63-.3A3.66,3.66,0,0,1,53.71,18a3.55,3.55,0,0,1-.77-1.25,4.2,4.2,0,0,1-.28-1.56v-.3A5,5,0,0,1,53,13.16a4,4,0,0,1,.78-1.33A3.36,3.36,0,0,1,54.91,11a3.52,3.52,0,0,1,1.45-.3,3.68,3.68,0,0,1,1.54.3,2.81,2.81,0,0,1,1.09.83,3.62,3.62,0,0,1,.64,1.27,5.88,5.88,0,0,1,.21,1.62v.79H54.51a3.07,3.07,0,0,0,.2.87,2,2,0,0,0,.44.69,2.18,2.18,0,0,0,.66.46,2.13,2.13,0,0,0,.86.16,2.42,2.42,0,0,0,1.18-.27,2.6,2.6,0,0,0,.87-.75l1,.95a3.55,3.55,0,0,1-.49.57,3.37,3.37,0,0,1-.67.48,3.85,3.85,0,0,1-.88.35A4.2,4.2,0,0,1,56.57,19.14Zm-.22-7a1.55,1.55,0,0,0-1.22.52,2.82,2.82,0,0,0-.59,1.47H58V14a3.31,3.31,0,0,0-.12-.7,1.71,1.71,0,0,0-.29-.59,1.31,1.31,0,0,0-.51-.42A1.72,1.72,0,0,0,56.35,12.16Z" transform="translate(-0.35 -0.05)"/>
</svg>