<?xml version="1.0" encoding="utf-8"?>
<!-- Generator: Adobe Illustrator 23.0.6, SVG Export Plug-In . SVG Version: 6.00 Build 0)  -->
<svg version="1.1" id="Слой_1" xmlns="http://www.w3.org/2000/svg" xmlns:xlink="http://www.w3.org/1999/xlink" x="0px" y="0px"
	 width="42px" height="30px" viewBox="0 0 42 30" style="enable-background:new 0 0 42 30;" xml:space="preserve">
<style type="text/css">
	.st0{fill:#FFFFFF;}
	.st1{fill:#3E3D3F;}
</style>
<g id="Layer_2">
	<g>
		<path class="st0" d="M1.74,0h38.83C41.36,0,42,0.64,42,1.43v27.15c0,0.79-0.64,1.43-1.43,1.43H1.74c-0.79,0-1.43-0.64-1.43-1.43
			V1.43C0.32,0.64,0.96,0,1.74,0z"/>
		<path class="st1" d="M18.86,11.44H15.9v8.06h-1.98v-8.06H11V9.83h7.86V11.44z"/>
		<path class="st1" d="M22.93,19.5c-0.1-0.2-0.17-0.42-0.19-0.65c-0.46,0.52-1.12,0.82-1.81,0.8c-0.64,0.02-1.27-0.2-1.75-0.61
			c-0.46-0.39-0.72-0.96-0.71-1.56c-0.03-0.69,0.29-1.35,0.86-1.75c0.73-0.45,1.59-0.66,2.45-0.6h0.89v-0.41
			c0.02-0.29-0.08-0.57-0.26-0.8c-0.21-0.22-0.51-0.33-0.81-0.3c-0.27-0.02-0.54,0.07-0.76,0.24c-0.19,0.16-0.29,0.39-0.28,0.63
			h-1.92c0-0.42,0.13-0.82,0.38-1.15c0.28-0.37,0.66-0.66,1.09-0.84c0.5-0.21,1.04-0.31,1.58-0.3c0.76-0.04,1.51,0.2,2.11,0.67
			c0.53,0.47,0.82,1.16,0.78,1.87v3.11c-0.03,0.53,0.07,1.06,0.29,1.55v0.11L22.93,19.5z M21.34,18.14c0.27,0,0.54-0.06,0.78-0.19
			c0.22-0.11,0.41-0.29,0.53-0.5v-1.22h-0.72c-0.96,0-1.47,0.33-1.51,1.01v0.12c-0.01,0.22,0.09,0.44,0.25,0.59
			C20.86,18.09,21.1,18.16,21.34,18.14z"/>
		<path class="st1" d="M32.53,15.97c0.05,0.95-0.21,1.89-0.74,2.68c-0.48,0.66-1.25,1.03-2.06,1.01c-0.73,0.02-1.43-0.31-1.86-0.9
			l-0.09,0.76h-1.73V9.29h1.92v3.66c0.43-0.51,1.07-0.8,1.74-0.78c0.81-0.03,1.58,0.33,2.07,0.97c0.54,0.8,0.81,1.76,0.75,2.72
			V15.97z M30.61,15.83c0.04-0.55-0.08-1.1-0.34-1.59c-0.23-0.33-0.61-0.52-1.01-0.5C28.72,13.7,28.22,14,28,14.49v2.84
			c0.22,0.5,0.73,0.8,1.27,0.76c0.58,0.03,1.1-0.35,1.22-0.92C30.6,16.73,30.64,16.28,30.61,15.83z"/>
	</g>
</g>
</svg>
