<?xml version="1.0" encoding="utf-8"?>
<!-- Generator: Adobe Illustrator 23.0.6, SVG Export Plug-In . SVG Version: 6.00 Build 0)  -->
<svg version="1.1" id="Слой_1" xmlns="http://www.w3.org/2000/svg" xmlns:xlink="http://www.w3.org/1999/xlink" x="0px" y="0px"
	 width="31px" height="30px" viewBox="0 0 31 30" style="enable-background:new 0 0 31 30;" xml:space="preserve">
<style type="text/css">
	.st0{fill:#FFFFFF;}
	.st1{fill:#3E3D3F;}
</style>
<g id="Layer_2">
	<g>
		<path class="st0" d="M2.07,0H29.2c0.79,0,1.43,0.64,1.43,1.43v27.14c0,0.79-0.64,1.43-1.43,1.43H2.07c-0.79,0-1.43-0.64-1.43-1.43
			V1.43C0.63,0.64,1.28,0,2.07,0z"/>
		<path class="st1" d="M14.34,12.15c-0.01-0.33,0.12-0.66,0.37-0.89c0.25-0.23,0.58-0.35,0.92-0.34c0.34-0.01,0.68,0.11,0.93,0.34
			c0.24,0.23,0.38,0.55,0.36,0.89c0.01,0.33-0.12,0.65-0.36,0.88c-0.54,0.45-1.32,0.45-1.86,0C14.46,12.8,14.32,12.48,14.34,12.15z
			 M14.34,18.63c-0.02-0.34,0.12-0.68,0.37-0.91c0.25-0.23,0.58-0.35,0.92-0.34c0.34-0.01,0.68,0.11,0.93,0.34
			c0.24,0.23,0.38,0.55,0.36,0.89c0.01,0.33-0.12,0.65-0.36,0.88c-0.54,0.45-1.32,0.45-1.86,0c-0.24-0.22-0.37-0.54-0.36-0.87V18.63
			z"/>
	</g>
</g>
</svg>
