<?xml version="1.0" encoding="utf-8"?>
<!-- Generator: Adobe Illustrator 23.0.6, SVG Export Plug-In . SVG Version: 6.00 Build 0)  -->
<svg version="1.1" id="Слой_1" xmlns="http://www.w3.org/2000/svg" xmlns:xlink="http://www.w3.org/1999/xlink" x="0px" y="0px"
	 width="31px" height="30px" viewBox="0 0 31 30" style="enable-background:new 0 0 31 30;" xml:space="preserve">
<style type="text/css">
	.st0{fill:#FFFFFF;}
	.st1{fill:#3E3D3F;}
</style>
<g id="Layer_2">
	<g>
		<path class="st0" d="M1.49,0h27.14c0.79,0,1.43,0.64,1.43,1.43v27.14c0,0.79-0.64,1.43-1.43,1.43H1.49
			c-0.79,0-1.43-0.64-1.43-1.43V1.43C0.06,0.64,0.7,0,1.49,0z"/>
		<path class="st1" d="M19.47,8.22v7.59c0.05,1.12-0.38,2.21-1.19,2.98c-0.89,0.77-2.05,1.16-3.23,1.1
			c-1.16,0.06-2.31-0.32-3.2-1.07c-0.81-0.76-1.25-1.83-1.21-2.94V8.22h2.38v7.59c-0.05,0.6,0.14,1.2,0.54,1.65
			c0.42,0.36,0.97,0.55,1.52,0.51c1.33,0,2.01-0.7,2.02-2.1V8.22H19.47z"/>
	</g>
</g>
</svg>
