<?xml version="1.0" encoding="utf-8"?>
<!-- Generator: Adobe Illustrator 23.0.6, SVG Export Plug-In . SVG Version: 6.00 Build 0)  -->
<svg version="1.1" id="Слой_1" xmlns="http://www.w3.org/2000/svg" xmlns:xlink="http://www.w3.org/1999/xlink" x="0px" y="0px"
	 width="47px" height="30px" viewBox="0 0 47 30" style="enable-background:new 0 0 47 30;" xml:space="preserve">
<style type="text/css">
	.st0{fill:#FFFFFF;}
	.st1{fill:#3E3D3F;}
</style>
<g id="Layer_2">
	<g>
		<path class="st0" d="M1.81,15.81h12.06c0.59,0,1.06,0.48,1.06,1.06v12.06c0,0.59-0.48,1.06-1.06,1.06H1.81
			c-0.59,0-1.06-0.48-1.06-1.06V16.88C0.75,16.29,1.22,15.81,1.81,15.81z"/>
		<path class="st0" d="M17.81,15.81h12.06c0.59,0,1.06,0.48,1.06,1.06v12.06c0,0.59-0.48,1.06-1.06,1.06H17.81
			c-0.59,0-1.06-0.48-1.06-1.06V16.88C16.74,16.29,17.22,15.81,17.81,15.81z"/>
		<path class="st0" d="M11.16,0h12.06c0.59,0,1.06,0.48,1.06,1.06v12.06c0,0.59-0.48,1.06-1.06,1.06H11.16
			c-0.59,0-1.06-0.48-1.06-1.06V1.06C10.09,0.48,10.57,0,11.16,0z"/>
		<path class="st0" d="M33.88,15.81h12.06c0.59,0,1.06,0.48,1.06,1.06v12.06c0,0.59-0.48,1.06-1.06,1.06H33.88
			c-0.59,0-1.06-0.48-1.06-1.06V16.88C32.81,16.29,33.29,15.81,33.88,15.81z"/>
		<path class="st1" d="M19.02,8.65l0.97-5.13h1.48l-1.6,7.22h-1.5L17.2,5.91l-1.18,4.83h-1.5l-1.59-7.22h1.49l0.97,5.13l1.19-5.13
			h1.26L19.02,8.65z"/>
		<path class="st1" d="M9.14,24.76H6.54l-0.5,1.5H4.46l2.68-7.23h1.38l2.7,7.22H9.64L9.14,24.76z M6.94,23.56h1.8l-0.91-2.7
			L6.94,23.56z"/>
		<path class="st1" d="M25.11,24.36c0.02-0.25-0.1-0.49-0.3-0.65c-0.33-0.21-0.69-0.37-1.07-0.47c-0.42-0.13-0.83-0.3-1.23-0.5
			c-0.82-0.44-1.23-1.04-1.23-1.79c0-0.37,0.11-0.73,0.33-1.02c0.24-0.34,0.56-0.6,0.94-0.75c0.44-0.18,0.91-0.26,1.38-0.26
			c0.47-0.01,0.95,0.09,1.38,0.28c0.38,0.17,0.71,0.45,0.94,0.79c0.22,0.34,0.34,0.75,0.33,1.16h-1.5c0.01-0.28-0.1-0.56-0.31-0.75
			c-0.25-0.2-0.56-0.29-0.88-0.27c-0.3-0.02-0.6,0.06-0.85,0.23c-0.19,0.14-0.3,0.37-0.3,0.61c0.01,0.25,0.14,0.47,0.35,0.59
			c0.33,0.2,0.68,0.35,1.05,0.44c0.69,0.16,1.33,0.48,1.87,0.94c0.38,0.37,0.6,0.88,0.58,1.41c0.02,0.58-0.24,1.13-0.71,1.47
			c-0.56,0.38-1.23,0.57-1.91,0.53c-0.52,0.01-1.03-0.1-1.5-0.3c-0.42-0.17-0.78-0.46-1.05-0.83c-0.25-0.36-0.38-0.79-0.38-1.23h1.5
			c0,0.81,0.47,1.21,1.42,1.21c0.29,0.01,0.59-0.07,0.83-0.23C25,24.82,25.12,24.59,25.11,24.36z"/>
		<path class="st1" d="M37.25,26.25v-7.22h2.22c0.6-0.01,1.18,0.14,1.7,0.43c0.5,0.29,0.91,0.71,1.17,1.22
			c0.29,0.55,0.43,1.17,0.42,1.79v0.33c0.01,0.62-0.13,1.24-0.41,1.79c-0.26,0.51-0.67,0.93-1.17,1.21
			c-0.52,0.29-1.11,0.45-1.71,0.44H37.25z M38.75,20.24v4.82h0.72c0.51,0.03,1.01-0.18,1.33-0.57c0.33-0.47,0.5-1.05,0.47-1.63
			v-0.38c0.04-0.59-0.12-1.18-0.45-1.67c-0.33-0.4-0.83-0.61-1.35-0.58L38.75,20.24z"/>
	</g>
</g>
</svg>
