<svg width="44" height="47" fill="none" xmlns="http://www.w3.org/2000/svg"><path d="M25.178 14.019l.96-1.732a.194.194 0 00-.338-.187l-.97 1.75a6.541 6.541 0 00-5.253 0l-.97-1.75a.194.194 0 00-.34.187l.96 1.732a5.546 5.546 0 00-3.093 4.876h12.137a5.546 5.546 0 00-3.093-4.876zm-5.776 2.655a.506.506 0 110-1.013.506.506 0 010 1.013zm5.602 0a.507.507 0 110-1.014.507.507 0 010 1.014zm-8.87 11.497a1.467 1.467 0 001.468 1.468h.973v3a1.36 1.36 0 102.721 0v-3h1.814v3a1.361 1.361 0 102.72 0v-3h.974a1.467 1.467 0 001.468-1.468v-8.796H16.133v8.796zm-1.867-9.03a1.362 1.362 0 00-1.36 1.361v5.669a1.361 1.361 0 102.72 0v-5.669a1.362 1.362 0 00-1.36-1.36zm15.872 0a1.362 1.362 0 00-1.36 1.361v5.669a1.361 1.361 0 102.72 0v-5.669a1.362 1.362 0 00-1.36-1.36z" fill="#E6E8EC"/><rect x="1.407" y=".5" width="41.593" height="45.004" rx="7.5" stroke="#E6E8EC"/></svg>