<svg width="48" height="48" fill="none" xmlns="http://www.w3.org/2000/svg"><path d="M12.111 29.74h1.977v-8.416h-1.977v8.416zm.985-9.52c.619 0 1.103-.476 1.103-1.071 0-.604-.484-1.08-1.103-1.08A1.08 1.08 0 0012 19.15c0 .595.484 1.072 1.096 1.072zm7.574-2.127c-3.342 0-5.438 2.279-5.438 5.923s2.096 5.915 5.438 5.915c3.335 0 5.43-2.27 5.43-5.915 0-3.644-2.095-5.923-5.43-5.923zm0 1.747c2.04 0 3.343 1.62 3.343 4.176 0 2.548-1.302 4.168-3.343 4.168-2.048 0-3.342-1.62-3.342-4.168 0-2.557 1.294-4.176 3.342-4.176zm6.265 6.677c.087 2.112 1.818 3.414 4.454 3.414 2.77 0 4.518-1.366 4.518-3.541 0-1.707-.985-2.668-3.311-3.2l-1.318-.302c-1.405-.333-1.985-.778-1.985-1.54 0-.953.873-1.588 2.168-1.588 1.31 0 2.207.643 2.302 1.715h1.953c-.048-2.016-1.715-3.382-4.24-3.382-2.493 0-4.263 1.373-4.263 3.406 0 1.636 1 2.652 3.112 3.136l1.485.35c1.445.34 2.032.817 2.032 1.643 0 .953-.96 1.636-2.342 1.636-1.397 0-2.453-.691-2.58-1.747h-1.985z" fill="#E6E8EC"/><rect x=".5" y=".5" width="46.907" height="47" rx="7.5" stroke="#E6E8EC"/></svg>