<svg width="47" height="49" fill="none" xmlns="http://www.w3.org/2000/svg"><path d="M24.005 12a6.59 6.59 0 00-.48.02c-4.227.335-3.105 4.808-3.168 6.3-.078 1.09-.3 1.953-1.05 3.02-.888 1.051-2.13 2.75-2.72 4.52-.276.831-.41 1.688-.284 2.492a.391.391 0 00-.113.132c-.258.27-.45.602-.661.84-.199.199-.484.266-.797.4-.312.135-.66.268-.864.683a1.32 1.32 0 00-.132.602c0 .195.027.398.054.535.06.398.117.726.04.969-.25.678-.277 1.143-.106 1.484.175.336.535.468.937.602.813.199 1.91.136 2.778.597.925.469 1.867.672 2.617.473a1.785 1.785 0 001.207-.945c.585-.003 1.23-.27 2.258-.336.699-.059 1.574.27 2.578.199.027.137.062.199.117.336v.004c.39.777 1.113 1.129 1.887 1.07.768-.062 1.589-.535 2.253-1.308.633-.762 1.683-1.083 2.379-1.5.348-.2.629-.469.648-.856.024-.398-.198-.812-.71-1.374v-.099l-.004-.003c-.172-.2-.25-.535-.34-.925-.086-.403-.18-.785-.492-1.047-.063-.055-.125-.067-.191-.133a.365.365 0 00-.189-.066c.43-1.278.262-2.547-.176-3.692-.53-1.41-1.465-2.64-2.172-3.484-.797-1.004-1.578-1.957-1.562-3.367.027-2.153.238-6.133-3.543-6.14l.001-.003zm.528 3.406h.015a.97.97 0 01.582.195c.192.136.333.333.438.535.105.258.16.457.168.723 0-.02.003-.04.003-.058v.105c0-.008-.003-.015-.003-.023l-.004-.024c0 .242-.05.485-.148.707a.922.922 0 01-.215.336c-.027-.015-.055-.031-.086-.043-.105-.047-.2-.062-.285-.132a1.357 1.357 0 00-.22-.067c.048-.058.145-.133.184-.198a1.29 1.29 0 00.087-.402v-.02a1.19 1.19 0 00-.063-.399c-.043-.133-.097-.2-.18-.332-.086-.067-.168-.133-.27-.133h-.015c-.093 0-.176.027-.261.133a.807.807 0 00-.204.332 1.106 1.106 0 00-.09.398v.02c0 .09.009.18.02.27-.196-.066-.438-.137-.61-.204a1.604 1.604 0 01-.016-.198v-.02a1.79 1.79 0 01.15-.77 1.06 1.06 0 01.43-.531.988.988 0 01.593-.199v-.001zm-2.961.059h.035a.71.71 0 01.399.133c.148.129.266.288.344.464.09.2.14.403.156.668v.004c.004.133.004.204-.004.266v.082l-.081.023c-.153.055-.273.133-.396.2.012-.09.012-.18.004-.266v-.016c-.011-.131-.039-.198-.082-.332a.628.628 0 00-.168-.269.25.25 0 00-.179-.063h-.024c-.07.004-.129.039-.183.133a.509.509 0 00-.12.27.926.926 0 00-.025.332v.011c.012.137.036.204.082.336.043.133.098.2.164.267.012.012.02.02.036.023-.07.059-.117.071-.175.137-.04.028-.082.063-.133.071a2.517 2.517 0 01-.274-.402 1.748 1.748 0 01-.156-.669 1.847 1.847 0 01.078-.668c.06-.195.153-.379.285-.535.13-.132.258-.198.418-.198l-.001-.002zm1.37 1.707c.333 0 .732.062 1.216.398.293.2.524.27 1.055.465.258.137.406.27.48.403v-.133a.57.57 0 01.016.468c-.126.313-.516.645-1.066.844v.004c-.266.133-.5.332-.774.465-.277.133-.59.293-1.012.266a1.193 1.193 0 01-.45-.067 2.795 2.795 0 01-.32-.198c-.194-.133-.362-.333-.612-.465v-.004h-.004c-.403-.246-.617-.512-.688-.711-.066-.27-.003-.468.196-.601.222-.133.378-.27.48-.336.105-.074.145-.102.176-.129h.004v-.004c.168-.203.433-.468.84-.602a1.86 1.86 0 01.464-.062v-.001zm2.797 2.14c.36 1.418 1.2 3.477 1.74 4.473.285.535.855 1.66 1.1 3.024.157-.004.328.018.513.066.648-1.672-.543-3.469-1.086-3.97-.223-.198-.234-.332-.125-.332.59.532 1.362 1.572 1.644 2.755.129.534.16 1.106.024 1.671.066.027.132.063.203.066 1.031.537 1.414.938 1.23 1.54v-.044c-.058-.003-.12 0-.18 0h-.015c.153-.468-.183-.828-1.066-1.226-.914-.398-1.645-.336-1.77.465a.813.813 0 00-.015.137c-.071.024-.14.05-.21.063-.43.27-.661.672-.793 1.188-.13.535-.168 1.155-.204 1.871-.024.336-.171.84-.32 1.35-1.5 1.075-3.583 1.54-5.347.337a2.738 2.738 0 00-.403-.535 1.434 1.434 0 00-.277-.332c.183 0 .34-.031.465-.067a.642.642 0 00.316-.335c.106-.267 0-.696-.348-1.165-.343-.464-.93-.992-1.785-1.519-.632-.398-.988-.87-1.152-1.395-.164-.535-.141-1.086-.016-1.644.246-1.07.875-2.113 1.278-2.766.105-.062.035.137-.41.977-.395.75-1.14 2.497-.122 3.852.04-.988.258-1.965.648-2.875.562-1.277 1.743-3.503 1.836-5.269.048.04.216.138.29.204.214.132.378.332.59.465.21.198.476.335.875.335.039.004.074.004.108.004.41 0 .732-.133.996-.266.29-.137.525-.336.742-.402h.004c.465-.133.836-.403 1.043-.7v-.001zm2.188 8.958c.04.6.344 1.245.883 1.378.586.132 1.433-.333 1.789-.765l.21-.009c.316-.008.579.009.847.267l.004.003c.207.199.305.531.39.876.087.402.153.78.41 1.065.485.527.645.906.638 1.141-.016.261-.189.394-.5.593-.63.403-1.747.711-2.458 1.572-.618.738-1.37 1.14-2.036 1.19-.664.055-1.238-.198-1.574-.897l-.004-.004c-.21-.399-.12-1.024.055-1.688.176-.668.43-1.347.465-1.898.035-.715.074-1.336.191-1.818.12-.465.31-.797.645-.98l.043-.024.002-.002zm-10.816.05h.012c.054 0 .105.004.156.016.375.055.707.332 1.023.75l.91 1.664.004.004c.242.53.754 1.062 1.187 1.637.434.597.77 1.132.731 1.57v.008c-.059.742-.48 1.144-1.125 1.293-.645.133-1.52 0-2.394-.465-.969-.535-2.121-.469-2.86-.602-.366-.066-.608-.203-.722-.402-.11-.199-.114-.602.125-1.231v-.003c.117-.336.032-.754-.027-1.121-.055-.4-.082-.708.043-.938.16-.337.398-.399.69-.535.294-.133.642-.199.915-.469h.003v-.004c.255-.265.447-.597.669-.836.188-.203.378-.336.66-.336zm7.16-9.074c-.434.199-.945.535-1.488.535s-.97-.265-1.277-.465c-.156-.136-.282-.27-.375-.336-.165-.133-.145-.336-.075-.336.11.015.13.136.2.204.097.066.214.198.358.332.294.198.684.468 1.168.468.485 0 1.055-.27 1.399-.468.195-.133.445-.332.648-.465.156-.137.15-.27.277-.27.129.015.036.133-.144.332a8.506 8.506 0 01-.691.469zM23.19 17.66v-.018c-.003-.02.012-.043.031-.052.07-.042.18-.027.258.004.062 0 .16.066.152.136-.008.047-.086.067-.137.067-.054 0-.094-.043-.14-.07-.051-.016-.15-.008-.164-.067zm-.55 0c-.021.06-.115.051-.165.067-.047.027-.086.07-.141.07-.051 0-.133-.02-.137-.07-.007-.067.086-.133.149-.133.082-.032.183-.047.26-.004.017.009.037.031.029.052v.018h.004z" fill="#E6E8EC"/><rect x=".5" y=".5" width="46" height="47.003" rx="7.5" stroke="#E6E8EC"/></svg>