<svg width="48" height="48" fill="none" xmlns="http://www.w3.org/2000/svg"><rect x=".5" y=".5" width="47" height="47" rx="7.5" fill="#E6E8EC"/><path d="M23.016 14.028v9.185c0 .109.088.197.197.197H35.8a.197.197 0 00.197-.197V12.197a.197.197 0 00-.225-.195l-12.587 1.832a.197.197 0 00-.169.194zM21.64 34.029a.197.197 0 00.196-.197v-9.045a.197.197 0 00-.197-.197h-9.435a.197.197 0 00-.197.197v7.752c0 .098.073.181.17.195l9.436 1.293a.218.218 0 00.026.002zM12.205 23.41h9.434a.197.197 0 00.197-.197v-8.956a.197.197 0 00-.223-.195l-9.443 1.282a.197.197 0 00-.17.195l.009 7.674c0 .109.088.197.196.197zM35.8 36a.196.196 0 00.197-.197L36 24.787a.197.197 0 00-.197-.197h-12.59a.197.197 0 00-.197.197v9.245c0 .099.073.182.17.195l12.587 1.771.027.002z" fill="#777E90"/><rect x=".5" y=".5" width="47" height="47" rx="7.5" stroke="#E6E8EC"/></svg>