<svg xmlns="http://www.w3.org/2000/svg" viewBox="0 0 512 512"><path d="M432 0H80C35.888 0 0 35.888 0 80v40c0 11.046 8.954 20 20 20s20-8.954 20-20V80c0-22.056 17.944-40 40-40h352c22.056 0 40 17.944 40 40v352c0 22.056-17.944 40-40 40H80c-22.056 0-40-17.944-40-40v-40c0-11.046-8.954-20-20-20s-20 8.954-20 20v40c0 44.112 35.888 80 80 80h352c44.112 0 80-35.888 80-80V80c0-44.112-35.888-80-80-80z"/><path d="M335.919 213.567l-74.784-74.716c-7.814-7.807-20.477-7.801-28.284.013-7.807 7.814-7.801 20.477.013 28.284l74.778 74.709c7.798 7.798 7.798 20.486 0 28.284l-.087.088-74.784 75.716c-7.762 7.859-7.684 20.522.175 28.284A19.932 19.932 0 00246.999 380c5.16 0 10.318-1.985 14.23-5.946l74.746-75.677c23.346-23.398 23.329-61.425-.056-84.81z"/><path d="M233 236H20c-11.046 0-20 8.954-20 20s8.954 20 20 20h213c11.046 0 20-8.954 20-20s-8.954-20-20-20z"/></svg>