<svg version="1.0" xmlns="http://www.w3.org/2000/svg" width="896" height="896" viewBox="0 0 672 672"><path d="M181.8 95.6c-.3.2-3.4.6-6.9.8-12.8.9-20.4 2.9-37.9 10-.8.3-2.8 1.5-4.5 2.6-1.6 1.1-4.3 2.7-6 3.6-8.6 4.8-19.7 15.3-31.3 29.6-7.5 9.2-23.2 32.6-23.2 34.5 0 .7-.3 1.3-.7 1.3-.5 0-1.3 1-1.9 2.3-.6 1.2-4.1 8-7.8 15.2-3.6 7.1-6.6 13.3-6.6 13.7 0 .5-.8 2-1.7 3.5-1 1.4-1.8 3.1-2 3.7-.1.6-2.9 7.7-6.2 15.9-8.1 20.1-18 50.9-22.6 70.2-.4 1.6-.9 3.7-1.1 4.5-.7 2.9-2.6 10.5-3 12.5-.3 1.1-.7 3.3-1 5-.3 1.6-.9 4.3-1.4 6-.4 1.6-1.1 4.6-1.4 6.5-.3 1.9-.8 4.6-1.1 6-.3 1.4-.9 5-1.5 8s-1.2 6.6-1.5 8c-.3 1.3-.7 4-1 6-.3 2-.7 4.5-.9 5.5-.2 1.1-.7 4.5-1.1 7.5-.4 3-.9 6.4-1.1 7.5-.5 2.8-1.3 8.3-1.9 14-.3 2.7-.7 5.9-.9 7-.2 1.1-.7 5.8-1.1 10.5-.4 4.7-.9 10.1-1.1 12-.4 5.3-.4 32.8.1 38.5.4 5.2 1.3 13.4 2.1 19.5 3 22.1 13.6 52.6 22.9 66.4 1.4 2 2.5 4 2.5 4.3 0 1.5 11.6 15.8 17.5 21.7 6 6 22.9 17.8 24.9 17.6.5-.1 1.2.2 1.5.7.5.7 5.2 3.2 7.1 3.8.3.1 1.2.5 2 .8 16.7 7 44.9 7.1 63.2.1 12.8-4.9 29.4-14.2 37.8-21 8.7-7.2 12.4-10.6 19.5-17.8 9.9-10.1 16.1-17 20-22.1 1.6-2.2 3.8-4.9 4.8-6 1.6-1.8 6.2-8.6 21.6-32 6.1-9.4 18.3-21.5 24.6-24.4 6.1-2.8 15.5-3.7 24.4-2.1 5.8 1 23.7 1.2 83.1.7 21.5-.2 33.6 5.9 45.5 22.8 2.7 3.8 7.6 10.4 10.9 14.5 5.3 6.7 8.4 10.3 21.6 25.5 8.3 9.6 37.4 37.7 46.6 45.1 8.8 7 19.1 13.3 23.1 14 .7.1 3.4.9 6 1.7 9.6 3.1 19 4.2 33.8 4.2 16.5-.1 22.4-.5 23.1-1.7.3-.5.9-.6 1.3-.4.7.5 6.9-.8 10.1-2.1.8-.4 1.7-.7 2-.8 5.6-1.4 12.5-4.7 21.5-10.3 5.1-3.2 19.6-17.8 21.5-21.7.8-1.7 2-3.7 2.6-4.5.7-.8 1.3-1.8 1.4-2.2 0-.4 1.1-3.1 2.4-6 1.3-2.9 3.1-7.8 4-10.8 1-3 2-6.2 2.3-7 1-2.4 1.4-4.3 3.3-12.5.8-3.3 1.4-6.2 1.5-6.5.2-.8 1.8-10.4 2.1-12.5.1-1.1.3-2 .4-2 .2 0 1.4-9.9 2.8-24 1.5-15.1.6-76.9-1.3-86-.2-1.1-.7-4.9-1-8.5-.3-3.6-.7-8.1-1-10-.3-1.9-.7-5.8-1-8.5-.3-2.8-.8-5.7-1-6.5-.3-.8-.7-3.1-.9-5-.6-4.8-4.5-27.2-5.1-29-.2-.8-.6-2.6-.9-4-.2-1.4-1.1-5.7-2-9.5-.8-3.9-1.7-8.2-2-9.5-.3-1.4-1.7-7-3.1-12.5-1.4-5.5-2.8-11.4-3.1-13-.3-1.7-1.2-4.8-2-7-.7-2.2-1.4-4.8-1.4-5.8 0-.9-.4-2.5-.9-3.5-.8-1.7-5-15-5.1-16.4-.1-1.5-10.8-30.9-13.5-37.3-6-14.1-8.5-19.5-13.7-29.5-26.3-50.5-59.7-76.6-104.3-81.6-9.6-1.1-30.2-.5-37.6 1.2-1 .2-2.9.6-4.1.9-1.3.3-3.6.8-5.3 1.1-4.9.8-16.9 4.5-18.1 5.5-.7.6-2.1 1.1-3.1 1.3-2.1.5-12 6.2-14.1 8.3-.7.7-1.6 1.3-2 1.3-.4 0-2 1.3-3.7 2.8-8.7 8-24.5 21.2-25.3 21.2-.5 0-1.5.6-2.1 1.4-3.2 3.9-26.3 12.3-35.7 13-2.3.2-4.6.6-5.1.9-1.1.7-24 .1-27.8-.7-12.6-2.7-23.3-7.4-31.5-13.7-3.7-2.8-11-8.5-12.7-9.9-5.7-4.7-18.3-13.7-23.1-16.4-9.9-5.9-32.4-14.1-44.1-16.3-1.4-.2-2.7-.6-3.1-.8-.3-.2-3.3-.6-6.5-1-7.5-.8-11.7-1.5-12.5-2-.3-.2-1.2 0-2 .5-.7.4-2.3.4-3.6 0-1.2-.5-2.4-.7-2.6-.4zM217 196c2.8 1.6 5.5 4.3 7.5 7.4l3 4.9.1 29.4c.1 16.1.3 29.5.5 29.8.3.2 2.5.4 4.9.4 5.5.1 27.9.2 30 .2 7-.1 17.8 0 19 .2 6.7 1.3 11.4 5.1 14.7 11.6 1.4 2.8 1.8 6.4 2 17 .1 8.5-.2 14-.9 14.8-.6.7-.7 1.3-.4 1.3 1.1 0-3.4 6.2-6.4 8.8-4.7 4.1-8.1 4.6-36.2 4.6-17.4.1-26.8.4-26.9 1.1 0 .5-.2 13.8-.3 29.5-.1 17.6-.7 29.5-1.3 31.1-1.9 4.3-6.5 9.1-10.8 11-5.2 2.4-25.4 2.7-30.6.5-4.4-1.9-8.4-5.8-10.8-10.4-1.7-3.4-1.9-6.3-2-32.7 0-16-.1-29.2-.1-29.5 0-.3-12.5-.5-27.8-.6-26.4 0-27.9-.1-31.9-2.2-4.5-2.3-8.4-6.8-10.3-11.7-1.8-4.6-1.5-27.2.4-31.7 2.1-4.8 6.5-9.3 11.2-11.3 3.2-1.3 21.8-2.4 25.9-1.5.6.1 1.5.2 2 0 .6-.1 7.6-.2 15.8-.2H172l.1-5.6c.1-3.2 0-6.2-.1-6.7-.3-1.1-.3-1.8 0-5.5.1-1.4.2-8.6.1-16-.2-26.1.6-30.3 7.3-35.6 5.4-4.4 9-5.2 21.6-5 10.2.1 12 .4 16 2.6zm311.3 20c3.7 1.8 6.7 3.6 6.7 4.1 0 .4.9 1.1 2 1.4 1.1.3 2 1.3 2 2.1s.3 1.4.8 1.4c1.2 0 5.2 6.5 7.4 12.1 3.9 10.5 3.1 23.5-2.2 33.9-2.1 4-10.3 13-11.9 13-.6 0-1.1.3-1.1.8 0 .4-1.4 1.3-3.1 2.1-11.5 5.1-22.5 5.1-32.3.1-6.2-3.1-13.5-9.7-16.4-14.9-1.5-2.6-4.1-9.4-4.8-12.6-.6-2.9-.6-13.5.1-17 1.1-5.2 6.3-14.9 10.1-18.8 7.9-8.1 17-11.6 28.5-11.2 6.2.2 8.8.8 14.2 3.5zM448 300.5c2.5.3 6.8 1.7 9.7 3 5.6 2.5 15.3 10.9 15.3 13.1 0 .8.4 1.4.9 1.4 2.4 0 6.5 15.1 6.3 23.5-.3 13.7-9.4 28.6-20.8 34-15.1 7.1-30.5 4.9-42.1-6.3-6.1-5.7-12.2-16-11.7-19.5.1-.9-.1-1.7-.4-1.7-.9 0-.7-14.6.2-18.4 1.2-5.2 6.4-14 10.8-18.5 4.9-5 14.1-9.7 20.8-10.6 2.5-.4 4.7-.8 4.9-1.1.2-.2.7-.2 1 0 .4.3 2.7.7 5.1 1.1z"/></svg>