<svg xmlns="http://www.w3.org/2000/svg" viewBox="0 0 17.12 17.12"><path d="M8.661.001h.034c.019-.002.027 0 .039 0a8.58 8.58 0 015.955 2.42L16.447.645a.286.286 0 01.314-.065.297.297 0 01.186.271l-.294 6.066h-5.715a.294.294 0 01-.145-.548l1.73-1.751c-1.026-.988-2.36-1.529-3.832-1.529-2.993.017-5.433 2.47-5.433 5.51.023 2.978 2.457 5.4 5.481 5.422a5.511 5.511 0 004.719-3.221l2.803 1.293-.019.039c-1.92 3.713-4.946 5.277-8.192 4.944-4.375-.348-7.848-4.013-7.878-8.52C.171 3.876 3.976.042 8.661.001z" fill="#030104"/></svg>