<svg xmlns="http://www.w3.org/2000/svg" viewBox="0 0 489.776 489.776"><path d="M482.676 4.47A15.308 15.308 0 00469.044.261l-138.607 25.97a17.15 17.15 0 00-13.232 11.797 17.166 17.166 0 004.256 17.203l21.954 21.953-68.59 68.563c-5.582 5.579-5.579 14.628.005 20.205l47.182 47.12c5.578 5.57 14.615 5.567 20.189-.007l68.556-68.554 21.97 21.953a17.17 17.17 0 0017.25 4.241 17.144 17.144 0 0011.75-13.313l25.237-139.309a15.333 15.333 0 00-4.288-13.613zM79.019 345.264L57.05 323.311a17.173 17.173 0 00-17.25-4.242 17.147 17.147 0 00-11.752 13.313L2.811 471.692a15.34 15.34 0 004.29 13.613 15.3 15.3 0 0013.631 4.209l138.606-25.971a17.164 17.164 0 008.975-29l-21.952-21.953 68.663-68.454c5.594-5.577 5.598-14.636.01-20.218l-47.271-47.214c-5.578-5.571-14.616-5.569-20.19.006l-68.554 68.554z"/></svg>