<svg xmlns="http://www.w3.org/2000/svg" width="23" height="23"><path fill="#fff" d="M10.421 0c5.756 0 10.422 4.663 10.422 10.414a10.395 10.395 0 01-.742 3.865l-.064-.064a1.04 1.04 0 01-1.794-.719l-.01-.097c0-.273.106-.522.28-.708l-.088-.087a8.32 8.32 0 00.297-2.21c0-4.591-3.725-8.314-8.32-8.314-4.595 0-8.32 3.723-8.32 8.315s3.725 8.315 8.32 8.315a8.295 8.295 0 005.772-2.326c.025-.033.052-.065.082-.096l1.511.026 3.58 3.579.008-.007 1.332 1.33a1.038 1.038 0 010 1.47 1.039 1.039 0 01-1.472 0l-4.206-4.201a10.382 10.382 0 01-6.588 2.344C4.666 20.83 0 16.166 0 10.414 0 4.663 4.666 0 10.42 0z"/></svg>