<svg xmlns="http://www.w3.org/2000/svg" width="45" height="45"><path fill="#fff" d="M38.414 6.581c-8.774-8.777-23.052-8.777-31.826 0a22.42 22.42 0 00-6.09 11.188 22.557 22.557 0 00.835 12.369.916.916 0 101.723-.621A20.725 20.725 0 012.29 18.15 20.59 20.59 0 017.883 7.877c8.06-8.063 21.176-8.063 29.236 0a20.554 20.554 0 016.05 14.371 20.568 20.568 0 01-5.684 14.486l-.131.14a13.49 13.49 0 01-.235.246c-8.06 8.062-21.176 8.062-29.236 0a7.328 7.328 0 01-.126-.13 15.48 15.48 0 01.006-.801l.01-.184c.006-.122.012-.244.02-.365l.02-.215.03-.327.03-.229c.013-.103.025-.206.04-.309l.038-.233.051-.3.047-.234.061-.293.056-.235c.023-.095.045-.19.07-.285.02-.079.043-.156.065-.235.026-.093.052-.187.08-.28a13.914 13.914 0 01.163-.507l.08-.23a16.211 16.211 0 01.19-.496 13.834 13.834 0 01.805-1.69 15.625 15.625 0 01.68-1.103 13.174 13.174 0 01.305-.43c.057-.078.115-.155.174-.232.048-.063.096-.126.146-.188.06-.076.121-.151.183-.226.05-.06.1-.122.152-.182.063-.074.127-.148.192-.22a14.015 14.015 0 01.359-.391l.163-.17.21-.209.168-.162c.073-.07.148-.136.222-.204.057-.052.113-.104.17-.154.077-.068.156-.134.234-.2.058-.048.114-.098.173-.145.08-.066.164-.13.246-.195l.173-.136c.087-.066.176-.13.265-.194.056-.04.111-.082.168-.122.098-.069.198-.135.298-.202.05-.033.098-.067.148-.099.13-.085.262-.167.396-.248.02-.012.04-.026.062-.038.154-.093.311-.182.47-.27.054-.03.11-.058.164-.087.105-.056.21-.113.317-.166.069-.035.139-.067.208-.1.088-.043.175-.086.263-.127a8.953 8.953 0 006.173 2.485 8.953 8.953 0 006.174-2.485 14.915 14.915 0 017.333 7.466.916.916 0 101.677-.738 16.513 16.513 0 00-7.789-8.17 8.91 8.91 0 001.552-5.023c0-4.934-4.013-8.949-8.947-8.949a.916.916 0 000 1.833c3.924 0 7.115 3.192 7.115 7.116a7.098 7.098 0 01-1.835 4.758 7.123 7.123 0 01-5.28 2.36 7.124 7.124 0 01-5.28-2.36 7.1 7.1 0 01-1.835-4.757c0-1.916.75-3.713 2.11-5.06a.916.916 0 00-1.288-1.302 8.886 8.886 0 00-2.654 6.361c0 1.8.543 3.543 1.549 5.02l-.027.013c-.071.036-.14.074-.212.11-.108.057-.217.112-.324.171-.076.041-.15.085-.225.127-.1.056-.2.113-.299.171-.076.045-.151.093-.227.139-.095.059-.19.117-.283.177-.076.049-.15.1-.226.15a18.873 18.873 0 00-.493.341l-.26.19-.218.167a15.315 15.315 0 00-.703.579 17.616 17.616 0 00-.638.583l-.226.223c-.064.065-.128.128-.19.193l-.22.233c-.06.066-.121.13-.18.197-.073.081-.144.163-.215.245-.056.066-.114.131-.17.198-.072.086-.141.174-.211.261l-.157.195c-.073.095-.144.191-.216.287l-.135.182c-.09.125-.178.252-.264.38-.023.033-.047.065-.07.1-.108.16-.213.324-.315.489l-.103.172c-.066.11-.132.22-.196.33-.04.07-.077.141-.116.211-.055.101-.111.201-.165.303-.04.076-.077.153-.116.229-.05.098-.1.196-.147.296-.038.079-.074.159-.111.238l-.134.295c-.036.082-.07.165-.104.247a16.052 16.052 0 00-.961 3.144c-.018.088-.036.176-.052.264-.02.11-.038.22-.056.33l-.041.262c-.017.114-.03.228-.045.343l-.032.254c-.013.12-.023.241-.033.362-.007.08-.016.161-.022.242-.01.135-.016.27-.022.406-.004.067-.009.134-.011.201-.007.204-.012.408-.012.613 0 .22.008.43.017.661.002.054.01.106.02.156l.003.012c.01.05.027.098.046.145l.005.013c.02.046.043.09.07.13l.01.017a.93.93 0 00.09.115l.007.008.121.128c.092.098.183.196.278.291 4.387 4.389 10.15 6.582 15.913 6.582s11.526-2.193 15.914-6.582c.095-.095.186-.193.278-.29l.12-.129A22.392 22.392 0 0045 22.227a22.375 22.375 0 00-6.586-15.646z"/></svg>