<svg xmlns="http://www.w3.org/2000/svg" height="512" width="512"><path d="M241.574 210.21l-82.953 87.83 75.492-41.423 39.446 41.422 82.488-87.828-74.656 40.695zm0 0" data-original="#000000" class="active-path" fill="#38B1E4"/><path d="M256 0C114.637 0 0 114.637 0 256s114.637 256 256 256 256-114.637 256-256S397.363 0 256 0zm2 393.035c-15.848 0-31.145-2.238-45.535-6.383L160.84 416v-55.21c-34.578-26.313-56.66-66.388-56.66-111.27C104.18 170.254 173.047 106 258 106c84.957 0 153.82 64.254 153.82 143.52 0 79.257-68.863 143.515-153.82 143.515zm0 0" data-original="#000000" class="active-path" fill="#38B1E4"/></svg>