<svg xmlns="http://www.w3.org/2000/svg" height="512" width="512"><path d="M256 0C114.637 0 0 114.637 0 256s114.637 256 256 256 256-114.637 256-256S397.363 0 256 0zm153.316 338.656c-1.843 4.297-10.132 10.403-39.125 14.88-2.375.362-3.293 3.452-4.707 9.925-.515 2.355-1.035 4.672-1.75 7.105-.617 2.11-1.933 3.098-4.148 3.098h-.36c-1.538 0-3.718-.277-6.488-.82-4.91-.957-10.414-1.84-17.418-1.84-4.09 0-8.32.351-12.574 1.055-8.7 1.453-16.086 6.664-23.906 12.195-11.363 8.039-23.094 16.332-41.38 16.332a52.38 52.38 0 01-2.358-.063c-.5.043-1.02.063-1.54.063-18.277 0-30.007-8.29-41.351-16.316-7.832-5.532-15.227-10.758-23.938-12.211a77.271 77.271 0 00-12.562-1.055c-7.371 0-13.176 1.137-17.422 1.965-2.574.504-4.8.937-6.492.937-1.766 0-3.676-.383-4.508-3.222-.723-2.465-1.242-4.844-1.75-7.157-1.297-5.93-2.215-9.578-4.7-9.96-28.987-4.477-37.288-10.587-39.136-14.919a5.572 5.572 0 01-.445-1.851 3.26 3.26 0 012.73-3.406c44.559-7.336 64.543-52.887 65.375-54.82a1.72 1.72 0 01.07-.153c2.727-5.527 3.258-10.328 1.594-14.262-3.058-7.203-13.035-10.37-19.636-12.465-1.614-.515-3.145-.996-4.356-1.476-13.176-5.207-14.27-10.55-13.75-13.274.883-4.644 7.086-7.882 12.106-7.882 1.37 0 2.582.246 3.601.722 5.93 2.774 11.27 4.184 15.883 4.184 6.367 0 9.148-2.676 9.488-3.027-.168-3.016-.367-6.168-.57-9.422-1.328-21.063-2.977-47.246 3.695-62.188 19.977-44.789 62.336-48.273 74.848-48.273.32 0 5.484-.055 5.484-.055h.739c12.535 0 54.996 3.484 74.98 48.3 6.668 14.95 5.02 41.153 3.691 62.204l-.058.918c-.184 2.93-.363 5.777-.512 8.508.32.328 2.88 2.785 8.649 3.008h.004c4.394-.168 9.433-1.57 14.968-4.157 1.617-.761 3.422-.922 4.645-.922 1.879 0 3.773.368 5.347 1.02l.102.043c4.473 1.586 7.406 4.719 7.469 8 .058 3.086-2.301 7.726-13.856 12.293-1.199.473-2.73.957-4.355 1.473-6.61 2.093-16.578 5.265-19.637 12.464-1.668 3.938-1.137 8.73 1.594 14.258.023.055.05.106.074.16.828 1.934 20.79 47.47 65.375 54.817a3.267 3.267 0 012.73 3.402 5.468 5.468 0 01-.453 1.867zm0 0" data-original="#000000" class="active-path" fill="#FFE529"/></svg>